<?xml version="1.0" standalone="no"?>
<!DOCTYPE svg PUBLIC "-//W3C//DTD SVG 1.1//EN" "http://www.w3.org/Graphics/SVG/1.1/DTD/svg11.dtd" >
<svg xmlns="http://www.w3.org/2000/svg" width="100%" height="100%">
<metadata>
Created by FontXChange 20110222 at Sun Feb  9 16:13:48 2020
 By sarah hahnle

</metadata>
<defs>
<font id="PostGrotesk-Medium" horiz-adv-x="600" >
  <font-face 
    font-family="PostGrotesk"
    font-weight="500"
    font-stretch="normal"
    units-per-em="1000"
    panose-1="2 0 0 0 0 0 0 0 0 0"
    ascent="750"
    descent="-250"
    x-height="474"
    cap-height="700"
    bbox="-130 -262 1354 948"
    underline-thickness="40"
    underline-position="-100"
    unicode-range="U+0020-F301"
  />
<missing-glyph horiz-adv-x="829" 
d="M65 700h700v-700h-700v700zM135 70h560v560h-560v-560zM228 113l-50 50l188 187l-188 187l50 50l187 -188l187 188l50 -50l-188 -187l188 -187l-50 -50l-187 188z" />
    <glyph glyph-name="interrobang" unicode="&#x21;&#x3f;" horiz-adv-x="527" 
d="M417 366c-14 -12.667 -27.6709 -23.832 -41.0039 -33.499s-25.166 -19.334 -35.499 -29.001s-18.666 -19.834 -24.999 -30.501s-9.5 -23 -9.5 -37v-31h-83l-5 410c-13.333 -6 -24.5 -14 -33.5 -24s-16.667 -21.167 -23 -33.5s-11.333 -25.5 -15 -39.5
s-6.16699 -27.667 -7.5 -41l-111 19c5.33301 30.667 14 59.167 26 85.5s27.833 49.333 47.5 69s43.334 35 71.001 46s59.834 16.5 96.501 16.5c38.667 0 72 -6 100 -18s51.333 -27.5 70 -46.5s32.5 -40.333 41.5 -64s13.5 -47.5 13.5 -71.5
c0 -17.333 -2.33301 -33.166 -7 -47.499s-10.667 -27.5 -18 -39.5s-15.5 -23 -24.5 -33s-18.167 -19 -27.5 -27zM379.996 514.002c0 22.667 -5.5 43.332 -16.5 61.999s-27.5 32.334 -49.5 41.001l-5 -219c9.33301 8 18.333 15.667 27 23s16.167 15.5 22.5 24.5
s11.5 19 15.5 30s6 23.833 6 38.5zM194.996 62c0 20.667 6.5 37.334 19.5 50.001s29.833 19 50.5 19c21.333 0 38.5 -6.33301 51.5 -19s19.5 -29.334 19.5 -50.001c0 -20 -6.5 -36.667 -19.5 -50s-30.167 -20 -51.5 -20c-20.667 0 -37.5 6.66699 -50.5 20s-19.5 30 -19.5 50
z" />
    <glyph glyph-name="f_b" unicode="fb" horiz-adv-x="929" 
d="M676 487c30.667 0 59.002 -5.82715 85.002 -17.4941s48.5 -28.334 67.5 -50.001s34 -47.834 45 -78.501s16.5 -65.334 16.5 -104.001s-5.5 -73.334 -16.5 -104.001s-26 -56.834 -45 -78.501s-41.5 -38.334 -67.5 -50.001s-54.333 -17.5 -85 -17.5
c-40.667 0 -73.334 8.5 -98.001 25.5s-43.334 36.167 -56.001 57.5v-70h-109v700h114v-287c14 20 33.333 37.333 58 52s55 22 91 22zM526.002 214.006c0 -24.667 4 -45.666 12 -62.999s18 -31.5 30 -42.5s25.5 -19 40.5 -24s29.5 -7.5 43.5 -7.5c18.667 0 35.5 4 50.5 12
s27.833 19.167 38.5 33.5s18.834 31.166 24.501 50.499s8.5 40.666 8.5 63.999c0 22.667 -2.83301 43.834 -8.5 63.501s-13.834 36.667 -24.501 51s-23.5 25.5 -38.5 33.5s-31.833 12 -50.5 12c-14 0 -28.5 -2.5 -43.5 -7.5s-28.5 -13 -40.5 -24s-22 -25.167 -30 -42.5
s-12 -38.333 -12 -63v-46zM17.002 474.007l79.999 -0.000976562v67c0 30 4.16699 55.833 12.5 77.5s19.666 39.5 33.999 53.5s31 24.333 50 31s39.5 10 61.5 10c20 0 40.333 -2.66699 61 -8s37.667 -12.666 51 -21.999l-42 -87c-7.33301 6.66699 -16.166 12 -26.499 16
s-21.166 6 -32.499 6c-37.333 0 -56 -25.667 -56 -77v-67h101v-84h-101v-390h-113v390h-80v84z" />
    <glyph glyph-name="f_h" unicode="fh" horiz-adv-x="907" 
d="M17 474l79.999 -0.000976562v67c0 30 4.16699 55.833 12.5 77.5s19.666 39.5 33.999 53.5s31 24.333 50 31s39.5 10 61.5 10c20 0 40.333 -2.66699 61 -8s37.667 -12.666 51 -21.999l-42 -87c-7.33301 6.66699 -16.166 12 -26.499 16s-21.166 6 -32.499 6
c-37.333 0 -56 -25.667 -56 -77v-67h101v-84h-101v-390h-113v390h-80v84zM413.999 699.999l113.998 0.000976562v-291c12 21.333 29.5 39.666 52.5 54.999s53.5 23 91.5 23c22.667 0 44.334 -3.33301 65.001 -10s38.5 -16.667 53.5 -30s27 -30 36 -50s13.5 -43.333 13.5 -70
v-327h-114v300c0 16.667 -2.5 31 -7.5 43s-11.5 21.833 -19.5 29.5s-17.333 13.167 -28 16.5s-21.667 5 -33 5c-14 0 -27.667 -3 -41 -9s-25.166 -15 -35.499 -27s-18.5 -27 -24.5 -45s-9 -38.667 -9 -62v-251h-114v700z" />
    <glyph glyph-name="f_k" unicode="fk" horiz-adv-x="875" 
d="M17 474l79.999 -0.000976562v67c0 30 4.16699 55.833 12.5 77.5s19.666 39.5 33.999 53.5s31 24.333 50 31s39.5 10 61.5 10c20 0 40.333 -2.66699 61 -8s37.667 -12.666 51 -21.999l-42 -87c-7.33301 6.66699 -16.166 12 -26.499 16s-21.166 6 -32.499 6
c-37.333 0 -56 -25.667 -56 -77v-67h101v-84h-101v-390h-113v390h-80v84zM574.999 229.999l-48 -44v-186h-114v700h114v-396l184 170h133l-187 -174l213 -300h-134z" />
    <glyph glyph-name="fi" unicode="fi" 
d="M401 643c0 21.333 6.5 38.166 19.5 50.499s29.833 18.5 50.5 18.5s37.5 -6.16699 50.5 -18.5s19.5 -29.166 19.5 -50.499c0 -19.333 -6.33301 -35.666 -19 -48.999s-29.667 -20 -51 -20s-38.333 6.66699 -51 20s-19 29.666 -19 48.999zM414 474h114v-474h-114v474z
M17 474l80 -0.000976562v67c0 30 4.16699 55.833 12.5 77.5s19.666 39.5 33.999 53.5s31 24.333 50 31s39.5 10 61.5 10c19.333 0 38.833 -2.66699 58.5 -8s35.834 -12.666 48.501 -21.999l-39 -87c-7.33301 6.66699 -15.833 12 -25.5 16s-20.167 6 -31.5 6
c-37.333 0 -56 -25.667 -56 -77v-67h101v-84h-101v-390h-113v390h-80v84z" />
    <glyph glyph-name="fl" unicode="fl" horiz-adv-x="599" 
d="M17 474l79.999 -0.000976562v67c0 30 4.16699 55.833 12.5 77.5s19.666 39.5 33.999 53.5s31 24.333 50 31s39.5 10 61.5 10c20 0 40.333 -2.66699 61 -8s37.667 -12.666 51 -21.999l-42 -87c-7.33301 6.66699 -16.166 12 -26.499 16s-21.166 6 -32.499 6
c-37.333 0 -56 -25.667 -56 -77v-67h101v-84h-101v-390h-113v390h-80v84zM412.999 699.999h114v-700h-114v700z" />
    <glyph glyph-name="interrobangdown" unicode="&#xa1;&#xbf;" horiz-adv-x="520" 
d="M110 134c14 12.667 27.6709 23.8311 41.0039 33.498s25.166 19.334 35.499 29.001s18.666 19.834 24.999 30.501s9.5 23 9.5 37v31h83l5 -410c12.667 6 23.667 14 33 24s17.166 21.167 23.499 33.5s11.333 25.5 15 39.5s6.16699 27.667 7.5 41l111 -19
c-5.33301 -30.667 -14 -59.167 -26 -85.5s-27.833 -49.333 -47.5 -69s-43.334 -35 -71.001 -46s-59.834 -16.5 -96.501 -16.5c-38.667 0 -72.167 5.83301 -100.5 17.5s-51.666 27 -69.999 46s-32 40.5 -41 64.5s-13.5 48 -13.5 72c0 34.667 8.16699 63.667 24.5 87
s33.833 43.333 52.5 60zM147.004 -14.0029c0 -22.667 5.5 -43.3311 16.5 -61.998s27.5 -32.334 49.5 -41.001l5 219c-18.667 -15.333 -35.167 -31.333 -49.5 -48s-21.5 -39.334 -21.5 -68.001zM332.004 438c0 -20.667 -6.5 -37.334 -19.5 -50.001s-29.833 -19 -50.5 -19
c-21.333 0 -38.5 6.33301 -51.5 19s-19.5 29.334 -19.5 50.001c0 20 6.5 36.667 19.5 50s30.167 20 51.5 20c20.667 0 37.5 -6.66699 50.5 -20s19.5 -30 19.5 -50z" />
    <glyph glyph-name="interrobangdown.cap" unicode="&#xe441;&#xe444;" horiz-adv-x="527" 
d="M110 334c14 12.667 27.6709 23.8311 41.0039 33.498s25.166 19.334 35.499 29.001s18.666 19.834 24.999 30.501s9.5 23 9.5 37v31h83l5 -410c12.667 6 23.667 14 33 24s17.166 21.167 23.499 33.5s11.333 25.5 15 39.5s6.16699 27.667 7.5 41l111 -19
c-5.33301 -30.667 -14 -59.167 -26 -85.5s-27.833 -49.333 -47.5 -69s-43.334 -35 -71.001 -46s-59.834 -16.5 -96.501 -16.5c-38.667 0 -72.167 5.83301 -100.5 17.5s-51.666 27 -69.999 46s-32 40.5 -41 64.5s-13.5 48 -13.5 72c0 34.667 8.16699 63.667 24.5 87
s33.833 43.333 52.5 60zM147.004 185.997c0 -22.667 5.5 -43.3311 16.5 -61.998s27.5 -32.334 49.5 -41.001l5 219c-18.667 -15.333 -35.167 -31.333 -49.5 -48s-21.5 -39.334 -21.5 -68.001zM332.004 638c0 -20.667 -6.5 -37.334 -19.5 -50.001s-29.833 -19 -50.5 -19
c-21.333 0 -38.5 6.33301 -51.5 19s-19.5 29.334 -19.5 50.001c0 20 6.5 36.667 19.5 50s30.167 20 51.5 20c20.667 0 37.5 -6.66699 50.5 -20s19.5 -30 19.5 -50z" />
    <glyph glyph-name="fj" unicode="fj" horiz-adv-x="603" 
d="M17 474l80 -0.000976562v67c0 30 4.16699 55.833 12.5 77.5s19.666 39.5 33.999 53.5s31 24.333 50 31s39.5 10 61.5 10c19.333 0 38.833 -2.66699 58.5 -8s35.834 -12.666 48.501 -21.999l-39 -87c-7.33301 6.66699 -15.833 12 -25.5 16s-20.167 6 -31.5 6
c-37.333 0 -56 -25.667 -56 -77v-67h101v-84h-101v-390h-113v390h-80v84zM531 -47.001c0 -30.667 -5.16797 -56.668 -15.501 -78.001s-23.5 -38.5 -39.5 -51.5s-33.833 -22.333 -53.5 -28s-39.167 -8.5 -58.5 -8.5c-21.333 0 -41.666 3 -60.999 9s-37.333 14 -54 24l46 85
c7.33301 -5.33301 16.333 -10.666 27 -15.999s22.667 -8 36 -8c18.667 0 33.167 6.66699 43.5 20s15.5 33 15.5 59v514h114v-521zM403.999 642.998c0 21.333 6.5 38.166 19.5 50.499s29.833 18.5 50.5 18.5s37.5 -6.16699 50.5 -18.5s19.5 -29.166 19.5 -50.499
c0 -19.333 -6.33301 -35.666 -19 -48.999s-29.667 -20 -51 -20s-38.333 6.66699 -51 20s-19 29.666 -19 48.999z" />
    <glyph glyph-name=".notdef" horiz-adv-x="829" 
d="M65 700h700v-700h-700v700zM135 70h560v560h-560v-560zM228 113l-50 50l188 187l-188 187l50 50l187 -188l187 188l50 -50l-188 -187l188 -187l-50 -50l-187 188z" />
    <glyph glyph-name="space" unicode=" " horiz-adv-x="225" 
 />
    <glyph glyph-name="space" unicode="&#xa0;" horiz-adv-x="225" 
 />
    <glyph glyph-name="exclam" unicode="!" horiz-adv-x="265" 
d="M180 209h-95l-13 491h121zM62 62c0 20.667 6.5 37.334 19.5 50.001s29.833 19 50.5 19c21.333 0 38.5 -6.33301 51.5 -19s19.5 -29.334 19.5 -50.001c0 -20 -6.5 -36.667 -19.5 -50s-30.167 -20 -51.5 -20c-20.667 0 -37.5 6.66699 -50.5 20s-19.5 30 -19.5 50z" />
    <glyph glyph-name="quotedbl" unicode="&#x22;" horiz-adv-x="370" 
d="M235 462l-23 238h108l-23 -238h-62zM73 462l-23 238h107l-22 -238h-62z" />
    <glyph glyph-name="numbersign" unicode="#" horiz-adv-x="640" 
d="M356 199h-131l-35 -199h-87l35 199h-105v85h120l25 139h-107v80h121l35 197h87l-35 -197h131l35 197h87l-35 -197h110v-80h-125l-24 -139h112v-85h-127l-36 -199h-86zM240 284h131l24 139h-131z" />
    <glyph glyph-name="dollar" unicode="$" horiz-adv-x="602" 
d="M339 696c60.667 -6 108.669 -23.998 144.002 -53.998s57.666 -69 66.999 -117l-100 -25c-2 12 -5.33301 23.833 -10 35.5s-11.334 22.5 -20.001 32.5s-19.667 18.667 -33 26s-29.333 12.666 -48 15.999v-214c34 -7.33301 64.5 -16.333 91.5 -27s49.833 -24 68.5 -40
s32.834 -35 42.501 -57s14.5 -48 14.5 -78c0 -27.333 -4.66699 -52.833 -14 -76.5s-23.166 -44.334 -41.499 -62.001s-41 -32.167 -68 -43.5s-58.167 -18.333 -93.5 -21v-96h-68v95c-71.333 5.33301 -126 26.166 -164 62.499s-58 80.5 -60 132.5l97 16
c0.666992 -7.33301 2.5 -17.333 5.5 -30s9 -25.5 18 -38.5s21.667 -24.833 38 -35.5s38.166 -17.667 65.499 -21v233c-38 8 -70.167 18 -96.5 30s-47.833 26 -64.5 42s-28.834 34.333 -36.501 55s-11.5 44.334 -11.5 71.001c0 25.333 4.33301 49.166 13 71.499
s21.667 41.833 39 58.5s39 30.334 65 41.001s56.667 17 92 19v101h68v-102zM166.002 513.002c0 -25.333 8.00098 -46.5 24.001 -63.5s43 -30.167 81 -39.5v202c-21.333 -2 -38.833 -6.5 -52.5 -13.5s-24.334 -15.167 -32.001 -24.5s-13 -19.333 -16 -30s-4.5 -21 -4.5 -31z
M451.003 191.002c0 28.667 -8.66699 50.668 -26 66.001s-46 28 -86 38v-219c34.667 5.33301 62 18.166 82 38.499s30 45.833 30 76.5z" />
    <glyph glyph-name="percent" unicode="%" horiz-adv-x="880" 
d="M178 -13l437 726h96l-438 -726h-95zM370 515c0 -21.333 -2.66699 -42.833 -8 -64.5s-14.5 -41.5 -27.5 -59.5s-30.167 -32.667 -51.5 -44s-47.666 -17 -78.999 -17s-57.5 5.66699 -78.5 17s-38 26 -51 44s-22.167 37.833 -27.5 59.5s-8 43.167 -8 64.5
c0 20.667 2.66699 41.834 8 63.501s14.5 41.5 27.5 59.5s30 32.667 51 44s47.167 17 78.5 17s57.666 -5.66699 78.999 -17s38.5 -26 51.5 -44s22.167 -37.833 27.5 -59.5s8 -42.834 8 -63.501zM127 515c0 -34 6.33301 -61.333 19 -82s32 -31 58 -31
c26.667 0 46.334 10.333 59.001 31s19 48 19 82c0 33.333 -6.33301 60.333 -19 81s-32.334 31 -59.001 31c-26 0 -45.333 -10.333 -58 -31s-19 -47.667 -19 -81zM841 171c0 -20.667 -2.66699 -41.834 -8 -63.501s-14.5 -41.5 -27.5 -59.5s-30.167 -32.667 -51.5 -44
s-47.666 -17 -78.999 -17s-57.5 5.66699 -78.5 17s-38 26 -51 44s-22.333 37.833 -28 59.5s-8.5 42.834 -8.5 63.501s2.83301 42 8.5 64s15 42 28 60s30 32.667 51 44s47.167 17 78.5 17s57.666 -5.66699 78.999 -17s38.5 -26 51.5 -44s22.167 -38 27.5 -60s8 -43.333 8 -64
zM598 171c0 -33.333 6.33301 -60.333 19 -81s32 -31 58 -31c26.667 0 46.334 10.333 59.001 31s19 47.667 19 81c0 34 -6.33301 61.333 -19 82s-32.334 31 -59.001 31c-26 0 -45.333 -10.333 -58 -31s-19 -48 -19 -82z" />
    <glyph glyph-name="ampersand" unicode="&#x26;" horiz-adv-x="652" 
d="M33 196c0 30 4.83398 56.332 14.501 78.999s21.667 42.5 36 59.5s30 31.5 47 43.5s33.167 22.333 48.5 31c-20.667 28 -36 52.833 -46 74.5s-15 44.834 -15 69.501c0 19.333 3.16699 38.666 9.5 57.999s16.5 36.5 30.5 51.5s32 27.167 54 36.5s48.667 14 80 14
c28.667 0 53.834 -4.16699 75.501 -12.5s39.667 -19.666 54 -33.999s25.166 -31 32.499 -50s11 -39.167 11 -60.5c0 -38 -11.333 -70.5 -34 -97.5s-57.667 -53.833 -105 -80.5l142 -169c9.33301 16.667 15.666 34.667 18.999 54s5.66602 40 6.99902 62l87 -39
c-2 -15.333 -4.16699 -29.5 -6.5 -42.5s-5.16602 -25.5 -8.49902 -37.5s-7.66602 -23.833 -12.999 -35.5s-12 -24.167 -20 -37.5l116 -133h-128l-50 57c-21.333 -20 -46.833 -36.667 -76.5 -50s-67.834 -20 -114.501 -20c-80 0 -141.167 18.333 -183.5 55
s-63.5 88 -63.5 154zM219.001 553.999c0 -16.667 4.00098 -33.334 12.001 -50.001s20.667 -35.667 38 -57c12 6 23.667 12.5 35 19.5s21.333 14.833 30 23.5s15.667 18.334 21 29.001s8 22.667 8 36c0 19.333 -6 36.5 -18 51.5s-30 22.5 -54 22.5
c-22.667 0 -40.334 -7 -53.001 -21s-19 -32 -19 -54zM279.002 72.999c32 0 59.5029 5.83105 82.5029 17.498s39.167 24.167 48.5 37.5l-174 208c-10.667 -5.33301 -21.334 -12 -32.001 -20s-20.334 -17.833 -29.001 -29.5s-15.834 -24.667 -21.501 -39
s-8.5 -30.5 -8.5 -48.5c0 -17.333 2.83301 -33.666 8.5 -48.999s14.167 -28.666 25.5 -39.999s25.333 -20.333 42 -27s36 -10 58 -10z" />
    <glyph glyph-name="quotesingle" unicode="'" horiz-adv-x="207" 
d="M73 462l-23 238h107l-22 -238h-62z" />
    <glyph glyph-name="parenleft" unicode="(" horiz-adv-x="363" 
d="M68 307c0 50.667 5.83105 100.5 17.498 149.5s27.834 95 48.501 138s45.334 81.5 74.001 115.5s60 61.333 94 82l61 -45c-65.333 -56.667 -111.666 -122.167 -138.999 -196.5s-41 -155.5 -41 -243.5c0 -43.333 3.33301 -85.333 10 -126s17.167 -79.5 31.5 -116.5
s32.833 -72.167 55.5 -105.5s50.334 -64 83.001 -92l-61 -45c-34 20.667 -65.333 48 -94 82s-53.334 72.5 -74.001 115.5s-36.834 89 -48.501 138s-17.5 98.833 -17.5 149.5z" />
    <glyph glyph-name="parenright" unicode=")" horiz-adv-x="363" 
d="M295 307c0 -50.667 -5.83301 -100.502 -17.5 -149.502s-28 -95 -49 -138s-45.833 -81.5 -74.5 -115.5s-60 -61.333 -94 -82l-60 45c64.667 56.667 110.667 122.334 138 197.001s41 155.667 41 243s-13.667 168.333 -41 243s-73.333 140.334 -138 197.001l60 45
c34 -20.667 65.333 -48 94 -82s53.5 -72.5 74.5 -115.5s37.333 -89 49 -138s17.5 -98.833 17.5 -149.5z" />
    <glyph glyph-name="asterisk" unicode="*" horiz-adv-x="395" 
d="M234 700v-119l110 41l23 -72l-116 -34l75 -94l-62 -46l-67 99l-66 -99l-62 46l75 94l-116 34l23 72l110 -41v119h73z" />
    <glyph glyph-name="plus" unicode="+" 
d="M52 370h202v203h91v-203h203v-91h-203v-208h-91v208h-202v91z" />
    <glyph glyph-name="comma" unicode="," horiz-adv-x="281" 
d="M219 32c0 -13.333 -1.6709 -27.999 -5.00391 -43.999s-9.66602 -31.5 -18.999 -46.5s-22.166 -28.333 -38.499 -40s-37.5 -19.5 -63.5 -23.5l-19 51c7.33301 0 15 1.66699 23 5s15.5 7.66602 22.5 12.999s12.833 11.833 17.5 19.5s7 15.834 7 24.501v6
c-4 -1.33301 -9 -2 -15 -2c-17.333 0 -32.833 6.66699 -46.5 20s-20.5 30 -20.5 50c0 8 1.5 16.333 4.5 25s7.5 16.334 13.5 23.001s13.5 12.167 22.5 16.5s19.833 6.5 32.5 6.5c14.667 0 27.334 -2.83301 38.001 -8.5s19.334 -13.334 26.001 -23.001
s11.667 -20.834 15 -33.501s5 -25.667 5 -39z" />
    <glyph glyph-name="hyphen" unicode="-" horiz-adv-x="379" 
d="M57 331h265v-86h-265v86z" />
    <glyph glyph-name="period" unicode="." horiz-adv-x="274" 
d="M62 64c0 21.333 7 38.666 21 51.999s32 20 54 20s40 -6.66699 54 -20s21 -30.666 21 -51.999s-7 -38.666 -21 -51.999s-32 -20 -54 -20s-40 6.66699 -54 20s-21 30.666 -21 51.999z" />
    <glyph glyph-name="slash" unicode="/" horiz-adv-x="403" 
d="M9 -115l292 869h93l-292 -869h-93z" />
    <glyph glyph-name="zero" unicode="0" 
d="M300 699c46 0 84.833 -9.33301 116.5 -28s57.334 -44.167 77.001 -76.5s34 -70.166 43 -113.499s13.5 -89.333 13.5 -138s-4.5 -94.667 -13.5 -138s-23.333 -81.166 -43 -113.499s-45.334 -57.833 -77.001 -76.5s-70.5 -28 -116.5 -28s-84.833 9.33301 -116.5 28
s-57.334 44.167 -77.001 76.5s-34 70.166 -43 113.499s-13.5 89.333 -13.5 138s4.5 94.667 13.5 138s23.333 81.166 43 113.499s45.334 57.833 77.001 76.5s70.5 28 116.5 28zM300 78c24 0 44.5 7.16699 61.5 21.5s30.833 33.666 41.5 57.999s18.334 52.5 23.001 84.5
s7 65.667 7 101s-2.33301 69 -7 101s-12.334 60.167 -23.001 84.5s-24.5 43.666 -41.5 57.999s-37.5 21.5 -61.5 21.5s-44.5 -7.16699 -61.5 -21.5s-30.833 -33.666 -41.5 -57.999s-18.334 -52.5 -23.001 -84.5s-7 -65.667 -7 -101s2.33301 -69 7 -101
s12.334 -60.167 23.001 -84.5s24.5 -43.666 41.5 -57.999s37.5 -21.5 61.5 -21.5z" />
    <glyph glyph-name="one" unicode="1" 
d="M96 90l165.002 -0.00195312v476c-14.667 -11.333 -33.834 -20.833 -57.501 -28.5s-50.167 -12.167 -79.5 -13.5l-19 89c40 4.66699 74.167 13.334 102.5 26.001s51.166 29.334 68.499 50.001h101v-599h151v-90h-432v90z" />
    <glyph glyph-name="two" unicode="2" 
d="M73 87c32.667 29.333 64.001 57.3291 94.001 83.9961c12.667 11.333 25.667 23.166 39 35.499s26.333 24.333 39 36s24.5 22.834 35.5 33.501s20.5 20 28.5 28c30.667 30.667 55 60.834 73 90.501s27 61.5 27 95.5c0 36 -9.5 64.667 -28.5 86s-44.5 32 -76.5 32
c-20 0 -37.333 -4.33301 -52 -13s-27 -20 -37 -34s-17.667 -29.667 -23 -47s-9 -34.333 -11 -51l-111 19c5.33301 30.667 14.166 59.334 26.499 86.001s28.166 49.667 47.499 69s42.5 34.5 69.5 45.5s58.167 16.5 93.5 16.5c36.667 0 68.667 -6 96 -18s50 -27.667 68 -47
s31.5 -41.333 40.5 -66s13.5 -50 13.5 -76c0 -23.333 -3.33301 -45.666 -10 -66.999s-16 -42.166 -28 -62.499s-26 -40.166 -42 -59.499s-33.333 -38.333 -52 -57c-12 -12 -25.167 -24.833 -39.5 -38.5s-29.166 -27.167 -44.499 -40.5s-30.5 -26.333 -45.5 -39
s-28.833 -24.334 -41.5 -35.001h309v-93h-458v87z" />
    <glyph glyph-name="three" unicode="3" 
d="M76 531c4 18 10.9971 36.8311 20.9971 56.498s23.833 37.834 41.5 54.501s39.5 30.334 65.5 41.001s57 16 93 16c34.667 0 65.834 -5.16699 93.501 -15.5s50.834 -24.166 69.501 -41.499s33 -37.5 43 -60.5s15 -47.5 15 -73.5c0 -38 -9.66699 -70 -29 -96
s-45 -45 -77 -57c18 -4 34.667 -11.167 50 -21.5s28.333 -22.833 39 -37.5s19 -31.167 25 -49.5s9 -37.5 9 -57.5c0 -25.333 -4.83301 -50 -14.5 -74s-24.5 -45.5 -44.5 -64.5s-45 -34.333 -75 -46s-65.333 -17.5 -106 -17.5c-42.667 0 -78.667 6.33301 -108 19
s-53.166 28 -71.499 46s-31.666 37.167 -39.999 57.5s-12.833 38.5 -13.5 54.5l108 30c1.33301 -11.333 4.16602 -23.833 8.49902 -37.5s11.166 -26.334 20.499 -38.001s21.833 -21.5 37.5 -29.5s35.5 -12 59.5 -12c22 0 40.833 3.33301 56.5 10s28.5 15.167 38.5 25.5
s17.167 22.333 21.5 36s6.5 27.5 6.5 41.5c0 34.667 -12.5 62.667 -37.5 84s-60.833 32 -107.5 32c-2.66699 0 -5.83398 -0.166992 -9.50098 -0.5s-7.16699 -0.5 -10.5 -0.5h-14v95c4 -0.666992 7.66699 -1 11 -1h22c43.333 0 76 10.167 98 30.5s33 46.5 33 78.5
c0 16 -2.83301 30.333 -8.5 43s-13.5 23.334 -23.5 32.001s-21.667 15.167 -35 19.5s-27.333 6.5 -42 6.5c-17.333 0 -32.666 -3 -45.999 -9s-24.666 -13.667 -33.999 -23s-16.833 -20.333 -22.5 -33s-9.16699 -25.334 -10.5 -38.001z" />
    <glyph glyph-name="four" unicode="4" 
d="M462 686v-445h108l-16 -88h-92v-153h-109v153h-316v86l279 447h146zM353 241v347h-2l-214 -347h216z" />
    <glyph glyph-name="five" unicode="5" 
d="M171 191c1.33301 -15.333 5.00488 -29.668 11.0049 -43.001s14.167 -25.333 24.5 -36s22.666 -19 36.999 -25s30.833 -9 49.5 -9c39.333 0 70.833 13.333 94.5 40s35.5 61.334 35.5 104.001c0 18 -2.33301 35.5 -7 52.5s-12 32.167 -22 45.5s-22.667 24 -38 32
s-34 12 -56 12c-23.333 0 -45.833 -5.5 -67.5 -16.5s-38.167 -28.833 -49.5 -53.5l-97 17l41 375h375l-16 -93h-276l-22 -190c12 13.333 28.667 25.333 50 36s49 16 83 16c36.667 0 68.667 -6.66699 96 -20s50 -31 68 -53s31.333 -46.833 40 -74.5s13 -55.5 13 -83.5
c0 -32 -5.5 -62.5 -16.5 -91.5s-27.167 -54.167 -48.5 -75.5s-47.333 -38.333 -78 -51s-65.334 -19 -104.001 -19c-37.333 0 -69.833 5.66699 -97.5 17s-50.834 25.666 -69.501 42.999s-32.834 36.333 -42.501 57s-14.834 40.334 -15.501 59.001z" />
    <glyph glyph-name="six" unicode="6" 
d="M321 609c-27.333 0 -50.4961 -6.49902 -69.4961 -19.499s-34.833 -30.833 -47.5 -53.5s-22.334 -48.834 -29.001 -78.501s-11 -60.834 -13 -93.501c12 22.667 31.5 42.667 58.5 60s62.5 26 106.5 26c37.333 0 70.166 -6.66699 98.499 -20s51.833 -30.666 70.5 -51.999
s32.667 -45.833 42 -73.5s14 -55.834 14 -84.501c0 -31.333 -5.16699 -61 -15.5 -89s-25.5 -52.667 -45.5 -74s-45 -38.333 -75 -51s-64.333 -19 -103 -19c-83.333 0 -146.5 28 -189.5 84s-64.5 142.333 -64.5 259c0 120 22.5 211.5 67.5 274.5s109.833 94.5 194.5 94.5
c33.333 0 62.333 -4.5 87 -13.5s45.667 -21 63 -36s31.166 -32.167 41.499 -51.5s17.833 -39.333 22.5 -60l-108 -16c-2.66699 8.66699 -6.33398 18.167 -11.001 28.5s-11 19.833 -19 28.5s-18.167 15.834 -30.5 21.501s-27.5 8.5 -45.5 8.5zM311.004 362.001
c-40 0 -71.5 -13.168 -94.5 -39.501s-34.5 -59.5 -34.5 -99.5c0 -43.333 11.5 -78.666 34.5 -105.999s54.5 -41 94.5 -41c36.667 0 67 12.667 91 38s36 60.333 36 105c0 41.333 -11.167 75.5 -33.5 102.5s-53.5 40.5 -93.5 40.5z" />
    <glyph glyph-name="seven" unicode="7" 
d="M82 686l455 -0.000976562v-79c-22 -26 -46.833 -59.167 -74.5 -99.5s-54 -86.5 -79 -138.5s-46.167 -109 -63.5 -171s-26 -128 -26 -198h-115c0 66.667 8.16699 130.334 24.5 191.001s36.5 116.667 60.5 168s49.5 96.833 76.5 136.5s51.167 72.167 72.5 97.5h-348z" />
    <glyph glyph-name="eight" unicode="8" 
d="M300 -13c-41.333 0 -77.502 5.66699 -108.502 17s-56.833 26.333 -77.5 45s-36 39.834 -46 63.501s-15 47.834 -15 72.501c0 22 3.33301 42.5 10 61.5s16 36 28 51s25.833 27.667 41.5 38s32.5 17.5 50.5 21.5c-30 12 -55.667 31.167 -77 57.5s-32 58.5 -32 96.5
c0 24 4.83301 47.167 14.5 69.5s24 42.333 43 60s42.5 31.834 70.5 42.501s60.667 16 98 16c36.667 0 69.167 -5.33301 97.5 -16s52 -24.834 71 -42.501s33.333 -37.667 43 -60s14.5 -45.5 14.5 -69.5c0 -38 -10.667 -70.167 -32 -96.5s-47 -45.5 -77 -57.5
c18 -4 34.833 -11.167 50.5 -21.5s29.334 -23 41.001 -38s21 -32 28 -51s10.5 -39.5 10.5 -61.5c0 -24.667 -5.16699 -48.834 -15.5 -72.501s-25.666 -44.834 -45.999 -63.501s-46 -33.667 -77 -45s-67.167 -17 -108.5 -17zM414.998 506c0 33.333 -10.833 59 -32.5 77
s-49.167 27 -82.5 27s-60.833 -9 -82.5 -27s-32.5 -43.667 -32.5 -77c0 -32 10.5 -57.833 31.5 -77.5s48.833 -29.5 83.5 -29.5s62.5 9.83301 83.5 29.5s31.5 45.5 31.5 77.5zM299.998 77c24 0 44.335 3.33105 61.002 9.99805s30.167 15.334 40.5 26.001
s18 22.834 23 36.501s7.5 27.834 7.5 42.501c0 33.333 -11.333 61 -34 83s-55.334 33 -98.001 33s-75.334 -11 -98.001 -33s-34 -49.667 -34 -83c0 -14 2.5 -28 7.5 -42s12.667 -26.333 23 -37s23.833 -19.334 40.5 -26.001s37 -10 61 -10z" />
    <glyph glyph-name="nine" unicode="9" 
d="M279 77c27.333 0 50.667 6.50195 70 19.502s35.333 30.833 48 53.5s22.334 48.667 29.001 78s10.667 60.666 12 93.999c-12 -22.667 -31.5 -42.667 -58.5 -60s-62.5 -26 -106.5 -26c-37.333 0 -70 6.66699 -98 20s-51.333 30.666 -70 51.999s-32.667 45.833 -42 73.5
s-14 55.834 -14 84.501c0 31.333 5.16699 61 15.5 89s25.5 52.667 45.5 74s44.833 38.333 74.5 51s63.834 19 102.501 19c83.333 0 146.666 -28 189.999 -84s65 -142.333 65 -259c0 -120 -22.667 -211.5 -68 -274.5s-110.333 -94.5 -195 -94.5
c-33.333 0 -62.333 4.5 -87 13.5s-45.5 21 -62.5 36s-30.833 32.167 -41.5 51.5s-18.334 39.333 -23.001 60l109 16c2.66699 -8.66699 6.16699 -18.167 10.5 -28.5s10.5 -19.833 18.5 -28.5s18.167 -15.834 30.5 -21.501s27.5 -8.5 45.5 -8.5zM289.001 324.002
c40.667 0 72.5 13.168 95.5 39.501s34.5 59.5 34.5 99.5c0 43.333 -11.667 78.666 -35 105.999s-55 41 -95 41c-36 0 -66.167 -12.667 -90.5 -38s-36.5 -60.333 -36.5 -105c0 -41.333 11.333 -75.5 34 -102.5s53.667 -40.5 93 -40.5z" />
    <glyph glyph-name="colon" unicode=":" horiz-adv-x="274" 
d="M62 410c0 21.333 7 38.666 21 51.999s32 20 54 20s40 -6.66699 54 -20s21 -30.666 21 -51.999s-7 -38.666 -21 -51.999s-32 -20 -54 -20s-40 6.66699 -54 20s-21 30.666 -21 51.999zM62 64c0 21.333 7 38.666 21 51.999s32 20 54 20s40 -6.66699 54 -20
s21 -30.666 21 -51.999s-7 -38.666 -21 -51.999s-32 -20 -54 -20s-40 6.66699 -54 20s-21 30.666 -21 51.999z" />
    <glyph glyph-name="semicolon" unicode=";" horiz-adv-x="281" 
d="M64 410c0 21.333 7 38.666 21 51.999s32 20 54 20s40 -6.66699 54 -20s21 -30.666 21 -51.999s-7 -38.666 -21 -51.999s-32 -20 -54 -20s-40 6.66699 -54 20s-21 30.666 -21 51.999zM219 32c0 -13.333 -1.6709 -27.999 -5.00391 -43.999s-9.66602 -31.5 -18.999 -46.5
s-22.166 -28.333 -38.499 -40s-37.5 -19.5 -63.5 -23.5l-19 51c7.33301 0 15 1.66699 23 5s15.5 7.66602 22.5 12.999s12.833 11.833 17.5 19.5s7 15.834 7 24.501v6c-4 -1.33301 -9 -2 -15 -2c-17.333 0 -32.833 6.66699 -46.5 20s-20.5 30 -20.5 50c0 8 1.5 16.333 4.5 25
s7.5 16.334 13.5 23.001s13.5 12.167 22.5 16.5s19.833 6.5 32.5 6.5c14.667 0 27.334 -2.83301 38.001 -8.5s19.334 -13.334 26.001 -23.001s11.667 -20.834 15 -33.501s5 -25.667 5 -39z" />
    <glyph glyph-name="less" unicode="&#x3c;" 
d="M50 277v95l494 224v-107l-379 -164l379 -164v-107z" />
    <glyph glyph-name="equal" unicode="=" 
d="M52 463h496v-91h-496v91zM52 274h496v-91h-496v91z" />
    <glyph glyph-name="greater" unicode="&#x3e;" 
d="M550 373v-96l-494 -223v106l379 164l-379 165v107z" />
    <glyph glyph-name="question" unicode="?" horiz-adv-x="527" 
d="M207 205l0.00390625 34.999c0 18 2.83301 34.833 8.5 50.5s13.167 30.167 22.5 43.5s20.166 26 32.499 38s25.166 23.333 38.499 34c8 6.66699 16.167 13.667 24.5 21s15.833 15.333 22.5 24s12 18.334 16 29.001s6 23 6 37c0 30 -9.66699 55 -29 75s-46 30 -80 30
c-21.333 0 -39.5 -4.33301 -54.5 -13s-27.667 -19.834 -38 -33.501s-18.333 -29.167 -24 -46.5s-9.5 -35 -11.5 -53l-114 19c5.33301 30.667 14 59.334 26 86.001s27.833 49.667 47.5 69s43.5 34.666 71.5 45.999s60.333 17 97 17c38.667 0 72 -5.83301 100 -17.5
s51.333 -27 70 -46s32.5 -40.5 41.5 -64.5s13.5 -48 13.5 -72c0 -18.667 -2.33301 -35.5 -7 -50.5s-10.834 -28.667 -18.501 -41s-16.334 -23.666 -26.001 -33.999s-19.167 -19.833 -28.5 -28.5c-12 -11.333 -23.5 -22 -34.5 -32s-20.833 -20 -29.5 -30
s-15.667 -20.167 -21 -30.5s-8 -21.5 -8 -33.5v-28h-114zM195.004 61.999c0 20.667 6.33301 37.334 19 50.001s29.667 19 51 19s38.5 -6.33301 51.5 -19s19.5 -29.334 19.5 -50.001c0 -20 -6.5 -36.667 -19.5 -50s-30.167 -20 -51.5 -20s-38.333 6.66699 -51 20
s-19 30 -19 50z" />
    <glyph glyph-name="at" unicode="@" horiz-adv-x="964" 
d="M609 471h86.9971l-53 -268c-0.666992 -3.33301 -1.16699 -6.83301 -1.5 -10.5s-0.5 -7.16699 -0.5 -10.5c0 -14.667 4 -26.334 12 -35.001s20 -13 36 -13c16.667 0 33.334 4.83301 50.001 14.5s31.334 23.5 44.001 41.5s23 40.167 31 66.5s12 56.166 12 89.499
c0 44.667 -7.33301 84.667 -22 120s-35.167 65.333 -61.5 90s-58.166 43.667 -95.499 57s-78.666 20 -123.999 20c-53.333 0 -103 -9.16699 -149 -27.5s-86 -44.5 -120 -78.5s-60.667 -75.167 -80 -123.5s-29 -102.166 -29 -161.499
c0 -55.333 8.83301 -104.166 26.5 -146.499s42 -77.833 73 -106.5s67.5 -50.334 109.5 -65.001s87 -22 135 -22c61.333 0 114.5 9.16699 159.5 27.5s84.5 40.166 118.5 65.499l51 -74c-16.667 -12.667 -35.834 -25 -57.501 -37s-46.167 -22.833 -73.5 -32.5
s-57.666 -17.5 -90.999 -23.5s-70 -9 -110 -9c-68.667 0 -130.167 10.167 -184.5 30.5s-100.5 49 -138.5 86s-67.167 81.333 -87.5 133s-30.5 109.167 -30.5 172.5c0 73.333 12.667 139.166 38 197.499s59.833 108 103.5 149s94.167 72.5 151.5 94.5s118 33 182 33
c55.333 0 107.5 -8 156.5 -24s91.667 -39.5 128 -70.5s65.166 -69 86.499 -114s32 -96.167 32 -153.5c0 -40.667 -5.83301 -79.167 -17.5 -115.5s-28.167 -68.166 -49.5 -95.499s-46.833 -49 -76.5 -65s-62.5 -24 -98.5 -24c-18 0 -33.667 2.16699 -47 6.5
s-24.5 10 -33.5 17s-16 15 -21 24s-8.83301 18.5 -11.5 28.5c-16 -27.333 -36.833 -46.833 -62.5 -58.5s-50.167 -17.5 -73.5 -17.5c-45.333 0 -82.5 16.167 -111.5 48.5s-43.5 77.5 -43.5 135.5c0 34.667 5.5 66.834 16.5 96.501s25.667 55.334 44 77.001s40 38.667 65 51
s51.5 18.5 79.5 18.5c26.667 0 50.5 -5.66699 71.5 -17s36.167 -27.333 45.5 -48zM568.997 278c4 20 4.66797 37.499 2.00098 52.499s-7.83398 27.667 -15.501 38s-17 18 -28 23s-22.5 7.5 -34.5 7.5c-16.667 0 -32.167 -4.33301 -46.5 -13s-26.833 -20.334 -37.5 -35.001
s-19.167 -31.667 -25.5 -51s-9.5 -39.666 -9.5 -60.999c0 -31.333 6.5 -56.5 19.5 -75.5s31.167 -28.5 54.5 -28.5c28 0 52.167 9.33301 72.5 28s34.5 46.334 42.5 83.001z" />
    <glyph glyph-name="A" unicode="A" horiz-adv-x="661" 
d="M644 0h-123l-62 176h-264l-62 -176h-116l254 700h120zM325 562c-2 -6.66699 -4.83398 -15.834 -8.50098 -27.501s-8 -25 -13 -40l-16 -48c-5.66699 -17 -11.5 -33.833 -17.5 -50.5c-13.333 -39.333 -27.666 -81.666 -42.999 -126.999h200
c-16 45.333 -30.667 87.666 -44 126.999c-6 16.667 -11.833 33.5 -17.5 50.5l-16 48c-5 15 -9.5 28.333 -13.5 40s-7 20.834 -9 27.501h-2z" />
    <glyph glyph-name="B" unicode="B" horiz-adv-x="640" 
d="M81 700l274 -0.000976562c68 0 119.833 -16.167 155.5 -48.5s53.5 -75.5 53.5 -129.5c0 -23.333 -3.33301 -43.666 -10 -60.999s-15.167 -32.333 -25.5 -45s-22 -23.167 -35 -31.5s-25.833 -14.833 -38.5 -19.5c16.667 -2.66699 33.334 -7.5 50.001 -14.5
s31.5 -17 44.5 -30s23.667 -29.167 32 -48.5s12.5 -42 12.5 -68c0 -30 -5.66699 -57.5 -17 -82.5s-27 -46.5 -47 -64.5s-43.833 -32 -71.5 -42s-57.834 -15 -90.501 -15h-287v700zM197 604.999l-0.000976562 -200.001h118c42.667 0 74.834 8.33301 96.501 25
s32.5 43.334 32.5 80.001c0 33.333 -9.5 57.5 -28.5 72.5s-49.5 22.5 -91.5 22.5h-127zM196.999 94.998l129.999 -0.000976562c28.667 0 52.334 2.66699 71.001 8s33.667 12.833 45 22.5s19.333 21.167 24 34.5s7 28 7 44c0 40.667 -13.333 68.834 -40 84.501
s-63 23.5 -109 23.5h-128v-217z" />
    <glyph glyph-name="C" unicode="C" horiz-adv-x="688" 
d="M48 350c0 55.333 7.49805 105.331 22.498 149.998s36.667 82.834 65 114.501s62.833 56 103.5 73s86.334 25.5 137.001 25.5c72 0 131.167 -16.333 177.5 -49s80.833 -79.334 103.5 -140.001l-113 -40c-13.333 39.333 -33.666 71 -60.999 95s-64 36 -110 36
c-32.667 0 -61.667 -6.33301 -87 -19s-46.5 -30.667 -63.5 -54s-30 -51.333 -39 -84s-13.5 -68.667 -13.5 -108s4.33301 -75.166 13 -107.499s21.667 -60.166 39 -83.499s38.5 -41.5 63.5 -54.5s54.167 -19.5 87.5 -19.5c44 0 79.667 11.333 107 34s48.333 54 63 94l112 -41
c-23.333 -57.333 -58 -102.5 -104 -135.5s-105 -49.5 -177 -49.5c-50.667 0 -96.167 8.5 -136.5 25.5s-74.5 41.167 -102.5 72.5s-49.5 69.5 -64.5 114.5s-22.5 95.167 -22.5 150.5z" />
    <glyph glyph-name="D" unicode="D" horiz-adv-x="707" 
d="M81 700l248 -0.00195312c51.333 0 97.333 -7.83301 138 -23.5s75.334 -38.5 104.001 -68.5s50.5 -66.667 65.5 -110s22.5 -92.666 22.5 -147.999s-7.5 -104.666 -22.5 -147.999s-36.833 -80 -65.5 -110s-63.334 -52.833 -104.001 -68.5s-86.667 -23.5 -138 -23.5h-248
v700zM537 349.998c0 38 -4.16699 72.5 -12.5 103.5s-21.333 57.667 -39 80s-40.167 39.5 -67.5 51.5s-60 18 -98 18h-120v-506h120c38 0 70.667 6 98 18s49.833 29.167 67.5 51.5s30.667 49 39 80s12.5 65.5 12.5 103.5z" />
    <glyph glyph-name="E" unicode="E" horiz-adv-x="575" 
d="M81 0v700h443v-97h-326v-194h304v-97h-304v-215h332v-97h-449z" />
    <glyph glyph-name="F" unicode="F" horiz-adv-x="561" 
d="M81 0v700h445v-97h-328v-194h304v-97h-304v-312h-117z" />
    <glyph glyph-name="G" unicode="G" horiz-adv-x="733" 
d="M354 366h304.002v-366h-107v73c-7.33301 -10.667 -16.5 -21.167 -27.5 -31.5s-24.333 -19.5 -40 -27.5s-33.5 -14.5 -53.5 -19.5s-43 -7.5 -69 -7.5c-51.333 0 -96.333 9.33301 -135 28s-71.334 44.334 -98.001 77.001s-46.667 71 -60 115s-20 91.333 -20 142
c0 53.333 7.66699 102.333 23 147s37.333 83 66 115s63.667 57 105 75s88 27 140 27c66.667 0 123.667 -15.667 171 -47s83.666 -76.333 108.999 -135l-109 -43c-15.333 39.333 -37.5 70.5 -66.5 93.5s-65.833 34.5 -110.5 34.5c-30.667 0 -58.667 -5.83301 -84 -17.5
s-47 -29 -65 -52s-32 -51.5 -42 -85.5s-15 -73 -15 -117c0 -85.333 17.5 -150 52.5 -194s85.833 -66 152.5 -66c22 0 43.167 3 63.5 9s38.5 15 54.5 27s28.667 27.167 38 45.5s14 40.166 14 65.499v42h-191v93z" />
    <glyph glyph-name="H" unicode="H" horiz-adv-x="701" 
d="M81 700h118v-290h303v290h118v-700h-118v312h-303v-312h-118v700z" />
    <glyph glyph-name="I" unicode="I" horiz-adv-x="280" 
d="M81 700h118v-700h-118v700z" />
    <glyph glyph-name="J" unicode="J" horiz-adv-x="465" 
d="M183 84c32.667 0 55.335 12 68.002 36s19 61 19 111v469h119v-469c0 -35.333 -2.83301 -67.833 -8.5 -97.5s-16 -55.334 -31 -77.001s-35.5 -38.667 -61.5 -51s-59.667 -18.5 -101 -18.5c-47.333 0 -84.833 7.5 -112.5 22.5s-50.834 34.167 -69.501 57.5l78 77
c16.667 -19.333 32.167 -34.166 46.5 -44.499s32.166 -15.5 53.499 -15.5z" />
    <glyph glyph-name="K" unicode="K" horiz-adv-x="644" 
d="M267 334l-68 -74v-260h-118v700h118v-295l270 295h138l-258 -282l283 -418h-142z" />
    <glyph glyph-name="L" unicode="L" horiz-adv-x="527" 
d="M81 700h118v-603h308v-97h-426v700z" />
    <glyph glyph-name="M" unicode="M" horiz-adv-x="877" 
d="M385 0c-11.333 30 -25.8271 68.668 -43.4941 116.001s-35.834 97 -54.501 149s-36.667 102.667 -54 152s-31 91 -41 125h-3v-542h-108v700h162c32.667 -91.333 62.667 -175 90 -251c11.333 -32.667 22.833 -65.167 34.5 -97.5s22.5 -62.5 32.5 -90.5
s18.667 -52.5 26 -73.5s12.666 -36.167 15.999 -45.5c2.66699 9.33301 7.66699 24.5 15 45.5s15.666 45.5 24.999 73.5s19.666 58.167 30.999 90.5s22.666 64.833 33.999 97.5c26.667 76 56 159.667 88 251h161v-700h-109v542h-2c-7.33301 -22.667 -16.5 -49.667 -27.5 -81
s-22.667 -64.5 -35 -99.5s-25 -70.5 -38 -106.5s-25.333 -70.333 -37 -103s-22.334 -62.334 -32.001 -89.001s-17.5 -47.667 -23.5 -63h-107z" />
    <glyph glyph-name="N" unicode="N" horiz-adv-x="726" 
d="M81 700h124c48 -76 93.333 -147.333 136 -214c18 -28.667 36.333 -57.667 55 -87s36.5 -57.5 53.5 -84.5s32.5 -51.833 46.5 -74.5s25.667 -41 35 -55h3v515h111v-700h-124c-47.333 74.667 -92 145 -134 211c-18 28 -36.333 56.833 -55 86.5s-36.5 58 -53.5 85
s-32.667 52 -47 75s-26.5 42.167 -36.5 57.5h-3v-515h-111v700z" />
    <glyph glyph-name="O" unicode="O" horiz-adv-x="749" 
d="M48 350c0 56 7.83301 106.5 23.5 151.5s37.834 83.167 66.501 114.5s63 55.333 103 72s84.333 25 133 25s93.167 -8.33301 133.5 -25s74.833 -40.667 103.5 -72s50.834 -69.5 66.501 -114.5s23.5 -95.5 23.5 -151.5s-7.83301 -106.5 -23.5 -151.5
s-37.834 -83.167 -66.501 -114.5s-63.167 -55.333 -103.5 -72s-84.833 -25 -133.5 -25s-93 8.33301 -133 25s-74.333 40.667 -103 72s-50.834 69.5 -66.501 114.5s-23.5 95.5 -23.5 151.5zM170 350c0 -38 4.16699 -73.333 12.5 -106s21 -60.834 38 -84.501
s38.333 -42.167 64 -55.5s55.5 -20 89.5 -20c34.667 0 64.834 6.66699 90.501 20s47 31.833 64 55.5s29.667 51.834 38 84.501s12.5 68 12.5 106s-4.16699 73.333 -12.5 106s-21 60.834 -38 84.501s-38.333 42.167 -64 55.5s-55.834 20 -90.501 20
c-34 0 -63.833 -6.66699 -89.5 -20s-47 -31.833 -64 -55.5s-29.667 -51.834 -38 -84.501s-12.5 -68 -12.5 -106z" />
    <glyph glyph-name="P" unicode="P" horiz-adv-x="622" 
d="M199 266l-0.000976562 -266h-118v700h254c38.667 0 73.834 -4 105.501 -12s58.834 -20.667 81.501 -38s40 -39.5 52 -66.5s18 -59.5 18 -97.5s-6.33301 -70.833 -19 -98.5s-30.334 -50.5 -53.001 -68.5s-49.667 -31.333 -81 -40s-66 -13 -104 -13h-136zM471.999 486
c0 44 -12.667 74.5 -38 91.5s-64.333 25.5 -117 25.5h-118v-241h118c52 0 90.833 9.83301 116.5 29.5s38.5 51.167 38.5 94.5z" />
    <glyph glyph-name="Q" unicode="Q" horiz-adv-x="749" 
d="M48 350c0 56 7.83105 106.501 23.498 151.501s37.834 83.167 66.501 114.5s63 55.333 103 72s84.333 25 133 25s93.167 -8.33301 133.5 -25s74.833 -40.667 103.5 -72s50.834 -69.5 66.501 -114.5s23.5 -95.5 23.5 -151.5c0 -62.667 -9.66699 -117.834 -29 -165.501
s-46 -87.5 -80 -119.5l70 -75l-68 -59l-78 84c-43.333 -18.667 -90.666 -28 -141.999 -28c-48.667 0 -93 8.33301 -133 25s-74.333 40.667 -103 72s-50.834 69.5 -66.501 114.5s-23.5 95.5 -23.5 151.5zM169.998 350.001c0 -38 4.16699 -73.332 12.5 -105.999
s21 -60.834 38 -84.501s38.333 -42.167 64 -55.5s55.5 -20 89.5 -20c24.667 0 47.334 3.66699 68.001 11l-68 74l66 60l77 -83c20.667 24 36.167 53.5 46.5 88.5s15.5 73.5 15.5 115.5c0 38 -4.16699 73.333 -12.5 106s-21 60.834 -38 84.501s-38.333 42.167 -64 55.5
s-55.834 20 -90.501 20c-34 0 -63.833 -6.66699 -89.5 -20s-47 -31.833 -64 -55.5s-29.667 -51.834 -38 -84.501s-12.5 -68 -12.5 -106z" />
    <glyph glyph-name="R" unicode="R" horiz-adv-x="645" 
d="M582 500c0 -52 -13.335 -94.833 -40.002 -128.5s-62.334 -57.167 -107.001 -70.5l175 -301h-135l-162 287h-115v-287h-117v700h251c30.667 0 60.834 -3.16699 90.501 -9.5s56.334 -17.166 80.001 -32.499s42.834 -35.833 57.501 -61.5s22 -57.834 22 -96.501z
M461.998 497c0 38 -12.666 65.167 -37.999 81.5s-62.333 24.5 -111 24.5h-115v-221h123c49.333 0 85.166 10.167 107.499 30.5s33.5 48.5 33.5 84.5z" />
    <glyph glyph-name="S" unicode="S" horiz-adv-x="638" 
d="M183 519c0 -16.667 2.83594 -30.6689 8.50293 -42.002s15 -21.166 28 -29.499s30 -15.5 51 -21.5s46.5 -11.333 76.5 -16c40 -6.66699 75.333 -15.334 106 -26.001s56.334 -24.167 77.001 -40.5s36.167 -36 46.5 -59s15.5 -50.5 15.5 -82.5s-6.5 -61.333 -19.5 -88
s-31.167 -49.334 -54.5 -68.001s-51.5 -33.167 -84.5 -43.5s-69.833 -15.5 -110.5 -15.5c-43.333 0 -81.833 5.66699 -115.5 17s-62.334 26.5 -86.001 45.5s-41.834 41.333 -54.501 67s-19.667 52.834 -21 81.501l117 18c1.33301 -17.333 5.33301 -34.166 12 -50.499
s16.5 -30.666 29.5 -42.999s29.167 -22.166 48.5 -29.499s42.666 -11 69.999 -11c44.667 0 80.334 9.5 107.001 28.5s40 47.167 40 84.5c0 16 -2.83301 30 -8.5 42s-14.834 22.5 -27.501 31.5s-29.334 16.667 -50.001 23s-46 11.833 -76 16.5
c-37.333 5.33301 -71.166 12.833 -101.499 22.5s-56.166 22.334 -77.499 38.001s-37.833 35 -49.5 58s-17.5 50.5 -17.5 82.5c0 32.667 6.16699 61.667 18.5 87s29.833 46.666 52.5 63.999s49.5 30.5 80.5 39.5s65.167 13.5 102.5 13.5
c71.333 0 130.166 -16.5 176.499 -49.5s75.166 -79.167 86.499 -138.5l-119 -27c-5.33301 37.333 -20 66.666 -44 87.999s-58.333 32 -103 32c-44 0 -76.667 -9 -98 -27s-32 -42 -32 -72z" />
    <glyph glyph-name="T" unicode="T" horiz-adv-x="570" 
d="M21 700h528v-97h-205v-603h-118v603h-205v97z" />
    <glyph glyph-name="U" unicode="U" horiz-adv-x="688" 
d="M344 -13c-92 0 -159.5 23 -202.5 69s-64.5 111.667 -64.5 197v447h118v-448c0 -22.667 2.66699 -44.167 8 -64.5s13.833 -38.166 25.5 -53.499s27 -27.5 46 -36.5s42.167 -13.5 69.5 -13.5s50.5 4.5 69.5 13.5s34.333 21.167 46 36.5s20.167 33.166 25.5 53.499
s8 41.833 8 64.5v448h118v-447c0 -85.333 -21.5 -151 -64.5 -197s-110.5 -69 -202.5 -69z" />
    <glyph glyph-name="V" unicode="V" horiz-adv-x="661" 
d="M142 700c26.667 -74.667 51.999 -146.667 75.999 -216c10 -29.333 20.5 -59.666 31.5 -90.999s21.5 -61.833 31.5 -91.5s19.333 -57.834 28 -84.501s16.334 -50.334 23.001 -71.001h2c6 20.667 13.5 44.334 22.5 71.001s18.667 54.834 29 84.501s21 60.167 32 91.5
s21.5 61.666 31.5 90.999c24 69.333 49.333 141.333 76 216h121l-259 -700h-116l-255 700h126z" />
    <glyph glyph-name="W" unicode="W" horiz-adv-x="926" 
d="M911 700l-185.999 -700h-130c-18.667 74 -36.334 144 -53.001 210c-7.33301 28 -14.5 56.833 -21.5 86.5s-13.833 58.167 -20.5 85.5s-12.834 52.833 -18.501 76.5s-10.5 43.834 -14.5 60.501h-3c-4 -16.667 -8.83301 -36.834 -14.5 -60.501s-12 -49.167 -19 -76.5
s-14.333 -55.833 -22 -85.5s-15.167 -58.5 -22.5 -86.5c-17.333 -66 -35.666 -136 -54.999 -210h-130l-185 700h120c20.667 -80 39.667 -155.667 57 -227c7.33301 -30.667 14.833 -61.834 22.5 -93.501s15 -62 22 -91s13.333 -56 19 -81s10.167 -45.833 13.5 -62.5h2
c3.33301 16.667 8 37.5 14 62.5s12.667 52 20 81s15 59.333 23 91s16 62.834 24 93.501c18 71.333 37.667 147 59 227h111c21.333 -81.333 41 -158 59 -230c8 -30.667 15.833 -62 23.5 -94s15 -62.5 22 -91.5s13.333 -55.5 19 -79.5s10.167 -44 13.5 -60h3
c3.33301 16 7.83301 36 13.5 60s12 50.5 19 79.5s14.5 59.5 22.5 91.5s16 63.333 24 94c18 72 37.667 148.667 59 230h110z" />
    <glyph glyph-name="X" unicode="X" horiz-adv-x="683" 
d="M408 368l259 -368h-141l-189 270l-188 -270h-133l256 363l-235 337h142l165 -240l166 240h133z" />
    <glyph glyph-name="Y" unicode="Y" horiz-adv-x="658" 
d="M269 300l-259 400h136l186 -292l186 292h130l-260 -400v-300h-119v300z" />
    <glyph glyph-name="Z" unicode="Z" horiz-adv-x="620" 
d="M52 700h528v-87l-392 -516h389v-97h-536v85l393 518h-382v97z" />
    <glyph glyph-name="bracketleft" unicode="[" horiz-adv-x="324" 
d="M80 762h214v-80h-111v-749h111v-80h-214v909z" />
    <glyph glyph-name="backslash" unicode="\" horiz-adv-x="403" 
d="M302 -115l-293 869h94l291 -869h-92z" />
    <glyph glyph-name="bracketright" unicode="]" horiz-adv-x="324" 
d="M30 -147v80h111v749h-111v80h214v-909h-214z" />
    <glyph glyph-name="asciicircum" unicode="^" horiz-adv-x="549" 
d="M504 353h-112l-119 241l-122 -241h-106l182 347h96z" />
    <glyph glyph-name="underscore" unicode="_" horiz-adv-x="484" 
d="M9 -56h466v-75h-466v75z" />
    <glyph glyph-name="grave" unicode="`" 
d="M183 641l50 82l189 -131l-37 -60z" />
    <glyph glyph-name="a" unicode="a" horiz-adv-x="518" 
d="M356 0c-2.66699 4.66699 -5.00098 12.667 -7.00098 24s-3 23.666 -3 36.999c-15.333 -22 -34.833 -39.833 -58.5 -53.5s-54.5 -20.5 -92.5 -20.5c-48 0 -86.5 12 -115.5 36s-43.5 57 -43.5 99c0 32 8.5 58.5 25.5 79.5s39.667 37.833 68 50.5s61 21.667 98 27
s75.833 8 116.5 8v30c0 25.333 -7 45.833 -21 61.5s-36 23.5 -66 23.5s-52.333 -7.33301 -67 -22s-22.334 -32 -23.001 -52l-110 16c2.66699 23.333 9.83398 43.833 21.501 61.5s26.667 32.5 45 44.5s39.333 21.167 63 27.5s48.5 9.5 74.5 9.5
c28.667 0 54.834 -3.66699 78.501 -11s44 -18.166 61 -32.499s30.333 -32.166 40 -53.499s14.5 -46.333 14.5 -75v-250c0 -14.667 1 -26.834 3 -36.501s4.66699 -19.167 8 -28.5h-110zM225.999 71c14.667 0 29.166 2.33203 43.499 6.99902s27 11.5 38 20.5
s19.833 19.833 26.5 32.5s10 27.334 10 44.001v39c-58.667 0 -106 -6.33301 -142 -19s-54 -34.667 -54 -66c0 -19.333 7.33301 -33.833 22 -43.5s33.334 -14.5 56.001 -14.5z" />
    <glyph glyph-name="b" unicode="b" horiz-adv-x="588" 
d="M335 487c30.667 0 59.002 -5.82715 85.002 -17.4941s48.5 -28.334 67.5 -50.001s34 -47.834 45 -78.501s16.5 -65.334 16.5 -104.001s-5.5 -73.334 -16.5 -104.001s-26 -56.834 -45 -78.501s-41.5 -38.334 -67.5 -50.001s-54.333 -17.5 -85 -17.5
c-40.667 0 -73.334 8.5 -98.001 25.5s-43.334 36.167 -56.001 57.5v-70h-109v700h114v-287c14 20 33.333 37.333 58 52s55 22 91 22zM185.002 214.006c0 -24.667 4 -45.666 12 -62.999s18 -31.5 30 -42.5s25.5 -19 40.5 -24s29.5 -7.5 43.5 -7.5c18.667 0 35.5 4 50.5 12
s27.833 19.167 38.5 33.5s18.834 31.166 24.501 50.499s8.5 40.666 8.5 63.999c0 22.667 -2.83301 43.834 -8.5 63.501s-13.834 36.667 -24.501 51s-23.5 25.5 -38.5 33.5s-31.833 12 -50.5 12c-14 0 -28.5 -2.5 -43.5 -7.5s-28.5 -13 -40.5 -24s-22 -25.167 -30 -42.5
s-12 -38.333 -12 -63v-46z" />
    <glyph glyph-name="c" unicode="c" horiz-adv-x="503" 
d="M39 237c0 37.333 5.5 71.334 16.5 102.001s26.667 57 47 79s45 39 74 51s61.833 18 98.5 18c27.333 0 51.5 -3.33301 72.5 -10s39.5 -15.834 55.5 -27.501s29.5 -25.5 40.5 -41.5s20.5 -33.333 28.5 -52l-103 -39c-6.66699 25.333 -18.167 45.166 -34.5 59.499
s-37.833 21.5 -64.5 21.5c-20 0 -37.167 -4.5 -51.5 -13.5s-26.166 -20.833 -35.499 -35.5s-16.166 -31.834 -20.499 -51.501s-6.5 -39.834 -6.5 -60.501s2.16699 -40.5 6.5 -59.5s11.166 -36 20.499 -51s21.166 -27 35.499 -36s31.833 -13.5 52.5 -13.5
c28 0 49.167 7.33301 63.5 22s25.833 32.667 34.5 54l105 -40c-9.33301 -17.333 -20.166 -33.666 -32.499 -48.999s-26.5 -28.666 -42.5 -39.999s-34.333 -20.333 -55 -27s-44.334 -10 -71.001 -10c-36 0 -68.333 6 -97 18s-53.167 28.833 -73.5 50.5s-36 47.834 -47 78.501
s-16.5 65 -16.5 103z" />
    <glyph glyph-name="d" unicode="d" horiz-adv-x="588" 
d="M256 487c35.333 0 65.167 -7.17188 89.5 -21.5049s43.5 -31.5 57.5 -51.5v286h113v-700h-108v70c-6.66699 -10.667 -14.667 -21 -24 -31s-20.333 -18.833 -33 -26.5s-27.167 -13.834 -43.5 -18.501s-34.833 -7 -55.5 -7c-30 0 -58 5.83301 -84 17.5
s-48.5 28.334 -67.5 50.001s-34 47.834 -45 78.501s-16.5 65.334 -16.5 104.001s5.5 73.334 16.5 104.001s26.333 56.834 46 78.501s42.667 38.334 69 50.001s54.833 17.5 85.5 17.5zM403.001 261.995c0 24.667 -4.00098 45.6641 -12.001 62.9971s-18 31.333 -30 42
s-25.333 18.334 -40 23.001s-28.667 7 -42 7c-19.333 0 -36.5 -4 -51.5 -12s-27.833 -19.167 -38.5 -33.5s-18.834 -31.333 -24.501 -51s-8.5 -40.834 -8.5 -63.501c0 -23.333 2.83301 -44.666 8.5 -63.999s13.667 -36.166 24 -50.499s22.833 -25.5 37.5 -33.5
s31.334 -12 50.001 -12c14 0 28.333 2.33301 43 7s28.334 12.334 41.001 23.001s23 24.5 31 41.5s12 38.167 12 63.5v50z" />
    <glyph glyph-name="e" unicode="e" horiz-adv-x="525" 
d="M476 104c-18.667 -36 -44.498 -64.502 -77.498 -85.502s-74.5 -31.5 -124.5 -31.5c-36 0 -68.5 6 -97.5 18s-53.667 29 -74 51s-36 48.333 -47 79s-16.5 65 -16.5 103c0 37.333 5.5 71.333 16.5 102s26.667 56.834 47 78.501s44.666 38.5 72.999 50.5s59.833 18 94.5 18
c38 0 71 -6.66699 99 -20s51.167 -31.166 69.5 -53.499s32 -48.333 41 -78s13.5 -60.5 13.5 -92.5v-32h-338c0.666992 -18 3.33398 -35.333 8.00098 -52s11.667 -31.5 21 -44.5s21.166 -23.333 35.499 -31s32.166 -11.5 53.499 -11.5c29.333 0 51.833 6.66699 67.5 20
s28.167 30.333 37.5 51zM269.002 403.998c-34 0 -60.333 -11 -79 -33s-29.667 -50.333 -33 -85h222c-1.33301 38 -12 67.167 -32 87.5s-46 30.5 -78 30.5z" />
    <glyph glyph-name="f" unicode="f" horiz-adv-x="342" 
d="M17 474l79.998 -0.00195312v62c0 33.333 5 61.333 15 84s23 40.834 39 54.501s34.167 23.5 54.5 29.5s40.5 9 60.5 9c24.667 0 48.5 -3.16699 71.5 -9.5s41.167 -14.833 54.5 -25.5l-47 -86c-7.33301 6.66699 -16.666 12.834 -27.999 18.501s-24.666 8.5 -39.999 8.5
c-20 0 -36.167 -6.33301 -48.5 -19s-18.5 -33.667 -18.5 -63v-63h107v-84h-107v-390h-113v390h-80v84z" />
    <glyph glyph-name="g" unicode="g" horiz-adv-x="534" 
d="M503 412c-4.66699 4.66699 -10.168 7.83203 -16.501 9.49902s-12.5 2.5 -18.5 2.5c-8.66699 0 -16.167 -1.16699 -22.5 -3.5s-11.166 -5.16602 -14.499 -8.49902c11.333 -12 20 -26.667 26 -44s9 -35.333 9 -54c0 -27.333 -5.66699 -51.333 -17 -72
s-26.333 -38.334 -45 -53.001s-40.167 -25.667 -64.5 -33s-49.833 -11 -76.5 -11c-19.333 0 -34.5 1.33301 -45.5 4s-19.833 4 -26.5 4c-7.33301 0 -15.833 -2.66699 -25.5 -8s-14.5 -14.666 -14.5 -27.999c0 -8.66699 3.16699 -15.334 9.5 -20.001
s15.833 -8.16699 28.5 -10.5s28.5 -4.16602 47.5 -5.49902s40.833 -3 65.5 -5c28 -2 54.167 -5.33301 78.5 -10s45.666 -11.667 63.999 -21s32.666 -22 42.999 -38s15.5 -36.667 15.5 -62c0 -28 -6.5 -52 -19.5 -72s-30.667 -36.333 -53 -49s-48.5 -22 -78.5 -28
s-62 -9 -96 -9c-32 0 -61.667 2.5 -89 7.5s-51 13 -71 24s-35.667 24.667 -47 41s-17 36.166 -17 59.499c0 24 6.5 45.5 19.5 64.5s29.167 32.5 48.5 40.5c-18 8.66699 -31 20.334 -39 35.001s-12 29.334 -12 44.001c0 18.667 5.83301 35.667 17.5 51
s28.167 27.666 49.5 36.999c-17.333 13.333 -31.166 30.166 -41.499 50.499s-15.5 43.833 -15.5 70.5c0 28 5.66699 53 17 75s26.333 40.333 45 55s39.834 25.834 63.501 33.501s48.167 11.5 73.5 11.5c21.333 0 41.333 -2.5 60 -7.5s35 -10.833 49 -17.5
c12.667 10.667 26.667 19.167 42 25.5s34 9.5 56 9.5c12 0 23 -1 33 -3s18.667 -4.66699 26 -8zM169.999 313.998c0 -32 8.83301 -55.667 26.5 -71s39.5 -23 65.5 -23c26.667 0 48.834 7.66699 66.501 23s26.5 39 26.5 71s-8.83301 56.167 -26.5 72.5
s-39.834 24.5 -66.501 24.5c-26 0 -47.833 -8.16699 -65.5 -24.5s-26.5 -40.5 -26.5 -72.5zM274.999 -12.002c-23.333 1.33301 -43.833 2.83203 -61.5 4.49902s-32.167 3.83398 -43.5 6.50098c-13.333 -6 -23 -15.5 -29 -28.5s-9 -26.5 -9 -40.5
c0 -24 11.667 -41.167 35 -51.5s54.333 -15.5 93 -15.5c19.333 0 37.5 1.33301 54.5 4s31.667 7 44 13s22 13.5 29 22.5s10.5 19.833 10.5 32.5c0 20 -9.5 33.333 -28.5 40s-50.5 11 -94.5 13z" />
    <glyph glyph-name="h" unicode="h" horiz-adv-x="565" 
d="M72 700l113.998 0.000976562v-291c12 21.333 29.5 39.666 52.5 54.999s53.5 23 91.5 23c22.667 0 44.334 -3.33301 65.001 -10s38.5 -16.667 53.5 -30s27 -30 36 -50s13.5 -43.333 13.5 -70v-327h-114v300c0 16.667 -2.5 31 -7.5 43s-11.5 21.833 -19.5 29.5
s-17.333 13.167 -28 16.5s-21.667 5 -33 5c-14 0 -27.667 -3 -41 -9s-25.166 -15 -35.499 -27s-18.5 -27 -24.5 -45s-9 -38.667 -9 -62v-251h-114v700z" />
    <glyph glyph-name="i" unicode="i" horiz-adv-x="258" 
d="M59 643c0 21.333 6.5 38.166 19.5 50.499s29.833 18.5 50.5 18.5s37.5 -6.16699 50.5 -18.5s19.5 -29.166 19.5 -50.499c0 -19.333 -6.33301 -35.666 -19 -48.999s-29.667 -20 -51 -20s-38.333 6.66699 -51 20s-19 29.666 -19 48.999zM72 474h114v-474h-114v474z" />
    <glyph glyph-name="j" unicode="j" horiz-adv-x="261" 
d="M189 -47c0 -30.667 -5.16797 -56.668 -15.501 -78.001s-23.5 -38.5 -39.5 -51.5s-33.833 -22.333 -53.5 -28s-39.167 -8.5 -58.5 -8.5c-21.333 0 -41.666 3 -60.999 9s-37.333 14 -54 24l46 85c7.33301 -5.33301 16.333 -10.666 27 -15.999s22.667 -8 36 -8
c18.667 0 33.167 6.66699 43.5 20s15.5 33 15.5 59v514h114v-521zM61.999 642.999c0 21.333 6.5 38.166 19.5 50.499s29.833 18.5 50.5 18.5s37.5 -6.16699 50.5 -18.5s19.5 -29.166 19.5 -50.499c0 -19.333 -6.33301 -35.666 -19 -48.999s-29.667 -20 -51 -20
s-38.333 6.66699 -51 20s-19 29.666 -19 48.999z" />
    <glyph glyph-name="k" unicode="k" horiz-adv-x="534" 
d="M234 230l-48 -44v-186h-114v700h114v-396l184 170h133l-187 -174l213 -300h-134z" />
    <glyph glyph-name="l" unicode="l" horiz-adv-x="258" 
d="M72 700h114v-700h-114v700z" />
    <glyph glyph-name="m" unicode="m" horiz-adv-x="843" 
d="M72 474l109.001 0.000976562v-72c13.333 24.667 31.5 45 54.5 61s51.833 24 86.5 24c33.333 0 62.5 -7.33301 87.5 -22s43.833 -35.667 56.5 -63c6.66699 10.667 15 21 25 31s21.5 19 34.5 27s27.167 14.5 42.5 19.5s32 7.5 50 7.5c21.333 0 41.666 -3.33301 60.999 -10
s36.166 -16.667 50.499 -30s25.666 -29.833 33.999 -49.5s12.5 -42.834 12.5 -69.501v-328h-114v300c0 34 -8 58.167 -24 72.5s-34.333 21.5 -55 21.5c-13.333 0 -26.166 -3 -38.499 -9s-23.166 -15 -32.499 -27s-16.833 -27 -22.5 -45s-8.5 -38.667 -8.5 -62v-251h-114v300
c0 34 -8.16699 58.167 -24.5 72.5s-34.833 21.5 -55.5 21.5c-13.333 0 -26 -3 -38 -9s-22.667 -15 -32 -27s-16.833 -27 -22.5 -45s-8.5 -38.667 -8.5 -62v-251h-114v474z" />
    <glyph glyph-name="n" unicode="n" horiz-adv-x="565" 
d="M72 474h108.999v-72c14 24.667 33 45 57 61s54.667 24 92 24c22.667 0 44.334 -3.33301 65.001 -10s38.5 -16.667 53.5 -30s27 -30 36 -50s13.5 -43.333 13.5 -70v-327h-114v300c0 16.667 -2.5 31 -7.5 43s-11.667 21.833 -20 29.5s-17.833 13.167 -28.5 16.5
s-21.334 5 -32.001 5c-14 0 -27.667 -3 -41 -9s-25.166 -15 -35.499 -27s-18.5 -27 -24.5 -45s-9 -38.667 -9 -62v-251h-114v474z" />
    <glyph glyph-name="o" unicode="o" horiz-adv-x="553" 
d="M276 487c36.667 0 69.667 -6 99 -18s54.333 -29 75 -51s36.5 -48.333 47.5 -79s16.5 -64.667 16.5 -102s-5.5 -71.333 -16.5 -102s-26.833 -57 -47.5 -79s-45.667 -39 -75 -51s-62.333 -18 -99 -18s-69.667 6 -99 18s-54.166 29 -74.499 51s-36 48.333 -47 79
s-16.5 64.667 -16.5 102s5.5 71.333 16.5 102s26.667 57 47 79s45.166 39 74.499 51s62.333 18 99 18zM276 74c20.667 0 38.667 4.33301 54 13s28 20.334 38 35.001s17.5 31.834 22.5 51.501s7.5 40.834 7.5 63.501s-2.5 43.834 -7.5 63.501s-12.5 36.834 -22.5 51.501
s-22.667 26.334 -38 35.001s-33.333 13 -54 13s-38.5 -4.33301 -53.5 -13s-27.5 -20.334 -37.5 -35.001s-17.5 -31.834 -22.5 -51.501s-7.5 -40.834 -7.5 -63.501s2.5 -43.834 7.5 -63.501s12.5 -36.834 22.5 -51.501s22.5 -26.334 37.5 -35.001s32.833 -13 53.5 -13z" />
    <glyph glyph-name="p" unicode="p" horiz-adv-x="588" 
d="M335 -13c-38.667 0 -69.833 7.33789 -93.5 22.0049s-42.167 31.334 -55.5 50.001v-259h-114v674h109v-70c13.333 23.333 32.833 43 58.5 59s57.5 24 95.5 24c30.667 0 59 -5.83301 85 -17.5s48.5 -28.334 67.5 -50.001s34 -47.834 45 -78.501s16.5 -65.334 16.5 -104.001
s-5.5 -73.334 -16.5 -104.001s-26 -56.834 -45 -78.501s-41.5 -38.334 -67.5 -50.001s-54.333 -17.5 -85 -17.5zM185.001 214.005c0 -24.667 4 -45.666 12 -62.999s18 -31.5 30 -42.5s25.5 -19 40.5 -24s29.5 -7.5 43.5 -7.5c18.667 0 35.5 4 50.5 12
s27.833 19.167 38.5 33.5s18.834 31.166 24.501 50.499s8.5 40.666 8.5 63.999c0 22.667 -2.83301 43.834 -8.5 63.501s-13.834 36.667 -24.501 51s-23.5 25.5 -38.5 33.5s-31.833 12 -50.5 12c-14 0 -28.5 -2.5 -43.5 -7.5s-28.5 -13 -40.5 -24s-22 -25.167 -30 -42.5
s-12 -38.333 -12 -63v-46z" />
    <glyph glyph-name="q" unicode="q" horiz-adv-x="588" 
d="M252 -13c-30 0 -57.998 5.82617 -83.998 17.4932s-48.5 28.334 -67.5 50.001s-34 47.834 -45 78.501s-16.5 65.334 -16.5 104.001s5.5 73.334 16.5 104.001s26.333 56.834 46 78.501s42.667 38.334 69 50.001s54.833 17.5 85.5 17.5c37.333 0 68.666 -7.66699 93.999 -23
s44.666 -34.666 57.999 -57.999v68h108v-674h-113v260c-14 -19.333 -33.167 -36.333 -57.5 -51s-55.5 -22 -93.5 -22zM403.002 260.993c0 25.333 -3.99805 46.667 -11.998 64s-18.167 31.333 -30.5 42s-25.833 18.334 -40.5 23.001s-28.334 7 -41.001 7
c-19.333 0 -36.5 -4 -51.5 -12s-27.833 -19.167 -38.5 -33.5s-18.834 -31.333 -24.501 -51s-8.5 -40.834 -8.5 -63.501c0 -23.333 2.83301 -44.666 8.5 -63.999s13.667 -36.166 24 -50.499s22.833 -25.5 37.5 -33.5s31.334 -12 50.001 -12c13.333 0 27.5 2.33301 42.5 7
s28.667 12.167 41 22.5s22.666 24.166 30.999 41.499s12.5 38.666 12.5 63.999v49z" />
    <glyph glyph-name="r" unicode="r" horiz-adv-x="384" 
d="M356 371c-7.33301 6 -15.834 10.5 -25.501 13.5s-19.5 4.5 -29.5 4.5c-14 0 -27.833 -3 -41.5 -9s-26 -15.167 -37 -27.5s-19.833 -28 -26.5 -47s-10 -41.167 -10 -66.5v-239h-114v474h107v-77c13.333 30 31.833 52.5 55.5 67.5s51.834 22.5 84.501 22.5
c9.33301 0 19.333 -0.833008 30 -2.5s20.667 -4.5 30 -8.5z" />
    <glyph glyph-name="s" unicode="s" horiz-adv-x="478" 
d="M158 348c0 -21.333 8.99902 -36 26.999 -44s41.667 -14.333 71 -19c24.667 -3.33301 48.334 -8.16602 71.001 -14.499s42.5 -15 59.5 -26s30.667 -25 41 -42s15.5 -37.833 15.5 -62.5c0 -48 -18.5 -85.5 -55.5 -112.5s-86.5 -40.5 -148.5 -40.5
c-58.667 0 -106.667 12.167 -144 36.5s-58.666 59.833 -63.999 106.5l110 16c2.66699 -26.667 12.667 -46 30 -58s40.333 -18 69 -18c26.667 0 48.167 5 64.5 15s24.5 25.667 24.5 47c0 18.667 -7.66699 32.5 -23 41.5s-42.666 16.5 -81.999 22.5
c-27.333 4 -52 9.5 -74 16.5s-40.833 16 -56.5 27s-27.834 24.667 -36.501 41s-13 36.166 -13 59.499c0 24.667 5.33301 46.334 16 65.001s25 34 43 46s38.833 21 62.5 27s48.167 9 73.5 9c26 0 50.333 -3 73 -9s42.667 -14.5 60 -25.5s31.5 -24.667 42.5 -41
s18.167 -34.5 21.5 -54.5l-110 -23c-3.33301 22.667 -12.333 40.167 -27 52.5s-35.334 18.5 -62.001 18.5c-22 0 -40.667 -4.83301 -56 -14.5s-23 -23.834 -23 -42.501z" />
    <glyph glyph-name="t" unicode="t" horiz-adv-x="358" 
d="M336 7c-12 -6 -26.499 -10.833 -43.499 -14.5s-34.833 -5.5 -53.5 -5.5c-44 0 -78.667 11.5 -104 34.5s-38 56.5 -38 100.5v268h-80v84h80v135l113 52v-187h107v-84h-107v-254c0 -20.667 4.16699 -35.167 12.5 -43.5s19.166 -12.5 32.499 -12.5c10 0 19 1.66699 27 5
s15.667 7 23 11z" />
    <glyph glyph-name="u" unicode="u" horiz-adv-x="560" 
d="M488 0h-108v71c-14.667 -24.667 -33.667 -44.834 -57 -60.501s-53.333 -23.5 -90 -23.5c-22.667 0 -44 3.33301 -64 10s-37.5 16.667 -52.5 30s-26.833 29.833 -35.5 49.5s-13 42.834 -13 69.501v328h113v-300c0 -34 8.83301 -58.167 26.5 -72.5s37.5 -21.5 59.5 -21.5
c14 0 27.5 3 40.5 9s24.5 15 34.5 27s18 27 24 45s9 38.667 9 62v251h113v-474z" />
    <glyph glyph-name="v" unicode="v" horiz-adv-x="497" 
d="M12 474h120c18 -55.333 35 -107 51 -155c6.66699 -20.667 13.5 -41.5 20.5 -62.5s13.5 -41 19.5 -60s11.5 -36.333 16.5 -52s8.83301 -28.167 11.5 -37.5h2c2.66699 9.33301 6.5 21.833 11.5 37.5s10.5 33 16.5 52s12.5 39 19.5 60s13.833 41.833 20.5 62.5
c16 48 33.333 99.667 52 155h112l-173 -474h-125z" />
    <glyph glyph-name="w" unicode="w" horiz-adv-x="743" 
d="M426 474c16.667 -55.333 31.667 -106.999 45 -154.999c6 -20.667 11.833 -41.334 17.5 -62.001s11 -40.167 16 -58.5s9.33301 -34.833 13 -49.5l8.5 -34h2c2 9.33301 4.83301 21.666 8.5 36.999s8 32.333 13 51s10.333 38.334 16 59.001s11.5 41 17.5 61
c13.333 46.667 27.666 97 42.999 151h105l-145 -474h-118c-17.333 60 -32.666 114.667 -45.999 164c-6 20.667 -11.833 41.334 -17.5 62.001s-10.834 39.5 -15.501 56.5s-8.66699 31.5 -12 43.5s-5.33301 20 -6 24c-1.33301 -4 -3.5 -12 -6.5 -24
s-6.83301 -26.5 -11.5 -43.5s-9.83398 -35.833 -15.501 -56.5s-11.5 -41.334 -17.5 -62.001c-13.333 -49.333 -28.333 -104 -45 -164h-118l-145 474h112c16 -54.667 30.667 -105.334 44 -152.001c6 -20 11.833 -40.333 17.5 -61s10.834 -40.334 15.501 -59.001
s8.83398 -35.5 12.501 -50.5s6.5 -27.167 8.5 -36.5h2c2.66699 11.333 7 28.166 13 50.499s12.667 46.833 20 73.5s15 53.834 23 81.501s15.333 52.834 22 75.501s12.167 41.334 16.5 56.001l6.5 22h101z" />
    <glyph glyph-name="x" unicode="x" horiz-adv-x="493" 
d="M13 0l173 243l-161 231h127l98 -145l97 145h120l-159 -226l172 -248h-126l-110 161l-108 -161h-123z" />
    <glyph glyph-name="y" unicode="y" horiz-adv-x="498" 
d="M120 -200l78.002 199l-186 475h116c19.333 -54.667 37.666 -105.334 54.999 -152.001l22 -60c7.33301 -20 14.166 -38.667 20.499 -56s11.833 -33 16.5 -47s8.33398 -24.333 11.001 -31h2c2 6.66699 5.33301 17 10 31s10 29.667 16 47s12.667 36 20 56l22 60
c17.333 46.667 35.666 97.334 54.999 152.001h108l-255 -674h-111z" />
    <glyph glyph-name="z" unicode="z" horiz-adv-x="458" 
d="M44 474h377v-70l-247 -318h248v-86h-386v73l247 315h-239v86z" />
    <glyph glyph-name="braceleft" unicode="{" horiz-adv-x="351" 
d="M229 483c0 -29.333 -2.33301 -54.166 -7 -74.499s-11.5 -37.166 -20.5 -50.499s-20.167 -23.833 -33.5 -31.5s-28.333 -13.167 -45 -16.5c16.667 -3.33301 31.667 -8.83301 45 -16.5s24.5 -18.167 33.5 -31.5s15.833 -30.166 20.5 -50.499s7 -44.833 7 -73.5v-57
c0 -21.333 0.833008 -41.333 2.5 -60s5.83398 -35.334 12.501 -50.001s16.834 -26.667 30.501 -36s32.5 -15.333 56.5 -18v-75c-49.333 1.33301 -87.833 9.5 -115.5 24.5s-48.167 34.833 -61.5 59.5s-21.333 53.667 -24 87s-4 69 -4 107v17
c0 18.667 -0.833008 35.667 -2.5 51s-5.5 29 -11.5 41s-14.833 21.833 -26.5 29.5s-27.5 13.167 -47.5 16.5v71c20 2.66699 35.833 8 47.5 16s20.5 18 26.5 30s9.83301 25.667 11.5 41s2.5 32.333 2.5 51v17c0 38 1.33301 73.667 4 107s10.667 62.333 24 87
s33.833 44.5 61.5 59.5s66.167 23.167 115.5 24.5v-76c-24 -2.66699 -42.833 -8.66699 -56.5 -18s-23.834 -21.333 -30.501 -36s-10.834 -31.334 -12.501 -50.001s-2.5 -38.334 -2.5 -59.001v-57z" />
    <glyph glyph-name="bar" unicode="|" horiz-adv-x="270" 
d="M87 797h96v-966h-96v966z" />
    <glyph glyph-name="braceright" unicode="}" horiz-adv-x="351" 
d="M122 540c0 20.667 -0.833008 40.334 -2.5 59.001s-5.83398 35.334 -12.501 50.001s-16.834 26.667 -30.501 36s-32.5 15.333 -56.5 18v76c50 -1.33301 88.833 -9.5 116.5 -24.5s48.167 -34.833 61.5 -59.5s21.333 -53.667 24 -87s4 -69 4 -107v-17
c0 -18.667 0.833008 -35.667 2.5 -51s5.5 -29 11.5 -41s14.833 -22 26.5 -30s27.5 -13.333 47.5 -16v-71c-20 -3.33301 -35.833 -8.83301 -47.5 -16.5s-20.5 -17.5 -26.5 -29.5s-9.83301 -25.667 -11.5 -41s-2.5 -32.333 -2.5 -51v-17c0 -38 -1.33301 -73.667 -4 -107
s-10.667 -62.333 -24 -87s-33.833 -44.5 -61.5 -59.5s-66.5 -23.167 -116.5 -24.5v75c24 2.66699 42.833 8.66699 56.5 18s23.834 21.333 30.501 36s10.834 31.334 12.501 50.001s2.5 38.667 2.5 60v57c0 28.667 2.33301 53.167 7 73.5s11.5 37.166 20.5 50.499
s20 23.833 33 31.5s28.167 13.167 45.5 16.5c-17.333 3.33301 -32.5 8.83301 -45.5 16.5s-24 18.167 -33 31.5s-15.833 30.166 -20.5 50.499s-7 45.166 -7 74.499v57z" />
    <glyph glyph-name="asciitilde" unicode="~" horiz-adv-x="604" 
d="M391 227c-23.333 0 -43.3369 3.1709 -60.0039 9.50391s-31.667 13.166 -45 20.499s-26.166 14.166 -38.499 20.499s-25.5 9.5 -39.5 9.5c-14.667 0 -27 -3 -37 -9s-18.333 -12.667 -25 -20c-7.33301 -8.66699 -13.666 -18.334 -18.999 -29.001l-73 58
c9.33301 17.333 21.333 32.666 36 45.999c12.667 11.333 28.834 21.833 48.501 31.5s43.834 14.5 72.501 14.5c23.333 0 43.333 -3.16699 60 -9.5s31.834 -13.333 45.501 -21s26.667 -14.667 39 -21s25.833 -9.5 40.5 -9.5c14 0 26 3 36 9s18.333 12.667 25 20
c7.33301 8 13.666 17.667 18.999 29l73 -56c-9.33301 -18 -21.333 -33.667 -36 -47c-12.667 -11.333 -29 -21.833 -49 -31.5s-44.333 -14.5 -73 -14.5z" />
    <glyph glyph-name="Zcaron" horiz-adv-x="620" 
d="M161 867l54 51l102 -101l102 101l54 -51l-114 -116h-85zM52 700h528v-87l-392 -516h389v-97h-536v85l393 518h-382v97z" />
    <glyph glyph-name="Zcaron" unicode="&#x17d;" horiz-adv-x="620" 
d="M161 867l54 51l102 -101l102 101l54 -51l-114 -116h-85zM52 700h528v-87l-392 -516h389v-97h-536v85l393 518h-382v97z" />
    <glyph glyph-name="zcaron" horiz-adv-x="458" 
d="M271 534h-73l-116 128l55 50l98 -106l98 106l54 -50zM44 474h377v-70l-247 -318h248v-86h-386v73l247 315h-239v86z" />
    <glyph glyph-name="zcaron" unicode="&#x17e;" horiz-adv-x="458" 
d="M271 534h-73l-116 128l55 50l98 -106l98 106l54 -50zM44 474h377v-70l-247 -318h248v-86h-386v73l247 315h-239v86z" />
    <glyph glyph-name="exclamdown" unicode="&#xa1;" horiz-adv-x="265" 
d="M62 438c0 20 6.5 36.667 19.5 50s29.833 20 50.5 20c21.333 0 38.5 -6.66699 51.5 -20s19.5 -30 19.5 -50c0 -20.667 -6.5 -37.334 -19.5 -50.001s-30.167 -19 -51.5 -19c-20.667 0 -37.5 6.33301 -50.5 19s-19.5 29.334 -19.5 50.001zM193 -200h-121l13 491h95z" />
    <glyph glyph-name="cent" unicode="&#xa2;" horiz-adv-x="514" 
d="M44 344c0 32.667 4.33496 63.002 13.002 91.002s21.5 52.833 38.5 74.5s37.833 39.5 62.5 53.5s53 23 85 27v100h66v-98c46 -5.33301 83 -20 111 -44s48.333 -52.333 61 -85l-92 -38c-12.667 43.333 -39.334 70 -80.001 80v-321c21.333 4.66699 38.166 14 50.499 28
s22.5 30 30.5 48l93 -39c-17.333 -32.667 -39.5 -60.334 -66.5 -83.001s-62.833 -36.334 -107.5 -41.001v-97h-66v97c-31.333 4 -59.333 12.833 -84 26.5s-45.5 31.334 -62.5 53.001s-30 46.667 -39 75s-13.5 59.166 -13.5 92.499zM151.002 345.002
c0 -16.667 1.5 -33.667 4.5 -51s8 -33.333 15 -48s16.333 -27.5 28 -38.5s26.5 -18.833 44.5 -23.5v320c-16.667 -4 -30.834 -11.333 -42.501 -22s-21.167 -23.167 -28.5 -37.5s-12.666 -30 -15.999 -47s-5 -34.5 -5 -52.5z" />
    <glyph glyph-name="sterling" unicode="&#xa3;" horiz-adv-x="571" 
d="M103 311l-57.001 0.000976562v84h57v88c0 28 3.83301 55 11.5 81s20 49 37 69s39 36 66 48s59.833 18 98.5 18c28.667 0 54 -3.5 76 -10.5s41.167 -16.667 57.5 -29s29.833 -26.833 40.5 -43.5s19.667 -34.334 27 -53.001l-101 -37
c-9.33301 26.667 -21.666 47.5 -36.999 62.5s-36.333 22.5 -63 22.5c-17.333 0 -32.166 -3.16699 -44.499 -9.5s-22.5 -15 -30.5 -26s-14 -23.667 -18 -38s-6 -29.5 -6 -45.5v-97h162v-84h-162v-117c0 -24 -3.66699 -45.833 -11 -65.5s-17.666 -33.167 -30.999 -40.5l1 -2
c5.33301 1.33301 12.833 2.5 22.5 3.5s20.5 1.5 32.5 1.5c16 0 29.833 -0.833008 41.5 -2.5s22.5 -3.33398 32.5 -5.00098s19.667 -3.33398 29 -5.00098s19.666 -2.5 30.999 -2.5c25.333 0 44.666 5.5 57.999 16.5s24.333 29.833 33 56.5l97 -31
c-15.333 -46 -37.166 -79.167 -65.499 -99.5s-65.5 -30.5 -111.5 -30.5c-14.667 0 -27.667 0.833008 -39 2.5s-23 3.33398 -35 5.00098s-25.333 3.33398 -40 5.00098s-32.334 2.5 -53.001 2.5c-30 0 -56.833 -1.66699 -80.5 -5s-44.5 -7.66602 -62.5 -12.999l-24 83
c14 7.33301 25 15.833 33 25.5s14.167 20 18.5 31s7 22.167 8 33.5s1.5 22.666 1.5 33.999v119z" />
    <glyph glyph-name="currency" unicode="&#xa4;" horiz-adv-x="618" 
d="M309 590c24 0 47.333 -3.5 70 -10.5s43.667 -17.167 63 -30.5l69 73l69 -67l-73 -68c13.333 -19.333 24 -40.5 32 -63.5s12 -47.167 12 -72.5s-4 -49.666 -12 -72.999s-18.667 -44.666 -32 -63.999l73 -67l-69 -67l-69 72c-19.333 -12.667 -40.333 -22.5 -63 -29.5
s-46 -10.5 -70 -10.5c-24.667 0 -48.334 3.5 -71.001 10.5s-43.667 16.833 -63 29.5l-69 -72l-68 67l73 67c-13.333 19.333 -24 40.666 -32 63.999s-12 47.666 -12 72.999s4 49.5 12 72.5s18.667 44.167 32 63.5l-73 68l68 67l69 -73c19.333 13.333 40.333 23.5 63 30.5
s46.334 10.5 71.001 10.5zM309 204c20 0 38.833 3.83301 56.5 11.5s33.167 18.167 46.5 31.5s23.833 28.833 31.5 46.5s11.5 36.834 11.5 57.501s-3.83301 39.834 -11.5 57.501s-18.167 33.167 -31.5 46.5s-28.833 23.833 -46.5 31.5s-36.5 11.5 -56.5 11.5
s-38.833 -3.83301 -56.5 -11.5s-33.167 -18.167 -46.5 -31.5s-23.833 -28.833 -31.5 -46.5s-11.5 -36.834 -11.5 -57.501s3.83301 -39.834 11.5 -57.501s18.167 -33.167 31.5 -46.5s28.833 -23.833 46.5 -31.5s36.5 -11.5 56.5 -11.5z" />
    <glyph glyph-name="yen" unicode="&#xa5;" horiz-adv-x="632" 
d="M373 212v-212h-115v212h-168v73h168v15l-32 49h-136v73h89l-170 264h131l178 -286l182 286h123l-171 -264h90v-73h-138l-31 -49v-15h169v-73h-169z" />
    <glyph glyph-name="brokenbar" unicode="&#xa6;" horiz-adv-x="270" 
d="M87 797h96v-385h-96v385zM87 216h96v-385h-96v385z" />
    <glyph glyph-name="section" unicode="&#xa7;" horiz-adv-x="548" 
d="M512 238c0 -32 -7.66895 -58.168 -23.002 -78.501s-37.666 -38.833 -66.999 -55.5c17.333 -14.667 30.333 -31.5 39 -50.5s13 -41.833 13 -68.5c0 -28 -5 -53 -15 -75s-24.167 -40.5 -42.5 -55.5s-40.166 -26.333 -65.499 -34s-53.333 -11.5 -84 -11.5
c-54 0 -98.833 12.167 -134.5 36.5s-59.5 56.5 -71.5 96.5l104 34c7.33301 -23.333 19 -42.5 35 -57.5s39 -22.5 69 -22.5c32 0 55.833 7.5 71.5 22.5s23.5 34.833 23.5 59.5c0 16 -3 29.833 -9 41.5s-15.167 22.167 -27.5 31.5s-27.833 18 -46.5 26s-40.334 16 -65.001 24
c-22 7.33301 -43.833 16 -65.5 26s-41 22 -58 36s-30.667 30.833 -41 50.5s-15.5 43.167 -15.5 70.5c0 32 7.66699 58.167 23 78.5s37.666 38.833 66.999 55.5c-17.333 14.667 -30.333 31.334 -39 50.001s-13 41.667 -13 69c0 28 5 53 15 75s24.167 40.5 42.5 55.5
s40.166 26.333 65.499 34s53 11.5 83 11.5c54.667 0 99.834 -12.167 135.501 -36.5s59.167 -56.5 70.5 -96.5l-103 -34c-7.33301 23.333 -19.166 42.5 -35.499 57.5s-39.5 22.5 -69.5 22.5c-32 0 -55.667 -7.5 -71 -22.5s-23 -34.833 -23 -59.5c0 -16 3 -29.833 9 -41.5
s15.167 -22.167 27.5 -31.5s27.833 -18 46.5 -26s40.334 -16 65.001 -24c22 -7.33301 43.667 -16 65 -26s40.5 -22 57.5 -36s30.833 -30.833 41.5 -50.5s16 -43.167 16 -70.5zM342.998 149.999c17.333 7.33301 31.334 17.498 42.001 30.498s16 30.167 16 51.5
c0 25.333 -7.16699 44.5 -21.5 57.5s-34.5 24.833 -60.5 35.5l-115 47c-17.333 -7.33301 -31.166 -17.5 -41.499 -30.5s-15.5 -30.167 -15.5 -51.5c0 -25.333 7 -44.666 21 -57.999s34.333 -25 61 -35l34 -14c11.333 -4.66699 22.166 -9.16699 32.499 -13.5
s19.666 -8.16602 27.999 -11.499s14.833 -6 19.5 -8z" />
    <glyph glyph-name="dieresis" unicode="&#xa8;" 
d="M337 607c0 18.667 6 33.834 18 45.501s27.667 17.5 47 17.5s35 -5.83301 47 -17.5s18 -26.834 18 -45.501c0 -17.333 -6 -32.166 -18 -44.499s-27.667 -18.5 -47 -18.5s-35 6.16699 -47 18.5s-18 27.166 -18 44.499zM133 607c0 18.667 6 33.834 18 45.501
s27.667 17.5 47 17.5s35 -5.83301 47 -17.5s18 -26.834 18 -45.501c0 -17.333 -6 -32.166 -18 -44.499s-27.667 -18.5 -47 -18.5s-35 6.16699 -47 18.5s-18 27.166 -18 44.499z" />
    <glyph glyph-name="copyright" unicode="&#xa9;" horiz-adv-x="817" 
d="M409 -13c-50.667 0 -98.167 9 -142.5 27s-83 43.167 -116 75.5s-59 70.666 -78 114.999s-28.5 93.166 -28.5 146.499c0 52.667 9.5 101.167 28.5 145.5s45 82.5 78 114.5s71.667 57 116 75s91.833 27 142.5 27s98 -9 142 -27s82.5 -43 115.5 -75s59 -70.167 78 -114.5
s28.5 -92.833 28.5 -145.5c0 -53.333 -9.5 -102.166 -28.5 -146.499s-45 -82.666 -78 -114.999s-71.5 -57.5 -115.5 -75.5s-91.333 -27 -142 -27zM409 56c39.333 0 76.5 7.33301 111.5 22s65.5 35 91.5 61s46.667 57 62 93s23 75.667 23 119
c0 42.667 -7.66699 81.834 -23 117.501s-36 66.5 -62 92.5s-56.5 46.333 -91.5 61s-72.167 22 -111.5 22c-40 0 -77.5 -7.33301 -112.5 -22s-65.5 -35 -91.5 -61s-46.5 -56.833 -61.5 -92.5s-22.5 -74.834 -22.5 -117.501c0 -43.333 7.5 -83 22.5 -119s35.5 -67 61.5 -93
s56.5 -46.333 91.5 -61s72.5 -22 112.5 -22zM226 351c0 30.667 4.50195 58.335 13.502 83.002s21.667 45.667 38 63s36.166 30.666 59.499 39.999s49 14 77 14c40 0 73.167 -9.16699 99.5 -27.5s46.166 -44.5 59.499 -78.5l-73 -25c-7.33301 20 -17.833 36.167 -31.5 48.5
s-32.167 18.5 -55.5 18.5c-34 0 -60.333 -12.5 -79 -37.5s-28 -57.5 -28 -97.5s9.33301 -72.5 28 -97.5s44.667 -37.5 78 -37.5c22.667 0 41.167 5.83301 55.5 17.5s25.166 27.834 32.499 48.501l72 -26c-13.333 -32.667 -33.166 -58.334 -59.499 -77.001
s-59.5 -28 -99.5 -28c-28 0 -53.5 4.66699 -76.5 14s-42.667 22.666 -59 39.999s-29 38.333 -38 63s-13.5 52 -13.5 82z" />
    <glyph glyph-name="ordfeminine" unicode="&#xaa;" horiz-adv-x="416" 
d="M283 325c-2 3.33301 -3.83008 9.33203 -5.49707 17.999s-2.5 18.334 -2.5 29.001c-12 -17.333 -26.833 -31.333 -44.5 -42s-40.5 -16 -68.5 -16c-18 0 -34.667 2.33301 -50 7s-28.833 11.5 -40.5 20.5s-20.834 20.167 -27.501 33.5s-10 28.666 -10 45.999
c0 24 6.66699 44 20 60s31 28.833 53 38.5s47.333 16.667 76 21s58.667 6.5 90 6.5v23c0 19.333 -5.33301 35.333 -16 48s-27.667 19 -51 19s-40.833 -6 -52.5 -18s-17.834 -25.667 -18.501 -41l-85 13c2 18.667 7.5 34.834 16.5 48.501s20.667 25.167 35 34.5
s30.666 16.333 48.999 21s37.833 7 58.5 7c44.667 0 81 -11 109 -33s42 -55.333 42 -100v-194c0 -13.333 0.833008 -23.5 2.5 -30.5s3.5 -13.5 5.5 -19.5h-85zM183.003 377.999c11.333 0 22.332 1.83398 32.999 5.50098s20.334 9 29.001 16s15.5 15.667 20.5 26
s7.5 21.833 7.5 34.5v30c-46 0 -82.833 -4.83301 -110.5 -14.5s-41.5 -26.834 -41.5 -51.501c0 -15.333 6 -26.833 18 -34.5s26.667 -11.5 44 -11.5z" />
    <glyph glyph-name="guillemotleft" unicode="&#xab;" horiz-adv-x="526" 
d="M246 256l179 224l67 -50l-129 -174l129 -173l-67 -51zM30 256l179 224l67 -50l-129 -174l129 -173l-67 -51z" />
    <glyph glyph-name="logicalnot" unicode="&#xac;" 
d="M52 371h496v-244h-97v151h-399v93z" />
    <glyph glyph-name="uni00AD" unicode="&#xad;" horiz-adv-x="379" 
d="M57 331h265v-86h-265v86z" />
    <glyph glyph-name="registered" unicode="&#xae;" horiz-adv-x="817" 
d="M409 -13c-50.667 0 -98.167 9 -142.5 27s-83 43.167 -116 75.5s-59 70.666 -78 114.999s-28.5 93.166 -28.5 146.499c0 52.667 9.5 101.167 28.5 145.5s45 82.5 78 114.5s71.667 57 116 75s91.833 27 142.5 27s98 -9 142 -27s82.5 -43 115.5 -75s59 -70.167 78 -114.5
s28.5 -92.833 28.5 -145.5c0 -53.333 -9.5 -102.166 -28.5 -146.499s-45 -82.666 -78 -114.999s-71.5 -57.5 -115.5 -75.5s-91.333 -27 -142 -27zM409 56c39.333 0 76.5 7.33301 111.5 22s65.5 35 91.5 61s46.667 57 62 93s23 75.667 23 119
c0 42.667 -7.66699 81.834 -23 117.501s-36 66.5 -62 92.5s-56.5 46.333 -91.5 61s-72.167 22 -111.5 22c-40 0 -77.5 -7.33301 -112.5 -22s-65.5 -35 -91.5 -61s-46.5 -56.833 -61.5 -92.5s-22.5 -74.834 -22.5 -117.501c0 -43.333 7.5 -83 22.5 -119s35.5 -67 61.5 -93
s56.5 -46.333 91.5 -61s72.5 -22 112.5 -22zM563 429c0 -28 -6.66797 -51.166 -20.001 -69.499s-31.333 -32.166 -54 -41.499l90 -155h-87l-81 147h-58v-147h-72v380h143c16.667 0 33.334 -1.66699 50.001 -5s31.667 -9.33301 45 -18s24 -20.334 32 -35.001
s12 -33.334 12 -56.001zM483.999 429.001c0 18.667 -5.66797 32 -17.001 40s-28.666 12 -51.999 12h-62v-107h66c23.333 0 40 5 50 15s15 23.333 15 40z" />
    <glyph glyph-name="macron" unicode="&#xaf;" 
d="M163 630h273v-74h-273v74z" />
    <glyph glyph-name="degree" unicode="&#xb0;" horiz-adv-x="413" 
d="M369 555c0 -22.667 -4.16699 -43.667 -12.5 -63s-19.666 -36 -33.999 -50s-31.5 -25 -51.5 -33s-41.667 -12 -65 -12s-44.833 4 -64.5 12s-36.834 19 -51.501 33s-26 30.667 -34 50s-12 40.333 -12 63s4 43.667 12 63s19.333 36 34 50s31.834 25 51.501 33
s41.167 12 64.5 12s45 -4 65 -12s37.167 -19 51.5 -33s25.666 -30.667 33.999 -50s12.5 -40.333 12.5 -63zM287 555c0 24 -7.33301 44.333 -22 61s-34.334 25 -59.001 25s-44.334 -8.33301 -59.001 -25s-22 -37 -22 -61s7.33301 -44.333 22 -61s34.334 -25 59.001 -25
s44.334 8.33301 59.001 25s22 37 22 61z" />
    <glyph glyph-name="plusminus" unicode="&#xb1;" 
d="M52 446h202v190h91v-190h203v-92h-203v-197h-91v197h-202v92zM52 91h496v-91h-496v91z" />
    <glyph glyph-name="twosuperior" unicode="&#xb2;" horiz-adv-x="372" 
d="M47 389c16.667 12.667 32.999 25.001 48.999 37.001c13.333 10 27 20.5 41 31.5s25.333 20.167 34 27.5c20 16.667 36.167 33 48.5 49s18.5 33.667 18.5 53c0 15.333 -4.66699 27.666 -14 36.999s-22 14 -38 14c-20 0 -35 -7.33301 -45 -22s-16 -30 -18 -46l-83 14
c7.33301 36 22.833 65.833 46.5 89.5s57.5 35.5 101.5 35.5c22.667 0 42.5 -3.33301 59.5 -10s31.333 -15.5 43 -26.5s20.334 -23.667 26.001 -38s8.5 -29.5 8.5 -45.5c0 -28 -7.83301 -53.167 -23.5 -75.5s-36.167 -43.833 -61.5 -64.5
c-11.333 -9.33301 -24.333 -19 -39 -29s-27.667 -18.667 -39 -26h166v-70h-281v65z" />
    <glyph glyph-name="threesuperior" unicode="&#xb3;" horiz-adv-x="366" 
d="M43 610c3.33301 12 8.33105 23.8311 14.998 35.498s15.334 22.334 26.001 32.001s23.834 17.334 39.501 23.001s34.167 8.5 55.5 8.5c41.333 0 74.333 -10.5 99 -31.5s37 -47.5 37 -79.5c0 -21.333 -5.33301 -38.833 -16 -52.5s-24.334 -23.167 -41.001 -28.5
c18.667 -3.33301 34.5 -12.833 47.5 -28.5s19.5 -34.5 19.5 -56.5c0 -15.333 -3.16699 -30 -9.5 -44s-15.833 -26.333 -28.5 -37s-28 -19.167 -46 -25.5s-38.333 -9.5 -61 -9.5c-24.667 0 -46 3.16699 -64 9.5s-32.667 14.5 -44 24.5s-20 21.167 -26 33.5
s-9.33301 24.5 -10 36.5c2 0.666992 7 2 15 4s16.5 4.16699 25.5 6.5s17.5 4.66602 25.5 6.99902s13 3.83301 15 4.5c0.666992 -6.66699 2.16699 -13.334 4.5 -20.001s5.83301 -12.667 10.5 -18s10.834 -9.66602 18.501 -12.999s17.167 -5 28.5 -5
c21.333 0 36.166 5 44.499 15s12.5 21 12.5 33c0 15.333 -6 27.333 -18 36s-27.667 13 -47 13c-2.66699 0 -5.16699 -0.166992 -7.5 -0.5s-4.16602 -0.5 -5.49902 -0.5h-5v68c1.33301 -0.666992 3 -1 5 -1h11c20 0 34.667 4.33301 44 13s14 19.667 14 33
c0 14.667 -4.83301 25.667 -14.5 33s-21.167 11 -34.5 11c-16 0 -28.833 -4.66699 -38.5 -14s-15.167 -20.666 -16.5 -33.999z" />
    <glyph glyph-name="acute" unicode="&#xb4;" 
d="M417 641l-202 -109l-37 60l189 131z" />
    <glyph glyph-name="mu" unicode="&#xb5;" horiz-adv-x="565" 
d="M493 0l-109 0.00195312v71c-14 -24.667 -32.667 -44.834 -56 -60.501s-52.333 -23.5 -87 -23.5c-10 0 -19.667 1.16699 -29 3.5s-18 5.16602 -26 8.49902v-198h-114v673h114v-300c0 -34 8.33301 -58.167 25 -72.5s36.667 -21.5 60 -21.5c14 0 27.5 3 40.5 9
s24.5 15 34.5 27s18 27 24 45s9 38.667 9 62v251h114v-474z" />
    <glyph glyph-name="mu" unicode="&#x3bc;" horiz-adv-x="565" 
d="M493 0l-109 0.00195312v71c-14 -24.667 -32.667 -44.834 -56 -60.501s-52.333 -23.5 -87 -23.5c-10 0 -19.667 1.16699 -29 3.5s-18 5.16602 -26 8.49902v-198h-114v673h114v-300c0 -34 8.33301 -58.167 25 -72.5s36.667 -21.5 60 -21.5c14 0 27.5 3 40.5 9
s24.5 15 34.5 27s18 27 24 45s9 38.667 9 62v251h114v-474z" />
    <glyph glyph-name="paragraph" unicode="&#xb6;" horiz-adv-x="625" 
d="M241 295c-27.333 1.33301 -53.168 7.33301 -77.501 18s-45.666 25.167 -63.999 43.5s-32.833 39.666 -43.5 63.999s-16 50.5 -16 78.5c0 28.667 5.66699 55.334 17 80.001s26.5 46 45.5 64s41.167 32 66.5 42s52.333 15 81 15h356v-74h-71v-764h-87v764h-120v-764h-87
v433z" />
    <glyph glyph-name="periodcentered" unicode="&#xb7;" horiz-adv-x="277" 
d="M65 287c0 21.333 6.83301 38.666 20.5 51.999s31.167 20 52.5 20c22 0 39.833 -6.66699 53.5 -20s20.5 -30.666 20.5 -51.999c0 -20 -6.83301 -36.667 -20.5 -50s-31.5 -20 -53.5 -20c-21.333 0 -38.833 6.66699 -52.5 20s-20.5 30 -20.5 50z" />
    <glyph glyph-name="cedilla" unicode="&#xb8;" 
d="M234 -154c5.33301 -5.33301 12.498 -9.99902 21.498 -13.999s19.5 -6 31.5 -6c13.333 0 23.5 3.66699 30.5 11s10.5 17 10.5 29s-3.66699 21 -11 27s-16.666 9 -27.999 9c-16.667 0 -29.667 -4.66699 -39 -14l-30 32l35 80h55l-23 -53
c3.33301 1.33301 7.5 2.66602 12.5 3.99902s10.5 2 16.5 2c22.667 0 42 -7.16699 58 -21.5s24 -35.5 24 -63.5c0 -31.333 -10.667 -55.5 -32 -72.5s-47.666 -25.5 -78.999 -25.5c-22.667 0 -41 3.5 -55 10.5s-24.333 13.833 -31 20.5z" />
    <glyph glyph-name="onesuperior" unicode="&#xb9;" horiz-adv-x="269" 
d="M202 700l-0.00195312 -376.001h-88v286c-8 -6 -19 -11.333 -33 -16s-29 -7.33398 -45 -8.00098l-17 68c22.667 2.66699 43.334 7.83398 62.001 15.501s33.334 17.834 44.001 30.501h77z" />
    <glyph glyph-name="ordmasculine" unicode="&#xba;" horiz-adv-x="444" 
d="M222 702c56 0 101 -17.167 135 -51.5s51 -81.833 51 -142.5c0 -30 -4.5 -57 -13.5 -81s-21.667 -44.5 -38 -61.5s-35.833 -30 -58.5 -39s-48 -13.5 -76 -13.5c-27.333 0 -52.5 4.5 -75.5 13.5s-42.667 22 -59 39s-29 37.5 -38 61.5s-13.5 51 -13.5 81s4.5 57 13.5 81
s21.667 44.333 38 61s36 29.5 59 38.5s48.167 13.5 75.5 13.5zM222 381c16.667 0 31 3.33301 43 10s22 15.667 30 27s13.833 24.666 17.5 39.999s5.5 32 5.5 50c0 17.333 -1.83301 33.666 -5.5 48.999s-9.5 28.666 -17.5 39.999s-18 20.333 -30 27s-26.333 10 -43 10
c-16 0 -30 -3.33301 -42 -10s-22 -15.667 -30 -27s-13.833 -24.666 -17.5 -39.999s-5.5 -31.666 -5.5 -48.999c0 -18 1.83301 -34.667 5.5 -50s9.5 -28.666 17.5 -39.999s18 -20.333 30 -27s26 -10 42 -10z" />
    <glyph glyph-name="guillemotright" unicode="&#xbb;" horiz-adv-x="526" 
d="M497 256l-180 -224l-67 51l129 173l-129 174l67 50zM280 256l-179 -224l-67 51l129 173l-129 174l67 50z" />
    <glyph glyph-name="onequarter" unicode="&#xbc;" horiz-adv-x="780" 
d="M431 136l154 238h108v-233h62l-10 -66h-52v-75h-82v75h-180v61zM612 141v161h-2l-103 -161h105zM202 700l-0.00195312 -376.001h-88v286c-8 -6 -19 -11.333 -33 -16s-29 -7.33398 -45 -8.00098l-17 68c22.667 2.66699 43.334 7.83398 62.001 15.501
s33.334 17.834 44.001 30.501h77zM99.998 -13.001l437 726h96l-439 -726h-94z" />
    <glyph glyph-name="onehalf" unicode="&#xbd;" horiz-adv-x="802" 
d="M477 65c16.667 12.667 32.999 25.001 48.999 37.001c13.333 10 27 20.5 41 31.5s25.333 20.167 34 27.5c20 16.667 36.167 33 48.5 49s18.5 33.667 18.5 53c0 15.333 -4.66699 27.666 -14 36.999s-22 14 -38 14c-20 0 -35 -7.33301 -45 -22s-16 -30 -18 -46l-83 14
c7.33301 36 22.833 65.833 46.5 89.5s57.5 35.5 101.5 35.5c22.667 0 42.5 -3.33301 59.5 -10s31.333 -15.5 43 -26.5s20.334 -23.667 26.001 -38s8.5 -29.5 8.5 -45.5c0 -28 -7.83301 -53.167 -23.5 -75.5s-36.167 -43.833 -61.5 -64.5
c-11.333 -9.33301 -24.333 -19 -39 -29s-27.667 -18.667 -39 -26h166v-70h-281v65zM201.999 700.001l-0.00195312 -376.001h-88v286c-8 -6 -19 -11.333 -33 -16s-29 -7.33398 -45 -8.00098l-17 68c22.667 2.66699 43.334 7.83398 62.001 15.501s33.334 17.834 44.001 30.501
h77zM99.9971 -13l437 726h96l-439 -726h-94z" />
    <glyph glyph-name="threequarters" unicode="&#xbe;" horiz-adv-x="854" 
d="M505 136l154 238h108v-233h62l-10 -66h-52v-75h-82v75h-180v61zM686 141v161h-2l-103 -161h105zM43 610c3.33301 12 8.33105 23.8311 14.998 35.498s15.334 22.334 26.001 32.001s23.834 17.334 39.501 23.001s34.167 8.5 55.5 8.5c41.333 0 74.333 -10.5 99 -31.5
s37 -47.5 37 -79.5c0 -21.333 -5.33301 -38.833 -16 -52.5s-24.334 -23.167 -41.001 -28.5c18.667 -3.33301 34.5 -12.833 47.5 -28.5s19.5 -34.5 19.5 -56.5c0 -15.333 -3.16699 -30 -9.5 -44s-15.833 -26.333 -28.5 -37s-28 -19.167 -46 -25.5s-38.333 -9.5 -61 -9.5
c-24.667 0 -46 3.16699 -64 9.5s-32.667 14.5 -44 24.5s-20 21.167 -26 33.5s-9.33301 24.5 -10 36.5c2 0.666992 7 2 15 4s16.5 4.16699 25.5 6.5s17.5 4.66602 25.5 6.99902s13 3.83301 15 4.5c0.666992 -6.66699 2.16699 -13.334 4.5 -20.001s5.83301 -12.667 10.5 -18
s10.834 -9.66602 18.501 -12.999s17.167 -5 28.5 -5c21.333 0 36.166 5 44.499 15s12.5 21 12.5 33c0 15.333 -6 27.333 -18 36s-27.667 13 -47 13c-2.66699 0 -5.16699 -0.166992 -7.5 -0.5s-4.16602 -0.5 -5.49902 -0.5h-5v68c1.33301 -0.666992 3 -1 5 -1h11
c20 0 34.667 4.33301 44 13s14 19.667 14 33c0 14.667 -4.83301 25.667 -14.5 33s-21.167 11 -34.5 11c-16 0 -28.833 -4.66699 -38.5 -14s-15.167 -20.666 -16.5 -33.999zM173.998 -13.002l437 726h96l-439 -726h-94z" />
    <glyph glyph-name="questiondown" unicode="&#xbf;" horiz-adv-x="520" 
d="M320 295l-0.00390625 -34.9961c0 -18 -2.83301 -34.833 -8.5 -50.5s-13.167 -30.334 -22.5 -44.001s-20.166 -26.334 -32.499 -38.001s-25.166 -22.834 -38.499 -33.501c-8 -6.66699 -16.167 -13.667 -24.5 -21s-15.833 -15.333 -22.5 -24s-12 -18.334 -16 -29.001
s-6 -23 -6 -37c0 -30 9.66699 -55 29 -75s46 -30 80 -30c20.667 0 38.667 4.33301 54 13s28.166 19.834 38.499 33.501s18.333 29.167 24 46.5s9.5 35 11.5 53l114 -19c-5.33301 -30.667 -14 -59.334 -26 -86.001s-27.833 -49.667 -47.5 -69s-43.5 -34.666 -71.5 -45.999
s-60.333 -17 -97 -17c-38.667 0 -72.167 5.83301 -100.5 17.5s-51.666 27 -69.999 46s-32 40.5 -41 64.5s-13.5 48 -13.5 72c0 18.667 2.33301 35.5 7 50.5s10.834 28.667 18.501 41s16.334 23.666 26.001 33.999s19.167 19.833 28.5 28.5c12 10.667 23.5 21.167 34.5 31.5
s20.833 20.5 29.5 30.5s15.667 20.167 21 30.5s8 21.5 8 33.5v28h114zM331.996 438.004c0 -20.667 -6.33301 -37.334 -19 -50.001s-29.667 -19 -51 -19s-38.5 6.33301 -51.5 19s-19.5 29.334 -19.5 50.001c0 20 6.5 36.667 19.5 50s30.167 20 51.5 20
s38.333 -6.66699 51 -20s19 -30 19 -50z" />
    <glyph glyph-name="Agrave" unicode="&#xc0;" horiz-adv-x="661" 
d="M644 0h-123l-62 176h-264l-62 -176h-116l254 700h120zM325 562c-2 -6.66699 -4.83398 -15.834 -8.50098 -27.501s-8 -25 -13 -40l-16 -48c-5.66699 -17 -11.5 -33.833 -17.5 -50.5c-13.333 -39.333 -27.666 -81.666 -42.999 -126.999h200
c-16 45.333 -30.667 87.666 -44 126.999c-6 16.667 -11.833 33.5 -17.5 50.5l-16 48c-5 15 -9.5 28.333 -13.5 40s-7 20.834 -9 27.501h-2zM202.999 857l50 82l189 -131l-37 -60z" />
    <glyph glyph-name="Aacute" unicode="&#xc1;" horiz-adv-x="661" 
d="M644 0h-123l-62 176h-264l-62 -176h-116l254 700h120zM325 562c-2 -6.66699 -4.83398 -15.834 -8.50098 -27.501s-8 -25 -13 -40l-16 -48c-5.66699 -17 -11.5 -33.833 -17.5 -50.5c-13.333 -39.333 -27.666 -81.666 -42.999 -126.999h200
c-16 45.333 -30.667 87.666 -44 126.999c-6 16.667 -11.833 33.5 -17.5 50.5l-16 48c-5 15 -9.5 28.333 -13.5 40s-7 20.834 -9 27.501h-2zM455.999 857l-202 -109l-37 60l189 131z" />
    <glyph glyph-name="Acircumflex" unicode="&#xc2;" horiz-adv-x="661" 
d="M644 0h-123l-62 176h-264l-62 -176h-116l254 700h120zM325 562c-2 -6.66699 -4.83398 -15.834 -8.50098 -27.501s-8 -25 -13 -40l-16 -48c-5.66699 -17 -11.5 -33.833 -17.5 -50.5c-13.333 -39.333 -27.666 -81.666 -42.999 -126.999h200
c-16 45.333 -30.667 87.666 -44 126.999c-6 16.667 -11.833 33.5 -17.5 50.5l-16 48c-5 15 -9.5 28.333 -13.5 40s-7 20.834 -9 27.501h-2zM285.999 912h85l115 -115l-54 -52l-104 101l-101 -101l-54 52z" />
    <glyph glyph-name="Atilde" unicode="&#xc3;" horiz-adv-x="661" 
d="M644 0h-123l-62 176h-264l-62 -176h-116l254 700h120zM325 562c-2 -6.66699 -4.83398 -15.834 -8.50098 -27.501s-8 -25 -13 -40l-16 -48c-5.66699 -17 -11.5 -33.833 -17.5 -50.5c-13.333 -39.333 -27.666 -81.666 -42.999 -126.999h200
c-16 45.333 -30.667 87.666 -44 126.999c-6 16.667 -11.833 33.5 -17.5 50.5l-16 48c-5 15 -9.5 28.333 -13.5 40s-7 20.834 -9 27.501h-2zM256.999 892c18 0 33.3301 -2.83203 45.9971 -8.49902s24.334 -11.667 35.001 -18s20.667 -12.333 30 -18s19.666 -8.5 30.999 -8.5
c10.667 0 19.5 2.5 26.5 7.5s13.167 10.5 18.5 16.5c5.33301 7.33301 10 15.666 14 24.999l56 -49c-7.33301 -14 -16.666 -26.333 -27.999 -37c-9.33301 -9.33301 -21.5 -17.833 -36.5 -25.5s-33.167 -11.5 -54.5 -11.5c-17.333 0 -32.333 2.66699 -45 8
s-24.167 11.333 -34.5 18s-20.333 12.667 -30 18s-20.167 8 -31.5 8s-20.666 -2.5 -27.999 -7.5s-13.333 -10.5 -18 -16.5c-5.33301 -7.33301 -9.66602 -15 -12.999 -23l-56 49c6.66699 13.333 15.667 25.333 27 36c9.33301 9.33301 21.5 17.833 36.5 25.5
s33.167 11.5 54.5 11.5z" />
    <glyph glyph-name="Adieresis" unicode="&#xc4;" horiz-adv-x="661" 
d="M644 0h-123l-62 176h-264l-62 -176h-116l254 700h120zM325 562c-2 -6.66699 -4.83398 -15.834 -8.50098 -27.501s-8 -25 -13 -40l-16 -48c-5.66699 -17 -11.5 -33.833 -17.5 -50.5c-13.333 -39.333 -27.666 -81.666 -42.999 -126.999h200
c-16 45.333 -30.667 87.666 -44 126.999c-6 16.667 -11.833 33.5 -17.5 50.5l-16 48c-5 15 -9.5 28.333 -13.5 40s-7 20.834 -9 27.501h-2zM366.999 830c0 18 6 33 18 45s27.667 18 47 18s35 -6 47 -18s18 -27 18 -45s-6 -33 -18 -45s-27.667 -18 -47 -18s-35 6 -47 18
s-18 27 -18 45zM162.999 830c0 18 6 33 18 45s27.667 18 47 18s35 -6 47 -18s18 -27 18 -45s-6 -33 -18 -45s-27.667 -18 -47 -18s-35 6 -47 18s-18 27 -18 45z" />
    <glyph glyph-name="Aring" unicode="&#xc5;" horiz-adv-x="661" 
d="M644 0h-123l-62 176h-264l-62 -176h-116l254 700h120zM325 562c-2 -6.66699 -4.83398 -15.834 -8.50098 -27.501s-8 -25 -13 -40l-16 -48c-5.66699 -17 -11.5 -33.833 -17.5 -50.5c-13.333 -39.333 -27.666 -81.666 -42.999 -126.999h200
c-16 45.333 -30.667 87.666 -44 126.999c-6 16.667 -11.833 33.5 -17.5 50.5l-16 48c-5 15 -9.5 28.333 -13.5 40s-7 20.834 -9 27.501h-2zM223.999 848c0 29.333 9.66699 53.166 29 71.499s45 27.5 77 27.5s57.667 -9.16699 77 -27.5s29 -42.166 29 -71.499
c0 -28 -9.66699 -51.833 -29 -71.5s-45 -29.5 -77 -29.5s-57.667 9.83301 -77 29.5s-29 43.5 -29 71.5zM283.999 848c0 -12.667 4.33301 -23.5 13 -32.5s19.667 -13.5 33 -13.5s24.333 4.5 33 13.5s13 19.833 13 32.5s-4.33301 23.334 -13 32.001s-19.667 13 -33 13
s-24.333 -4.33301 -33 -13s-13 -19.334 -13 -32.001z" />
    <glyph glyph-name="AE" unicode="&#xc6;" horiz-adv-x="953" 
d="M462 0v177h-227l-96 -177h-124l390 700h497v-97h-324v-194h302v-97h-302v-215h330v-97h-446zM286 269h176v320h-4z" />
    <glyph glyph-name="Ccedilla" unicode="&#xc7;" horiz-adv-x="688" 
d="M309 -154c5.33301 -5.33301 12.4961 -10 21.4961 -14s19.5 -6 31.5 -6c13.333 0 23.5 3.66699 30.5 11s10.5 17 10.5 29s-3.66699 21 -11 27s-16.666 9 -27.999 9c-16.667 0 -29.667 -4.66699 -39 -14l-30 32l30 70c-43.333 5.33301 -82.166 17.5 -116.499 36.5
s-63.333 44 -87 75s-41.834 67.333 -54.501 109s-19 88.167 -19 139.5c0 55.333 7.5 105.333 22.5 150s36.667 82.834 65 114.501s62.833 56 103.5 73s86.334 25.5 137.001 25.5c72 0 131.167 -16.333 177.5 -49s80.833 -79.334 103.5 -140.001l-113 -40
c-13.333 39.333 -33.666 71 -60.999 95s-64 36 -110 36c-32.667 0 -61.667 -6.33301 -87 -19s-46.5 -30.667 -63.5 -54s-30 -51.333 -39 -84s-13.5 -68.667 -13.5 -108s4.33301 -75.166 13 -107.499s21.667 -60.166 39 -83.499s38.5 -41.5 63.5 -54.5
s54.167 -19.5 87.5 -19.5c44 0 79.667 11.333 107 34s48.333 54 63 94l112 -41c-23.333 -56.667 -57.5 -101.334 -102.5 -134.001s-102.833 -49.667 -173.5 -51l-17 -40c3.33301 1.33301 7.5 2.66602 12.5 3.99902s10.5 2 16.5 2c22.667 0 42 -7.16699 58 -21.5
s24 -35.5 24 -63.5c0 -31.333 -10.667 -55.5 -32 -72.5s-47.666 -25.5 -78.999 -25.5c-22.667 0 -41 3.5 -55 10.5s-24.333 13.833 -31 20.5z" />
    <glyph glyph-name="Egrave" unicode="&#xc8;" horiz-adv-x="575" 
d="M178 857l50 82l189 -131l-37 -60zM81 0v700h443v-97h-326v-194h304v-97h-304v-215h332v-97h-449z" />
    <glyph glyph-name="Eacute" unicode="&#xc9;" horiz-adv-x="575" 
d="M436 857l-202 -109l-37 60l189 131zM81 0v700h443v-97h-326v-194h304v-97h-304v-215h332v-97h-449z" />
    <glyph glyph-name="Ecircumflex" unicode="&#xca;" horiz-adv-x="575" 
d="M81 0v700h443v-97h-326v-194h304v-97h-304v-215h332v-97h-449zM261 912h85l115 -115l-54 -52l-104 101l-101 -101l-54 52z" />
    <glyph glyph-name="Edieresis" unicode="&#xcb;" horiz-adv-x="575" 
d="M343 830c0 18 6 33 18 45s27.667 18 47 18s35 -6 47 -18s18 -27 18 -45s-6 -33 -18 -45s-27.667 -18 -47 -18s-35 6 -47 18s-18 27 -18 45zM139 830c0 18 6 33 18 45s27.667 18 47 18s35 -6 47 -18s18 -27 18 -45s-6 -33 -18 -45s-27.667 -18 -47 -18s-35 6 -47 18
s-18 27 -18 45zM81 0v700h443v-97h-326v-194h304v-97h-304v-215h332v-97h-449z" />
    <glyph glyph-name="Igrave" unicode="&#xcc;" horiz-adv-x="281" 
d="M81 700h118v-700h-118v700zM25 857l50 82l189 -131l-37 -60z" />
    <glyph glyph-name="Iacute" unicode="&#xcd;" horiz-adv-x="281" 
d="M81 700h118v-700h-118v700zM255 857l-202 -109l-37 60l189 131z" />
    <glyph glyph-name="Icircumflex" unicode="&#xce;" horiz-adv-x="281" 
d="M81 700h118v-700h-118v700zM97 912h85l115 -115l-54 -52l-104 101l-101 -101l-54 52z" />
    <glyph glyph-name="Idieresis" unicode="&#xcf;" horiz-adv-x="281" 
d="M81 700h118v-700h-118v700zM177 830c0 18 6 33 18 45s27.667 18 47 18s35 -6 47 -18s18 -27 18 -45s-6 -33 -18 -45s-27.667 -18 -47 -18s-35 6 -47 18s-18 27 -18 45zM-27 830c0 18 6 33 18 45s27.667 18 47 18s35 -6 47 -18s18 -27 18 -45s-6 -33 -18 -45
s-27.667 -18 -47 -18s-35 6 -47 18s-18 27 -18 45z" />
    <glyph glyph-name="Eth" unicode="&#xd0;" horiz-adv-x="726" 
d="M100 321l-81 -0.00195312v85h81v294h248c51.333 0 97.333 -7.83301 138 -23.5s75.334 -38.5 104.001 -68.5s50.5 -66.667 65.5 -110s22.5 -92.666 22.5 -147.999s-7.5 -104.666 -22.5 -147.999s-36.833 -80 -65.5 -110s-63.334 -52.833 -104.001 -68.5
s-86.667 -23.5 -138 -23.5h-248v321zM556 349.998c0 38 -4.16699 72.5 -12.5 103.5s-21.333 57.667 -39 80s-40.167 39.5 -67.5 51.5s-60 18 -98 18h-120v-197h165v-85h-165v-224h120c38 0 70.667 6 98 18s49.833 29.167 67.5 51.5s30.667 49 39 80s12.5 65.5 12.5 103.5z
" />
    <glyph glyph-name="Ntilde" unicode="&#xd1;" horiz-adv-x="726" 
d="M289 892c18 0 33.3301 -2.83203 45.9971 -8.49902s24.334 -11.667 35.001 -18s20.667 -12.333 30 -18s19.666 -8.5 30.999 -8.5c10.667 0 19.5 2.5 26.5 7.5s13.167 10.5 18.5 16.5c5.33301 7.33301 10 15.666 14 24.999l56 -49
c-7.33301 -14 -16.666 -26.333 -27.999 -37c-9.33301 -9.33301 -21.5 -17.833 -36.5 -25.5s-33.167 -11.5 -54.5 -11.5c-17.333 0 -32.333 2.66699 -45 8s-24.167 11.333 -34.5 18s-20.333 12.667 -30 18s-20.167 8 -31.5 8s-20.666 -2.5 -27.999 -7.5
s-13.333 -10.5 -18 -16.5c-5.33301 -7.33301 -9.66602 -15 -12.999 -23l-56 49c6.66699 13.333 15.667 25.333 27 36c9.33301 9.33301 21.5 17.833 36.5 25.5s33.167 11.5 54.5 11.5zM80.9971 700.001h124c48 -76 93.333 -147.333 136 -214
c18 -28.667 36.333 -57.667 55 -87s36.5 -57.5 53.5 -84.5s32.5 -51.833 46.5 -74.5s25.667 -41 35 -55h3v515h111v-700h-124c-47.333 74.667 -92 145 -134 211c-18 28 -36.333 56.833 -55 86.5s-36.5 58 -53.5 85s-32.667 52 -47 75s-26.5 42.167 -36.5 57.5h-3v-515h-111
v700z" />
    <glyph glyph-name="Ograve" unicode="&#xd2;" horiz-adv-x="749" 
d="M257 857l50 82l189 -131l-37 -60zM48 350c0 56 7.83301 106.5 23.5 151.5s37.834 83.167 66.501 114.5s63 55.333 103 72s84.333 25 133 25s93.167 -8.33301 133.5 -25s74.833 -40.667 103.5 -72s50.834 -69.5 66.501 -114.5s23.5 -95.5 23.5 -151.5
s-7.83301 -106.5 -23.5 -151.5s-37.834 -83.167 -66.501 -114.5s-63.167 -55.333 -103.5 -72s-84.833 -25 -133.5 -25s-93 8.33301 -133 25s-74.333 40.667 -103 72s-50.834 69.5 -66.501 114.5s-23.5 95.5 -23.5 151.5zM170 350c0 -38 4.16699 -73.333 12.5 -106
s21 -60.834 38 -84.501s38.333 -42.167 64 -55.5s55.5 -20 89.5 -20c34.667 0 64.834 6.66699 90.501 20s47 31.833 64 55.5s29.667 51.834 38 84.501s12.5 68 12.5 106s-4.16699 73.333 -12.5 106s-21 60.834 -38 84.501s-38.333 42.167 -64 55.5s-55.834 20 -90.501 20
c-34 0 -63.833 -6.66699 -89.5 -20s-47 -31.833 -64 -55.5s-29.667 -51.834 -38 -84.501s-12.5 -68 -12.5 -106z" />
    <glyph glyph-name="Oacute" unicode="&#xd3;" horiz-adv-x="749" 
d="M492 857l-202 -109l-37 60l189 131zM48 350c0 56 7.83301 106.5 23.5 151.5s37.834 83.167 66.501 114.5s63 55.333 103 72s84.333 25 133 25s93.167 -8.33301 133.5 -25s74.833 -40.667 103.5 -72s50.834 -69.5 66.501 -114.5s23.5 -95.5 23.5 -151.5
s-7.83301 -106.5 -23.5 -151.5s-37.834 -83.167 -66.501 -114.5s-63.167 -55.333 -103.5 -72s-84.833 -25 -133.5 -25s-93 8.33301 -133 25s-74.333 40.667 -103 72s-50.834 69.5 -66.501 114.5s-23.5 95.5 -23.5 151.5zM170 350c0 -38 4.16699 -73.333 12.5 -106
s21 -60.834 38 -84.501s38.333 -42.167 64 -55.5s55.5 -20 89.5 -20c34.667 0 64.834 6.66699 90.501 20s47 31.833 64 55.5s29.667 51.834 38 84.501s12.5 68 12.5 106s-4.16699 73.333 -12.5 106s-21 60.834 -38 84.501s-38.333 42.167 -64 55.5s-55.834 20 -90.501 20
c-34 0 -63.833 -6.66699 -89.5 -20s-47 -31.833 -64 -55.5s-29.667 -51.834 -38 -84.501s-12.5 -68 -12.5 -106z" />
    <glyph glyph-name="Ocircumflex" unicode="&#xd4;" horiz-adv-x="749" 
d="M48 350c0 56 7.83301 106.5 23.5 151.5s37.834 83.167 66.501 114.5s63 55.333 103 72s84.333 25 133 25s93.167 -8.33301 133.5 -25s74.833 -40.667 103.5 -72s50.834 -69.5 66.501 -114.5s23.5 -95.5 23.5 -151.5s-7.83301 -106.5 -23.5 -151.5
s-37.834 -83.167 -66.501 -114.5s-63.167 -55.333 -103.5 -72s-84.833 -25 -133.5 -25s-93 8.33301 -133 25s-74.333 40.667 -103 72s-50.834 69.5 -66.501 114.5s-23.5 95.5 -23.5 151.5zM170 350c0 -38 4.16699 -73.333 12.5 -106s21 -60.834 38 -84.501
s38.333 -42.167 64 -55.5s55.5 -20 89.5 -20c34.667 0 64.834 6.66699 90.501 20s47 31.833 64 55.5s29.667 51.834 38 84.501s12.5 68 12.5 106s-4.16699 73.333 -12.5 106s-21 60.834 -38 84.501s-38.333 42.167 -64 55.5s-55.834 20 -90.501 20
c-34 0 -63.833 -6.66699 -89.5 -20s-47 -31.833 -64 -55.5s-29.667 -51.834 -38 -84.501s-12.5 -68 -12.5 -106zM332 912h85l115 -115l-54 -52l-104 101l-101 -101l-54 52z" />
    <glyph glyph-name="Otilde" unicode="&#xd5;" horiz-adv-x="749" 
d="M305 892c18 0 33.3301 -2.83203 45.9971 -8.49902s24.334 -11.667 35.001 -18s20.667 -12.333 30 -18s19.666 -8.5 30.999 -8.5c10.667 0 19.5 2.5 26.5 7.5s13.167 10.5 18.5 16.5c5.33301 7.33301 10 15.666 14 24.999l56 -49
c-7.33301 -14 -16.666 -26.333 -27.999 -37c-9.33301 -9.33301 -21.5 -17.833 -36.5 -25.5s-33.167 -11.5 -54.5 -11.5c-17.333 0 -32.333 2.66699 -45 8s-24.167 11.333 -34.5 18s-20.333 12.667 -30 18s-20.167 8 -31.5 8s-20.666 -2.5 -27.999 -7.5
s-13.333 -10.5 -18 -16.5c-5.33301 -7.33301 -9.66602 -15 -12.999 -23l-56 49c6.66699 13.333 15.667 25.333 27 36c9.33301 9.33301 21.5 17.833 36.5 25.5s33.167 11.5 54.5 11.5zM47.9971 350.001c0 56 7.83301 106.5 23.5 151.5s37.834 83.167 66.501 114.5
s63 55.333 103 72s84.333 25 133 25s93.167 -8.33301 133.5 -25s74.833 -40.667 103.5 -72s50.834 -69.5 66.501 -114.5s23.5 -95.5 23.5 -151.5s-7.83301 -106.5 -23.5 -151.5s-37.834 -83.167 -66.501 -114.5s-63.167 -55.333 -103.5 -72s-84.833 -25 -133.5 -25
s-93 8.33301 -133 25s-74.333 40.667 -103 72s-50.834 69.5 -66.501 114.5s-23.5 95.5 -23.5 151.5zM169.997 350.001c0 -38 4.16699 -73.333 12.5 -106s21 -60.834 38 -84.501s38.333 -42.167 64 -55.5s55.5 -20 89.5 -20c34.667 0 64.834 6.66699 90.501 20
s47 31.833 64 55.5s29.667 51.834 38 84.501s12.5 68 12.5 106s-4.16699 73.333 -12.5 106s-21 60.834 -38 84.501s-38.333 42.167 -64 55.5s-55.834 20 -90.501 20c-34 0 -63.833 -6.66699 -89.5 -20s-47 -31.833 -64 -55.5s-29.667 -51.834 -38 -84.501
s-12.5 -68 -12.5 -106z" />
    <glyph glyph-name="Odieresis" unicode="&#xd6;" horiz-adv-x="749" 
d="M412 830c0 18 6 33 18 45s27.667 18 47 18s35 -6 47 -18s18 -27 18 -45s-6 -33 -18 -45s-27.667 -18 -47 -18s-35 6 -47 18s-18 27 -18 45zM208 830c0 18 6 33 18 45s27.667 18 47 18s35 -6 47 -18s18 -27 18 -45s-6 -33 -18 -45s-27.667 -18 -47 -18s-35 6 -47 18
s-18 27 -18 45zM48 350c0 56 7.83301 106.5 23.5 151.5s37.834 83.167 66.501 114.5s63 55.333 103 72s84.333 25 133 25s93.167 -8.33301 133.5 -25s74.833 -40.667 103.5 -72s50.834 -69.5 66.501 -114.5s23.5 -95.5 23.5 -151.5s-7.83301 -106.5 -23.5 -151.5
s-37.834 -83.167 -66.501 -114.5s-63.167 -55.333 -103.5 -72s-84.833 -25 -133.5 -25s-93 8.33301 -133 25s-74.333 40.667 -103 72s-50.834 69.5 -66.501 114.5s-23.5 95.5 -23.5 151.5zM170 350c0 -38 4.16699 -73.333 12.5 -106s21 -60.834 38 -84.501
s38.333 -42.167 64 -55.5s55.5 -20 89.5 -20c34.667 0 64.834 6.66699 90.501 20s47 31.833 64 55.5s29.667 51.834 38 84.501s12.5 68 12.5 106s-4.16699 73.333 -12.5 106s-21 60.834 -38 84.501s-38.333 42.167 -64 55.5s-55.834 20 -90.501 20
c-34 0 -63.833 -6.66699 -89.5 -20s-47 -31.833 -64 -55.5s-29.667 -51.834 -38 -84.501s-12.5 -68 -12.5 -106z" />
    <glyph glyph-name="multiply" unicode="&#xd7;" 
d="M465 94l-166 165l-164 -165l-65 64l165 165l-165 166l64 65l165 -166l166 166l65 -65l-166 -166l165 -165z" />
    <glyph glyph-name="Oslash" unicode="&#xd8;" horiz-adv-x="749" 
d="M48 350c0 56 7.83203 106.502 23.499 151.502s37.834 83.167 66.501 114.5s63 55.333 103 72s84.333 25 133 25c30 0 58.5 -3.33301 85.5 -10s52.167 -16.334 75.5 -29.001l53 85l66 -39l-57 -91c32.667 -31.333 58.167 -70.5 76.5 -117.5s27.5 -100.833 27.5 -161.5
c0 -56 -7.83301 -106.5 -23.5 -151.5s-37.834 -83.167 -66.501 -114.5s-63.167 -55.333 -103.5 -72s-84.833 -25 -133.5 -25c-59.333 0 -112 12.333 -158 37l-55 -87l-66 39l58 92c-33.333 32 -59.166 71.667 -77.499 119s-27.5 101.666 -27.5 162.999zM169.999 350.002
c0 -36.667 3.66699 -70.499 11 -101.499s18.666 -58.167 33.999 -81.5l265 420c-14.667 9.33301 -30.667 16.5 -48 21.5s-36.666 7.5 -57.999 7.5c-34 0 -63.833 -6.66699 -89.5 -20s-47 -31.833 -64 -55.5s-29.667 -51.834 -38 -84.501s-12.5 -68 -12.5 -106z
M578.999 350.003c0 36 -3.66797 69.167 -11.001 99.5s-18.333 57.166 -33 80.499l-264 -419c28 -18 62.333 -27 103 -27c34.667 0 64.834 6.66699 90.501 20s47 31.833 64 55.5s29.667 51.834 38 84.501s12.5 68 12.5 106z" />
    <glyph glyph-name="Ugrave" unicode="&#xd9;" horiz-adv-x="688" 
d="M215 857l50 82l189 -131l-37 -60zM344 -13c-92 0 -159.5 23 -202.5 69s-64.5 111.667 -64.5 197v447h118v-448c0 -22.667 2.66699 -44.167 8 -64.5s13.833 -38.166 25.5 -53.499s27 -27.5 46 -36.5s42.167 -13.5 69.5 -13.5s50.5 4.5 69.5 13.5s34.333 21.167 46 36.5
s20.167 33.166 25.5 53.499s8 41.833 8 64.5v448h118v-447c0 -85.333 -21.5 -151 -64.5 -197s-110.5 -69 -202.5 -69z" />
    <glyph glyph-name="Uacute" unicode="&#xda;" horiz-adv-x="688" 
d="M472 857l-202 -109l-37 60l189 131zM344 -13c-92 0 -159.5 23 -202.5 69s-64.5 111.667 -64.5 197v447h118v-448c0 -22.667 2.66699 -44.167 8 -64.5s13.833 -38.166 25.5 -53.499s27 -27.5 46 -36.5s42.167 -13.5 69.5 -13.5s50.5 4.5 69.5 13.5s34.333 21.167 46 36.5
s20.167 33.166 25.5 53.499s8 41.833 8 64.5v448h118v-447c0 -85.333 -21.5 -151 -64.5 -197s-110.5 -69 -202.5 -69z" />
    <glyph glyph-name="Ucircumflex" unicode="&#xdb;" horiz-adv-x="688" 
d="M344 -13c-92 0 -159.5 23 -202.5 69s-64.5 111.667 -64.5 197v447h118v-448c0 -22.667 2.66699 -44.167 8 -64.5s13.833 -38.166 25.5 -53.499s27 -27.5 46 -36.5s42.167 -13.5 69.5 -13.5s50.5 4.5 69.5 13.5s34.333 21.167 46 36.5s20.167 33.166 25.5 53.499
s8 41.833 8 64.5v448h118v-447c0 -85.333 -21.5 -151 -64.5 -197s-110.5 -69 -202.5 -69zM301 912h85l115 -115l-54 -52l-104 101l-101 -101l-54 52z" />
    <glyph glyph-name="Udieresis" unicode="&#xdc;" horiz-adv-x="688" 
d="M381 830c0 18 6 33 18 45s27.667 18 47 18s35 -6 47 -18s18 -27 18 -45s-6 -33 -18 -45s-27.667 -18 -47 -18s-35 6 -47 18s-18 27 -18 45zM177 830c0 18 6 33 18 45s27.667 18 47 18s35 -6 47 -18s18 -27 18 -45s-6 -33 -18 -45s-27.667 -18 -47 -18s-35 6 -47 18
s-18 27 -18 45zM344 -13c-92 0 -159.5 23 -202.5 69s-64.5 111.667 -64.5 197v447h118v-448c0 -22.667 2.66699 -44.167 8 -64.5s13.833 -38.166 25.5 -53.499s27 -27.5 46 -36.5s42.167 -13.5 69.5 -13.5s50.5 4.5 69.5 13.5s34.333 21.167 46 36.5
s20.167 33.166 25.5 53.499s8 41.833 8 64.5v448h118v-447c0 -85.333 -21.5 -151 -64.5 -197s-110.5 -69 -202.5 -69z" />
    <glyph glyph-name="Yacute" unicode="&#xdd;" horiz-adv-x="658" 
d="M269 300l-259 400h136l186 -292l186 292h130l-260 -400v-300h-119v300zM474 857l-202 -109l-37 60l189 131z" />
    <glyph glyph-name="Thorn" unicode="&#xde;" horiz-adv-x="622" 
d="M81 0l-0.000976562 700h118v-120h136c38.667 0 73.834 -4 105.501 -12s58.834 -20.667 81.501 -38s40 -39.5 52 -66.5s18 -59.5 18 -97.5c0 -37.333 -6.33301 -69.833 -19 -97.5s-30.334 -50.5 -53.001 -68.5s-49.667 -31.5 -81 -40.5s-66 -13.5 -104 -13.5h-136v-146
h-118zM471.999 366c0 44 -12.667 74.668 -38 92.001s-64.333 26 -117 26h-118v-241h118c52 0 90.833 9.66699 116.5 29s38.5 50.666 38.5 93.999z" />
    <glyph glyph-name="germandbls" unicode="&#xdf;" horiz-adv-x="575" 
d="M72 484c0 30 3.66406 58.8311 10.9971 86.498s19.5 52 36.5 73s39.167 37.833 66.5 50.5s61 19 101 19c35.333 0 66.5 -5 93.5 -15s49.5 -23.667 67.5 -41s31.5 -37.333 40.5 -60s13.5 -46.667 13.5 -72c0 -36.667 -9 -68.334 -27 -95.001s-42.333 -45.667 -73 -57
c38 -9.33301 69.833 -29.166 95.5 -59.499s38.5 -69.5 38.5 -117.5c0 -32 -5.5 -61 -16.5 -87s-26 -48 -45 -66s-41.5 -31.833 -67.5 -41.5s-54.333 -14.5 -85 -14.5c-17.333 0 -32.666 1.5 -45.999 4.5s-25.666 6.83301 -36.999 11.5v90
c10 -5.33301 22.167 -9.5 36.5 -12.5s27.166 -4.5 38.499 -4.5c32.667 0 58.667 10.833 78 32.5s29 51.5 29 89.5s-11.667 69 -35 93s-56.666 36 -99.999 36c-3.33301 0 -6.5 -0.166992 -9.5 -0.5s-5.83301 -0.5 -8.5 -0.5h-8v86c2.66699 -0.666992 5.33398 -1 8.00098 -1
h17c34.667 0 60.667 10.833 78 32.5s26 47.834 26 78.501c0 33.333 -9.33301 58.833 -28 76.5s-43 26.5 -73 26.5c-19.333 0 -35.5 -3.66699 -48.5 -11s-23.5 -17.333 -31.5 -30s-13.833 -27.667 -17.5 -45s-5.5 -35.666 -5.5 -54.999v-484h-113v484z" />
    <glyph glyph-name="agrave" unicode="&#xe0;" horiz-adv-x="518" 
d="M356 0c-2.66699 4.66699 -5.00098 12.667 -7.00098 24s-3 23.666 -3 36.999c-15.333 -22 -34.833 -39.833 -58.5 -53.5s-54.5 -20.5 -92.5 -20.5c-48 0 -86.5 12 -115.5 36s-43.5 57 -43.5 99c0 32 8.5 58.5 25.5 79.5s39.667 37.833 68 50.5s61 21.667 98 27
s75.833 8 116.5 8v30c0 25.333 -7 45.833 -21 61.5s-36 23.5 -66 23.5s-52.333 -7.33301 -67 -22s-22.334 -32 -23.001 -52l-110 16c2.66699 23.333 9.83398 43.833 21.501 61.5s26.667 32.5 45 44.5s39.333 21.167 63 27.5s48.5 9.5 74.5 9.5
c28.667 0 54.834 -3.66699 78.501 -11s44 -18.166 61 -32.499s30.333 -32.166 40 -53.499s14.5 -46.333 14.5 -75v-250c0 -14.667 1 -26.834 3 -36.501s4.66699 -19.167 8 -28.5h-110zM225.999 71c14.667 0 29.166 2.33203 43.499 6.99902s27 11.5 38 20.5
s19.833 19.833 26.5 32.5s10 27.334 10 44.001v39c-58.667 0 -106 -6.33301 -142 -19s-54 -34.667 -54 -66c0 -19.333 7.33301 -33.833 22 -43.5s33.334 -14.5 56.001 -14.5zM141.998 640.999l50 82l189 -131l-37 -60z" />
    <glyph glyph-name="aacute" unicode="&#xe1;" horiz-adv-x="518" 
d="M356 0c-2.66699 4.66699 -5.00098 12.667 -7.00098 24s-3 23.666 -3 36.999c-15.333 -22 -34.833 -39.833 -58.5 -53.5s-54.5 -20.5 -92.5 -20.5c-48 0 -86.5 12 -115.5 36s-43.5 57 -43.5 99c0 32 8.5 58.5 25.5 79.5s39.667 37.833 68 50.5s61 21.667 98 27
s75.833 8 116.5 8v30c0 25.333 -7 45.833 -21 61.5s-36 23.5 -66 23.5s-52.333 -7.33301 -67 -22s-22.334 -32 -23.001 -52l-110 16c2.66699 23.333 9.83398 43.833 21.501 61.5s26.667 32.5 45 44.5s39.333 21.167 63 27.5s48.5 9.5 74.5 9.5
c28.667 0 54.834 -3.66699 78.501 -11s44 -18.166 61 -32.499s30.333 -32.166 40 -53.499s14.5 -46.333 14.5 -75v-250c0 -14.667 1 -26.834 3 -36.501s4.66699 -19.167 8 -28.5h-110zM225.999 71c14.667 0 29.166 2.33203 43.499 6.99902s27 11.5 38 20.5
s19.833 19.833 26.5 32.5s10 27.334 10 44.001v39c-58.667 0 -106 -6.33301 -142 -19s-54 -34.667 -54 -66c0 -19.333 7.33301 -33.833 22 -43.5s33.334 -14.5 56.001 -14.5zM376.998 640.999l-202 -109l-37 60l189 131z" />
    <glyph glyph-name="acircumflex" unicode="&#xe2;" horiz-adv-x="518" 
d="M356 0c-2.66699 4.66699 -5.00098 12.667 -7.00098 24s-3 23.666 -3 36.999c-15.333 -22 -34.833 -39.833 -58.5 -53.5s-54.5 -20.5 -92.5 -20.5c-48 0 -86.5 12 -115.5 36s-43.5 57 -43.5 99c0 32 8.5 58.5 25.5 79.5s39.667 37.833 68 50.5s61 21.667 98 27
s75.833 8 116.5 8v30c0 25.333 -7 45.833 -21 61.5s-36 23.5 -66 23.5s-52.333 -7.33301 -67 -22s-22.334 -32 -23.001 -52l-110 16c2.66699 23.333 9.83398 43.833 21.501 61.5s26.667 32.5 45 44.5s39.333 21.167 63 27.5s48.5 9.5 74.5 9.5
c28.667 0 54.834 -3.66699 78.501 -11s44 -18.166 61 -32.499s30.333 -32.166 40 -53.499s14.5 -46.333 14.5 -75v-250c0 -14.667 1 -26.834 3 -36.501s4.66699 -19.167 8 -28.5h-110zM225.999 71c14.667 0 29.166 2.33203 43.499 6.99902s27 11.5 38 20.5
s19.833 19.833 26.5 32.5s10 27.334 10 44.001v39c-58.667 0 -106 -6.33301 -142 -19s-54 -34.667 -54 -66c0 -19.333 7.33301 -33.833 22 -43.5s33.334 -14.5 56.001 -14.5zM218.998 705.999h74l115 -128l-55 -50l-98 106l-98 -106l-53 50z" />
    <glyph glyph-name="atilde" unicode="&#xe3;" horiz-adv-x="518" 
d="M356 0c-2.66699 4.66699 -5.00098 12.667 -7.00098 24s-3 23.666 -3 36.999c-15.333 -22 -34.833 -39.833 -58.5 -53.5s-54.5 -20.5 -92.5 -20.5c-48 0 -86.5 12 -115.5 36s-43.5 57 -43.5 99c0 32 8.5 58.5 25.5 79.5s39.667 37.833 68 50.5s61 21.667 98 27
s75.833 8 116.5 8v30c0 25.333 -7 45.833 -21 61.5s-36 23.5 -66 23.5s-52.333 -7.33301 -67 -22s-22.334 -32 -23.001 -52l-110 16c2.66699 23.333 9.83398 43.833 21.501 61.5s26.667 32.5 45 44.5s39.333 21.167 63 27.5s48.5 9.5 74.5 9.5
c28.667 0 54.834 -3.66699 78.501 -11s44 -18.166 61 -32.499s30.333 -32.166 40 -53.499s14.5 -46.333 14.5 -75v-250c0 -14.667 1 -26.834 3 -36.501s4.66699 -19.167 8 -28.5h-110zM225.999 71c14.667 0 29.166 2.33203 43.499 6.99902s27 11.5 38 20.5
s19.833 19.833 26.5 32.5s10 27.334 10 44.001v39c-58.667 0 -106 -6.33301 -142 -19s-54 -34.667 -54 -66c0 -19.333 7.33301 -33.833 22 -43.5s33.334 -14.5 56.001 -14.5zM190.998 674.999c18 0 33.3301 -2.83203 45.9971 -8.49902s24.334 -11.667 35.001 -18
s20.667 -12.333 30 -18s19.666 -8.5 30.999 -8.5c10.667 0 19.5 2.5 26.5 7.5s13.167 10.5 18.5 16.5c5.33301 7.33301 10 15.666 14 24.999l56 -49c-7.33301 -14 -16.666 -26.333 -27.999 -37c-9.33301 -9.33301 -21.5 -17.833 -36.5 -25.5s-33.167 -11.5 -54.5 -11.5
c-17.333 0 -32.333 2.83301 -45 8.5s-24.167 11.667 -34.5 18s-20.333 12.333 -30 18s-20.167 8.5 -31.5 8.5s-20.666 -2.5 -27.999 -7.5s-13.333 -10.5 -18 -16.5c-5.33301 -7.33301 -9.66602 -15.333 -12.999 -24l-56 49c6.66699 13.333 15.667 25.333 27 36
c9.33301 9.33301 21.5 17.833 36.5 25.5s33.167 11.5 54.5 11.5z" />
    <glyph glyph-name="adieresis" unicode="&#xe4;" horiz-adv-x="518" 
d="M356 0c-2.66699 4.66699 -5.00098 12.667 -7.00098 24s-3 23.666 -3 36.999c-15.333 -22 -34.833 -39.833 -58.5 -53.5s-54.5 -20.5 -92.5 -20.5c-48 0 -86.5 12 -115.5 36s-43.5 57 -43.5 99c0 32 8.5 58.5 25.5 79.5s39.667 37.833 68 50.5s61 21.667 98 27
s75.833 8 116.5 8v30c0 25.333 -7 45.833 -21 61.5s-36 23.5 -66 23.5s-52.333 -7.33301 -67 -22s-22.334 -32 -23.001 -52l-110 16c2.66699 23.333 9.83398 43.833 21.501 61.5s26.667 32.5 45 44.5s39.333 21.167 63 27.5s48.5 9.5 74.5 9.5
c28.667 0 54.834 -3.66699 78.501 -11s44 -18.166 61 -32.499s30.333 -32.166 40 -53.499s14.5 -46.333 14.5 -75v-250c0 -14.667 1 -26.834 3 -36.501s4.66699 -19.167 8 -28.5h-110zM225.999 71c14.667 0 29.166 2.33203 43.499 6.99902s27 11.5 38 20.5
s19.833 19.833 26.5 32.5s10 27.334 10 44.001v39c-58.667 0 -106 -6.33301 -142 -19s-54 -34.667 -54 -66c0 -19.333 7.33301 -33.833 22 -43.5s33.334 -14.5 56.001 -14.5zM293.998 606.999c0 18.667 6 33.834 18 45.501s27.667 17.5 47 17.5s35 -5.83301 47 -17.5
s18 -26.834 18 -45.501c0 -17.333 -6 -32.166 -18 -44.499s-27.667 -18.5 -47 -18.5s-35 6.16699 -47 18.5s-18 27.166 -18 44.499zM89.998 606.999c0 18.667 6 33.834 18 45.501s27.667 17.5 47 17.5s35 -5.83301 47 -17.5s18 -26.834 18 -45.501
c0 -17.333 -6 -32.166 -18 -44.499s-27.667 -18.5 -47 -18.5s-35 6.16699 -47 18.5s-18 27.166 -18 44.499z" />
    <glyph glyph-name="aring" unicode="&#xe5;" horiz-adv-x="518" 
d="M356 0c-2.66699 4.66699 -5.00098 12.667 -7.00098 24s-3 23.666 -3 36.999c-15.333 -22 -34.833 -39.833 -58.5 -53.5s-54.5 -20.5 -92.5 -20.5c-48 0 -86.5 12 -115.5 36s-43.5 57 -43.5 99c0 32 8.5 58.5 25.5 79.5s39.667 37.833 68 50.5s61 21.667 98 27
s75.833 8 116.5 8v30c0 25.333 -7 45.833 -21 61.5s-36 23.5 -66 23.5s-52.333 -7.33301 -67 -22s-22.334 -32 -23.001 -52l-110 16c2.66699 23.333 9.83398 43.833 21.501 61.5s26.667 32.5 45 44.5s39.333 21.167 63 27.5s48.5 9.5 74.5 9.5
c28.667 0 54.834 -3.66699 78.501 -11s44 -18.166 61 -32.499s30.333 -32.166 40 -53.499s14.5 -46.333 14.5 -75v-250c0 -14.667 1 -26.834 3 -36.501s4.66699 -19.167 8 -28.5h-110zM225.999 71c14.667 0 29.166 2.33203 43.499 6.99902s27 11.5 38 20.5
s19.833 19.833 26.5 32.5s10 27.334 10 44.001v39c-58.667 0 -106 -6.33301 -142 -19s-54 -34.667 -54 -66c0 -19.333 7.33301 -33.833 22 -43.5s33.334 -14.5 56.001 -14.5zM153.998 628.999c0 29.333 9.66699 53.333 29 72s45 28 77 28s57.667 -9.33301 77 -28
s29 -42.667 29 -72c0 -28 -9.66699 -51.667 -29 -71s-45 -29 -77 -29s-57.667 9.66699 -77 29s-29 43 -29 71zM213.998 628.999c0 -12 4.33301 -22.667 13 -32s19.667 -14 33 -14s24.333 4.66699 33 14s13 20 13 32c0 13.333 -4.33301 24.166 -13 32.499
s-19.667 12.5 -33 12.5s-24.333 -4.16699 -33 -12.5s-13 -19.166 -13 -32.499z" />
    <glyph glyph-name="ae" unicode="&#xe6;" horiz-adv-x="820" 
d="M771 104c-18.667 -36 -44.333 -64.501 -77 -85.501s-74 -31.5 -124 -31.5c-40 0 -75 7.5 -105 22.5s-54.667 36.5 -74 64.5c-20.667 -28 -45.5 -49.5 -74.5 -64.5s-65.5 -22.5 -109.5 -22.5c-54 0 -96 12.167 -126 36.5s-45 57.5 -45 99.5c0 30.667 8.5 56.5 25.5 77.5
s39.667 38 68 51s61 22.167 98 27.5s75.833 8 116.5 8v30c0 25.333 -7 45.833 -21 61.5s-36 23.5 -66 23.5s-52.333 -7.33301 -67 -22s-22.334 -32 -23.001 -52l-110 16c2.66699 23.333 9.83398 43.833 21.501 61.5s26.667 32.5 45 44.5s39.166 21.167 62.499 27.5
s48 9.5 74 9.5c33.333 0 63 -5.33301 89 -16s46.667 -26.667 62 -48c19.333 20 42 35.667 68 47s55 17 87 17c37.333 0 70 -6.66699 98 -20s51.167 -31.166 69.5 -53.499s32 -48.333 41 -78s13.5 -60.5 13.5 -92.5v-30h-339c0.666992 -18 3.33398 -35.5 8.00098 -52.5
s11.667 -32 21 -45s21.5 -23.5 36.5 -31.5s33.167 -12 54.5 -12c28 0 50 6.66699 66 20s28.667 30.333 38 51zM565.001 403.999c-34 0 -60.6689 -11 -80.002 -33s-30.666 -50.333 -33.999 -85h223c-1.33301 38 -12.166 67.167 -32.499 87.5s-45.833 30.5 -76.5 30.5z
M225.999 70.999c14.667 0 29.166 2.33105 43.499 6.99805s27 11.334 38 20.001s19.833 19.334 26.5 32.001s10 27.334 10 44.001v39c-58.667 0 -106 -6.33301 -142 -19s-54 -34.334 -54 -65.001c0 -19.333 7.33301 -33.833 22 -43.5s33.334 -14.5 56.001 -14.5z" />
    <glyph glyph-name="ccedilla" unicode="&#xe7;" horiz-adv-x="503" 
d="M199 -154c5.33301 -5.33301 12.498 -9.99707 21.498 -13.9971s19.5 -6 31.5 -6c13.333 0 23.5 3.66699 30.5 11s10.5 17 10.5 29s-3.66699 21 -11 27s-16.666 9 -27.999 9c-16.667 0 -29.667 -4.66699 -39 -14l-30 32l32 73c-55.333 11.333 -98.833 38.5 -130.5 81.5
s-47.5 97.167 -47.5 162.5c0 37.333 5.5 71.333 16.5 102s26.667 57 47 79s45 39 74 51s61.833 18 98.5 18c27.333 0 51.5 -3.33301 72.5 -10s39.5 -15.834 55.5 -27.501s29.5 -25.5 40.5 -41.5s20.5 -33.333 28.5 -52l-103 -39
c-6.66699 25.333 -18.167 45.166 -34.5 59.499s-37.833 21.5 -64.5 21.5c-20 0 -37.167 -4.5 -51.5 -13.5s-26.166 -20.833 -35.499 -35.5s-16.166 -31.834 -20.499 -51.501s-6.5 -39.834 -6.5 -60.501s2.16699 -40.5 6.5 -59.5s11.166 -36 20.499 -51
s21.166 -27 35.499 -36s31.833 -13.5 52.5 -13.5c28 0 49.167 7.33301 63.5 22s25.833 32.667 34.5 54l105 -40c-9.33301 -17.333 -20.166 -33.666 -32.499 -48.999s-26.5 -28.666 -42.5 -39.999s-34.333 -20.333 -55 -27s-44.334 -10 -71.001 -10h-4l-17 -40
c3.33301 1.33301 7.5 2.66602 12.5 3.99902s10.5 2 16.5 2c22.667 0 42 -7.16699 58 -21.5s24 -35.5 24 -63.5c0 -31.333 -10.667 -55.5 -32 -72.5s-47.666 -25.5 -78.999 -25.5c-22.667 0 -41 3.5 -55 10.5s-24.333 13.833 -31 20.5z" />
    <glyph glyph-name="egrave" unicode="&#xe8;" horiz-adv-x="525" 
d="M476 104c-18.667 -36 -44.498 -64.502 -77.498 -85.502s-74.5 -31.5 -124.5 -31.5c-36 0 -68.5 6 -97.5 18s-53.667 29 -74 51s-36 48.333 -47 79s-16.5 65 -16.5 103c0 37.333 5.5 71.333 16.5 102s26.667 56.834 47 78.501s44.666 38.5 72.999 50.5s59.833 18 94.5 18
c38 0 71 -6.66699 99 -20s51.167 -31.166 69.5 -53.499s32 -48.333 41 -78s13.5 -60.5 13.5 -92.5v-32h-338c0.666992 -18 3.33398 -35.333 8.00098 -52s11.667 -31.5 21 -44.5s21.166 -23.333 35.499 -31s32.166 -11.5 53.499 -11.5c29.333 0 51.833 6.66699 67.5 20
s28.167 30.333 37.5 51zM269.002 403.998c-34 0 -60.333 -11 -79 -33s-29.667 -50.333 -33 -85h222c-1.33301 38 -12 67.167 -32 87.5s-46 30.5 -78 30.5zM143.002 640.998l50 82l189 -131l-37 -60z" />
    <glyph glyph-name="eacute" unicode="&#xe9;" horiz-adv-x="525" 
d="M386 641l-202 -109l-37 60l189 131zM476 104c-18.667 -36 -44.498 -64.502 -77.498 -85.502s-74.5 -31.5 -124.5 -31.5c-36 0 -68.5 6 -97.5 18s-53.667 29 -74 51s-36 48.333 -47 79s-16.5 65 -16.5 103c0 37.333 5.5 71.333 16.5 102s26.667 56.834 47 78.501
s44.666 38.5 72.999 50.5s59.833 18 94.5 18c38 0 71 -6.66699 99 -20s51.167 -31.166 69.5 -53.499s32 -48.333 41 -78s13.5 -60.5 13.5 -92.5v-32h-338c0.666992 -18 3.33398 -35.333 8.00098 -52s11.667 -31.5 21 -44.5s21.166 -23.333 35.499 -31
s32.166 -11.5 53.499 -11.5c29.333 0 51.833 6.66699 67.5 20s28.167 30.333 37.5 51zM269.002 403.998c-34 0 -60.333 -11 -79 -33s-29.667 -50.333 -33 -85h222c-1.33301 38 -12 67.167 -32 87.5s-46 30.5 -78 30.5z" />
    <glyph glyph-name="ecircumflex" unicode="&#xea;" horiz-adv-x="525" 
d="M230 706h74l115 -128l-55 -50l-98 106l-98 -106l-53 50zM476 104c-18.667 -36 -44.498 -64.502 -77.498 -85.502s-74.5 -31.5 -124.5 -31.5c-36 0 -68.5 6 -97.5 18s-53.667 29 -74 51s-36 48.333 -47 79s-16.5 65 -16.5 103c0 37.333 5.5 71.333 16.5 102
s26.667 56.834 47 78.501s44.666 38.5 72.999 50.5s59.833 18 94.5 18c38 0 71 -6.66699 99 -20s51.167 -31.166 69.5 -53.499s32 -48.333 41 -78s13.5 -60.5 13.5 -92.5v-32h-338c0.666992 -18 3.33398 -35.333 8.00098 -52s11.667 -31.5 21 -44.5
s21.166 -23.333 35.499 -31s32.166 -11.5 53.499 -11.5c29.333 0 51.833 6.66699 67.5 20s28.167 30.333 37.5 51zM269.002 403.998c-34 0 -60.333 -11 -79 -33s-29.667 -50.333 -33 -85h222c-1.33301 38 -12 67.167 -32 87.5s-46 30.5 -78 30.5z" />
    <glyph glyph-name="edieresis" unicode="&#xeb;" horiz-adv-x="525" 
d="M304 607c0 18.667 6 33.834 18 45.501s27.667 17.5 47 17.5s35 -5.83301 47 -17.5s18 -26.834 18 -45.501c0 -17.333 -6 -32.166 -18 -44.499s-27.667 -18.5 -47 -18.5s-35 6.16699 -47 18.5s-18 27.166 -18 44.499zM100 607c0 18.667 6 33.834 18 45.501
s27.667 17.5 47 17.5s35 -5.83301 47 -17.5s18 -26.834 18 -45.501c0 -17.333 -6 -32.166 -18 -44.499s-27.667 -18.5 -47 -18.5s-35 6.16699 -47 18.5s-18 27.166 -18 44.499zM476 104c-18.667 -36 -44.498 -64.502 -77.498 -85.502s-74.5 -31.5 -124.5 -31.5
c-36 0 -68.5 6 -97.5 18s-53.667 29 -74 51s-36 48.333 -47 79s-16.5 65 -16.5 103c0 37.333 5.5 71.333 16.5 102s26.667 56.834 47 78.501s44.666 38.5 72.999 50.5s59.833 18 94.5 18c38 0 71 -6.66699 99 -20s51.167 -31.166 69.5 -53.499s32 -48.333 41 -78
s13.5 -60.5 13.5 -92.5v-32h-338c0.666992 -18 3.33398 -35.333 8.00098 -52s11.667 -31.5 21 -44.5s21.166 -23.333 35.499 -31s32.166 -11.5 53.499 -11.5c29.333 0 51.833 6.66699 67.5 20s28.167 30.333 37.5 51zM269.002 403.998c-34 0 -60.333 -11 -79 -33
s-29.667 -50.333 -33 -85h222c-1.33301 38 -12 67.167 -32 87.5s-46 30.5 -78 30.5z" />
    <glyph glyph-name="igrave" unicode="&#xec;" horiz-adv-x="258" 
d="M72 474h114v-474h-114v474zM11 641l50 82l189 -131l-37 -60z" />
    <glyph glyph-name="iacute" unicode="&#xed;" horiz-adv-x="258" 
d="M247 641l-202 -109l-37 60l189 131zM72 474h114v-474h-114v474z" />
    <glyph glyph-name="icircumflex" unicode="&#xee;" horiz-adv-x="258" 
d="M91 706h74l115 -128l-55 -50l-98 106l-98 -106l-53 50zM72 474h114v-474h-114v474z" />
    <glyph glyph-name="idieresis" unicode="&#xef;" horiz-adv-x="258" 
d="M166 607c0 18.667 6 33.834 18 45.501s27.667 17.5 47 17.5s35 -5.83301 47 -17.5s18 -26.834 18 -45.501c0 -17.333 -6 -32.166 -18 -44.499s-27.667 -18.5 -47 -18.5s-35 6.16699 -47 18.5s-18 27.166 -18 44.499zM-38 607c0 18.667 6 33.834 18 45.501
s27.667 17.5 47 17.5s35 -5.83301 47 -17.5s18 -26.834 18 -45.501c0 -17.333 -6 -32.166 -18 -44.499s-27.667 -18.5 -47 -18.5s-35 6.16699 -47 18.5s-18 27.166 -18 44.499zM72 474h114v-474h-114v474z" />
    <glyph glyph-name="eth" unicode="&#xf0;" horiz-adv-x="554" 
d="M165 585l73 40.0029c-30 22.667 -64 40 -102 52l59 61c46 -12.667 88.667 -34.334 128 -65.001l79 44l34 -61l-59 -33c42 -46 75.5 -100.333 100.5 -163s37.5 -130.334 37.5 -203.001c0 -86.667 -20.5 -153.334 -61.5 -200.001s-99.167 -70 -174.5 -70
c-36.667 0 -69.834 5.66699 -99.501 17s-54.834 27.833 -75.501 49.5s-36.667 47.834 -48 78.501s-17 65.334 -17 104.001c0 38 5.5 72.167 16.5 102.5s26.333 56.166 46 77.499s42.667 37.666 69 48.999s54.833 17 85.5 17c26.667 0 50.834 -4.66699 72.501 -14
s39.167 -22.333 52.5 -39c-21.333 57.333 -50.666 106 -87.999 146l-93 -52zM156 235.003c0 -22.667 2.49902 -43.834 7.49902 -63.501s12.5 -36.667 22.5 -51s22.5 -25.666 37.5 -33.999s32.5 -12.5 52.5 -12.5c20.667 0 38.834 4.16699 54.501 12.5
s28.667 19.666 39 33.999s18 31.333 23 51s7.5 40.834 7.5 63.501c0 48.667 -10.5 87.5 -31.5 116.5s-51.833 43.5 -92.5 43.5c-20 0 -37.5 -4.16699 -52.5 -12.5s-27.5 -19.833 -37.5 -34.5s-17.5 -31.667 -22.5 -51s-7.5 -40 -7.5 -62z" />
    <glyph glyph-name="ntilde" unicode="&#xf1;" horiz-adv-x="565" 
d="M72 474h108.999v-72c14 24.667 33 45 57 61s54.667 24 92 24c22.667 0 44.334 -3.33301 65.001 -10s38.5 -16.667 53.5 -30s27 -30 36 -50s13.5 -43.333 13.5 -70v-327h-114v300c0 16.667 -2.5 31 -7.5 43s-11.667 21.833 -20 29.5s-17.833 13.167 -28.5 16.5
s-21.334 5 -32.001 5c-14 0 -27.667 -3 -41 -9s-25.166 -15 -35.499 -27s-18.5 -27 -24.5 -45s-9 -38.667 -9 -62v-251h-114v474zM221.999 675c18 0 33.3301 -2.83203 45.9971 -8.49902s24.334 -11.667 35.001 -18s20.667 -12.333 30 -18s19.666 -8.5 30.999 -8.5
c10.667 0 19.5 2.5 26.5 7.5s13.167 10.5 18.5 16.5c5.33301 7.33301 10 15.666 14 24.999l56 -49c-7.33301 -14 -16.666 -26.333 -27.999 -37c-9.33301 -9.33301 -21.5 -17.833 -36.5 -25.5s-33.167 -11.5 -54.5 -11.5c-17.333 0 -32.333 2.83301 -45 8.5
s-24.167 11.667 -34.5 18s-20.333 12.333 -30 18s-20.167 8.5 -31.5 8.5s-20.666 -2.5 -27.999 -7.5s-13.333 -10.5 -18 -16.5c-5.33301 -7.33301 -9.66602 -15.333 -12.999 -24l-56 49c6.66699 13.333 15.667 25.333 27 36c9.33301 9.33301 21.5 17.833 36.5 25.5
s33.167 11.5 54.5 11.5z" />
    <glyph glyph-name="ograve" unicode="&#xf2;" horiz-adv-x="553" 
d="M276 487c36.667 0 69.667 -6 99 -18s54.333 -29 75 -51s36.5 -48.333 47.5 -79s16.5 -64.667 16.5 -102s-5.5 -71.333 -16.5 -102s-26.833 -57 -47.5 -79s-45.667 -39 -75 -51s-62.333 -18 -99 -18s-69.667 6 -99 18s-54.166 29 -74.499 51s-36 48.333 -47 79
s-16.5 64.667 -16.5 102s5.5 71.333 16.5 102s26.667 57 47 79s45.166 39 74.499 51s62.333 18 99 18zM276 74c20.667 0 38.667 4.33301 54 13s28 20.334 38 35.001s17.5 31.834 22.5 51.501s7.5 40.834 7.5 63.501s-2.5 43.834 -7.5 63.501s-12.5 36.834 -22.5 51.501
s-22.667 26.334 -38 35.001s-33.333 13 -54 13s-38.5 -4.33301 -53.5 -13s-27.5 -20.334 -37.5 -35.001s-17.5 -31.834 -22.5 -51.501s-7.5 -40.834 -7.5 -63.501s2.5 -43.834 7.5 -63.501s12.5 -36.834 22.5 -51.501s22.5 -26.334 37.5 -35.001s32.833 -13 53.5 -13z
M160 641l50 82l189 -131l-37 -60z" />
    <glyph glyph-name="oacute" unicode="&#xf3;" horiz-adv-x="553" 
d="M397 641l-202 -109l-37 60l189 131zM276 487c36.667 0 69.667 -6 99 -18s54.333 -29 75 -51s36.5 -48.333 47.5 -79s16.5 -64.667 16.5 -102s-5.5 -71.333 -16.5 -102s-26.833 -57 -47.5 -79s-45.667 -39 -75 -51s-62.333 -18 -99 -18s-69.667 6 -99 18
s-54.166 29 -74.499 51s-36 48.333 -47 79s-16.5 64.667 -16.5 102s5.5 71.333 16.5 102s26.667 57 47 79s45.166 39 74.499 51s62.333 18 99 18zM276 74c20.667 0 38.667 4.33301 54 13s28 20.334 38 35.001s17.5 31.834 22.5 51.501s7.5 40.834 7.5 63.501
s-2.5 43.834 -7.5 63.501s-12.5 36.834 -22.5 51.501s-22.667 26.334 -38 35.001s-33.333 13 -54 13s-38.5 -4.33301 -53.5 -13s-27.5 -20.334 -37.5 -35.001s-17.5 -31.834 -22.5 -51.501s-7.5 -40.834 -7.5 -63.501s2.5 -43.834 7.5 -63.501s12.5 -36.834 22.5 -51.501
s22.5 -26.334 37.5 -35.001s32.833 -13 53.5 -13z" />
    <glyph glyph-name="ocircumflex" unicode="&#xf4;" horiz-adv-x="553" 
d="M240 706h74l115 -128l-55 -50l-98 106l-98 -106l-53 50zM276 487c36.667 0 69.667 -6 99 -18s54.333 -29 75 -51s36.5 -48.333 47.5 -79s16.5 -64.667 16.5 -102s-5.5 -71.333 -16.5 -102s-26.833 -57 -47.5 -79s-45.667 -39 -75 -51s-62.333 -18 -99 -18
s-69.667 6 -99 18s-54.166 29 -74.499 51s-36 48.333 -47 79s-16.5 64.667 -16.5 102s5.5 71.333 16.5 102s26.667 57 47 79s45.166 39 74.499 51s62.333 18 99 18zM276 74c20.667 0 38.667 4.33301 54 13s28 20.334 38 35.001s17.5 31.834 22.5 51.501
s7.5 40.834 7.5 63.501s-2.5 43.834 -7.5 63.501s-12.5 36.834 -22.5 51.501s-22.667 26.334 -38 35.001s-33.333 13 -54 13s-38.5 -4.33301 -53.5 -13s-27.5 -20.334 -37.5 -35.001s-17.5 -31.834 -22.5 -51.501s-7.5 -40.834 -7.5 -63.501s2.5 -43.834 7.5 -63.501
s12.5 -36.834 22.5 -51.501s22.5 -26.334 37.5 -35.001s32.833 -13 53.5 -13z" />
    <glyph glyph-name="otilde" unicode="&#xf5;" horiz-adv-x="553" 
d="M276 487c36.667 0 69.667 -6 99 -18s54.333 -29 75 -51s36.5 -48.333 47.5 -79s16.5 -64.667 16.5 -102s-5.5 -71.333 -16.5 -102s-26.833 -57 -47.5 -79s-45.667 -39 -75 -51s-62.333 -18 -99 -18s-69.667 6 -99 18s-54.166 29 -74.499 51s-36 48.333 -47 79
s-16.5 64.667 -16.5 102s5.5 71.333 16.5 102s26.667 57 47 79s45.166 39 74.499 51s62.333 18 99 18zM276 74c20.667 0 38.667 4.33301 54 13s28 20.334 38 35.001s17.5 31.834 22.5 51.501s7.5 40.834 7.5 63.501s-2.5 43.834 -7.5 63.501s-12.5 36.834 -22.5 51.501
s-22.667 26.334 -38 35.001s-33.333 13 -54 13s-38.5 -4.33301 -53.5 -13s-27.5 -20.334 -37.5 -35.001s-17.5 -31.834 -22.5 -51.501s-7.5 -40.834 -7.5 -63.501s2.5 -43.834 7.5 -63.501s12.5 -36.834 22.5 -51.501s22.5 -26.334 37.5 -35.001s32.833 -13 53.5 -13z
M207 675c18 0 33.3301 -2.83203 45.9971 -8.49902s24.334 -11.667 35.001 -18s20.667 -12.333 30 -18s19.666 -8.5 30.999 -8.5c10.667 0 19.5 2.5 26.5 7.5s13.167 10.5 18.5 16.5c5.33301 7.33301 10 15.666 14 24.999l56 -49c-7.33301 -14 -16.666 -26.333 -27.999 -37
c-9.33301 -9.33301 -21.5 -17.833 -36.5 -25.5s-33.167 -11.5 -54.5 -11.5c-17.333 0 -32.333 2.83301 -45 8.5s-24.167 11.667 -34.5 18s-20.333 12.333 -30 18s-20.167 8.5 -31.5 8.5s-20.666 -2.5 -27.999 -7.5s-13.333 -10.5 -18 -16.5
c-5.33301 -7.33301 -9.66602 -15.333 -12.999 -24l-56 49c6.66699 13.333 15.667 25.333 27 36c9.33301 9.33301 21.5 17.833 36.5 25.5s33.167 11.5 54.5 11.5z" />
    <glyph glyph-name="odieresis" unicode="&#xf6;" horiz-adv-x="553" 
d="M313 607c0 18.667 6 33.834 18 45.501s27.667 17.5 47 17.5s35 -5.83301 47 -17.5s18 -26.834 18 -45.501c0 -17.333 -6 -32.166 -18 -44.499s-27.667 -18.5 -47 -18.5s-35 6.16699 -47 18.5s-18 27.166 -18 44.499zM109 607c0 18.667 6 33.834 18 45.501
s27.667 17.5 47 17.5s35 -5.83301 47 -17.5s18 -26.834 18 -45.501c0 -17.333 -6 -32.166 -18 -44.499s-27.667 -18.5 -47 -18.5s-35 6.16699 -47 18.5s-18 27.166 -18 44.499zM276 487c36.667 0 69.667 -6 99 -18s54.333 -29 75 -51s36.5 -48.333 47.5 -79
s16.5 -64.667 16.5 -102s-5.5 -71.333 -16.5 -102s-26.833 -57 -47.5 -79s-45.667 -39 -75 -51s-62.333 -18 -99 -18s-69.667 6 -99 18s-54.166 29 -74.499 51s-36 48.333 -47 79s-16.5 64.667 -16.5 102s5.5 71.333 16.5 102s26.667 57 47 79s45.166 39 74.499 51
s62.333 18 99 18zM276 74c20.667 0 38.667 4.33301 54 13s28 20.334 38 35.001s17.5 31.834 22.5 51.501s7.5 40.834 7.5 63.501s-2.5 43.834 -7.5 63.501s-12.5 36.834 -22.5 51.501s-22.667 26.334 -38 35.001s-33.333 13 -54 13s-38.5 -4.33301 -53.5 -13
s-27.5 -20.334 -37.5 -35.001s-17.5 -31.834 -22.5 -51.501s-7.5 -40.834 -7.5 -63.501s2.5 -43.834 7.5 -63.501s12.5 -36.834 22.5 -51.501s22.5 -26.334 37.5 -35.001s32.833 -13 53.5 -13z" />
    <glyph glyph-name="divide" unicode="&#xf7;" 
d="M228 517c0 20.667 6.66699 37.5 20 50.5s30.666 19.5 51.999 19.5s38.666 -6.5 51.999 -19.5s20 -29.833 20 -50.5s-6.66699 -37.5 -20 -50.5s-30.666 -19.5 -51.999 -19.5s-38.666 6.5 -51.999 19.5s-20 29.833 -20 50.5zM52 370h496v-91h-496v91zM228 131
c0 20.667 6.66699 37.5 20 50.5s30.666 19.5 51.999 19.5s38.666 -6.5 51.999 -19.5s20 -29.833 20 -50.5s-6.66699 -37.5 -20 -50.5s-30.666 -19.5 -51.999 -19.5s-38.666 6.5 -51.999 19.5s-20 29.833 -20 50.5z" />
    <glyph glyph-name="oslash" unicode="&#xf8;" horiz-adv-x="553" 
d="M276 487c40.667 0 77.334 -7.66699 110.001 -23l45 71l58 -35l-47 -74c23.333 -22 41.166 -49 53.499 -81s18.5 -68 18.5 -108c0 -37.333 -5.5 -71.333 -16.5 -102s-26.833 -57 -47.5 -79s-45.667 -39 -75 -51s-62.333 -18 -99 -18c-37.333 0 -71.333 6.66699 -102 20
l-48 -75l-58 34l49 76c-25.333 22 -44.666 49.5 -57.999 82.5s-20 70.5 -20 112.5c0 37.333 5.5 71.333 16.5 102s26.667 57 47 79s45.166 39 74.499 51s62.333 18 99 18zM155 237c0 -39.333 7 -72.9971 21 -100.997l159 248c-18 10.667 -37.667 16 -59 16
c-20.667 0 -38.5 -4.33301 -53.5 -13s-27.5 -20.334 -37.5 -35.001s-17.5 -31.834 -22.5 -51.501s-7.5 -40.834 -7.5 -63.501zM276 74.0029c20.667 0 38.667 4.33008 54 12.9971s28 20.334 38 35.001s17.5 31.834 22.5 51.501s7.5 40.834 7.5 63.501
c0 34.667 -6 65.667 -18 93l-156 -244c14.667 -8 32 -12 52 -12z" />
    <glyph glyph-name="ugrave" unicode="&#xf9;" horiz-adv-x="560" 
d="M488 0h-108v71c-14.667 -24.667 -33.667 -44.834 -57 -60.501s-53.333 -23.5 -90 -23.5c-22.667 0 -44 3.33301 -64 10s-37.5 16.667 -52.5 30s-26.833 29.833 -35.5 49.5s-13 42.834 -13 69.501v328h113v-300c0 -34 8.83301 -58.167 26.5 -72.5s37.5 -21.5 59.5 -21.5
c14 0 27.5 3 40.5 9s24.5 15 34.5 27s18 27 24 45s9 38.667 9 62v251h113v-474zM148 641l50 82l189 -131l-37 -60z" />
    <glyph glyph-name="uacute" unicode="&#xfa;" horiz-adv-x="560" 
d="M400 641l-202 -109l-37 60l189 131zM488 0h-108v71c-14.667 -24.667 -33.667 -44.834 -57 -60.501s-53.333 -23.5 -90 -23.5c-22.667 0 -44 3.33301 -64 10s-37.5 16.667 -52.5 30s-26.833 29.833 -35.5 49.5s-13 42.834 -13 69.501v328h113v-300
c0 -34 8.83301 -58.167 26.5 -72.5s37.5 -21.5 59.5 -21.5c14 0 27.5 3 40.5 9s24.5 15 34.5 27s18 27 24 45s9 38.667 9 62v251h113v-474z" />
    <glyph glyph-name="ucircumflex" unicode="&#xfb;" horiz-adv-x="560" 
d="M240 706h74l115 -128l-55 -50l-98 106l-98 -106l-53 50zM488 0h-108v71c-14.667 -24.667 -33.667 -44.834 -57 -60.501s-53.333 -23.5 -90 -23.5c-22.667 0 -44 3.33301 -64 10s-37.5 16.667 -52.5 30s-26.833 29.833 -35.5 49.5s-13 42.834 -13 69.501v328h113v-300
c0 -34 8.83301 -58.167 26.5 -72.5s37.5 -21.5 59.5 -21.5c14 0 27.5 3 40.5 9s24.5 15 34.5 27s18 27 24 45s9 38.667 9 62v251h113v-474z" />
    <glyph glyph-name="udieresis" unicode="&#xfc;" horiz-adv-x="560" 
d="M314 607c0 18.667 6 33.834 18 45.501s27.667 17.5 47 17.5s35 -5.83301 47 -17.5s18 -26.834 18 -45.501c0 -17.333 -6 -32.166 -18 -44.499s-27.667 -18.5 -47 -18.5s-35 6.16699 -47 18.5s-18 27.166 -18 44.499zM110 607c0 18.667 6 33.834 18 45.501
s27.667 17.5 47 17.5s35 -5.83301 47 -17.5s18 -26.834 18 -45.501c0 -17.333 -6 -32.166 -18 -44.499s-27.667 -18.5 -47 -18.5s-35 6.16699 -47 18.5s-18 27.166 -18 44.499zM488 0h-108v71c-14.667 -24.667 -33.667 -44.834 -57 -60.501s-53.333 -23.5 -90 -23.5
c-22.667 0 -44 3.33301 -64 10s-37.5 16.667 -52.5 30s-26.833 29.833 -35.5 49.5s-13 42.834 -13 69.501v328h113v-300c0 -34 8.83301 -58.167 26.5 -72.5s37.5 -21.5 59.5 -21.5c14 0 27.5 3 40.5 9s24.5 15 34.5 27s18 27 24 45s9 38.667 9 62v251h113v-474z" />
    <glyph glyph-name="yacute" unicode="&#xfd;" horiz-adv-x="498" 
d="M120 -200l78.002 199l-186 475h116c19.333 -54.667 37.666 -105.334 54.999 -152.001l22 -60c7.33301 -20 14.166 -38.667 20.499 -56s11.833 -33 16.5 -47s8.33398 -24.333 11.001 -31h2c2 6.66699 5.33301 17 10 31s10 29.667 16 47s12.667 36 20 56l22 60
c17.333 46.667 35.666 97.334 54.999 152.001h108l-255 -674h-111zM388.002 641l-202 -109l-37 60l189 131z" />
    <glyph glyph-name="thorn" unicode="&#xfe;" horiz-adv-x="588" 
d="M549 237c0 -38.667 -5.49902 -73.3291 -16.499 -103.996s-26 -56.834 -45 -78.501s-41.5 -38.334 -67.5 -50.001s-54.333 -17.5 -85 -17.5c-38.667 0 -69.834 7.33301 -93.501 22s-42.167 31.334 -55.5 50.001v-259h-114v900h114v-287c14 20 33.333 37.333 58 52
s55 22 91 22c30.667 0 59 -5.83301 85 -17.5s48.5 -28.334 67.5 -50.001s34 -47.834 45 -78.501s16.5 -65.334 16.5 -104.001zM433.001 237.005c0 22.667 -2.83301 43.835 -8.5 63.502s-13.834 36.667 -24.501 51s-23.5 25.5 -38.5 33.5s-31.833 12 -50.5 12
c-14 0 -28.5 -2.5 -43.5 -7.5s-28.5 -13 -40.5 -24s-22 -25.167 -30 -42.5s-12 -38.333 -12 -63v-46c0 -24.667 4 -45.667 12 -63s18 -31.5 30 -42.5s25.5 -19 40.5 -24s29.5 -7.5 43.5 -7.5c18.667 0 35.5 4 50.5 12s27.833 19.167 38.5 33.5s18.834 31.166 24.501 50.499
s8.5 40.666 8.5 63.999z" />
    <glyph glyph-name="ydieresis" unicode="&#xff;" horiz-adv-x="498" 
d="M120 -200l78.002 199l-186 475h116c19.333 -54.667 37.666 -105.334 54.999 -152.001l22 -60c7.33301 -20 14.166 -38.667 20.499 -56s11.833 -33 16.5 -47s8.33398 -24.333 11.001 -31h2c2 6.66699 5.33301 17 10 31s10 29.667 16 47s12.667 36 20 56l22 60
c17.333 46.667 35.666 97.334 54.999 152.001h108l-255 -674h-111zM289.002 607c0 18.667 6 33.834 18 45.501s27.667 17.5 47 17.5s35 -5.83301 47 -17.5s18 -26.834 18 -45.501c0 -17.333 -6 -32.166 -18 -44.499s-27.667 -18.5 -47 -18.5s-35 6.16699 -47 18.5
s-18 27.166 -18 44.499zM85.002 607c0 18.667 6 33.834 18 45.501s27.667 17.5 47 17.5s35 -5.83301 47 -17.5s18 -26.834 18 -45.501c0 -17.333 -6 -32.166 -18 -44.499s-27.667 -18.5 -47 -18.5s-35 6.16699 -47 18.5s-18 27.166 -18 44.499z" />
    <glyph glyph-name="Amacron" unicode="&#x100;" horiz-adv-x="661" 
d="M644 0h-123l-62 176h-264l-62 -176h-116l254 700h120zM325 562c-2 -6.66699 -4.83398 -15.834 -8.50098 -27.501s-8 -25 -13 -40l-16 -48c-5.66699 -17 -11.5 -33.833 -17.5 -50.5c-13.333 -39.333 -27.666 -81.666 -42.999 -126.999h200
c-16 45.333 -30.667 87.666 -44 126.999c-6 16.667 -11.833 33.5 -17.5 50.5l-16 48c-5 15 -9.5 28.333 -13.5 40s-7 20.834 -9 27.501h-2zM193.999 850h273v-75h-273v75z" />
    <glyph glyph-name="amacron" unicode="&#x101;" horiz-adv-x="518" 
d="M356 0c-2.66699 4.66699 -5.00098 12.667 -7.00098 24s-3 23.666 -3 36.999c-15.333 -22 -34.833 -39.833 -58.5 -53.5s-54.5 -20.5 -92.5 -20.5c-48 0 -86.5 12 -115.5 36s-43.5 57 -43.5 99c0 32 8.5 58.5 25.5 79.5s39.667 37.833 68 50.5s61 21.667 98 27
s75.833 8 116.5 8v30c0 25.333 -7 45.833 -21 61.5s-36 23.5 -66 23.5s-52.333 -7.33301 -67 -22s-22.334 -32 -23.001 -52l-110 16c2.66699 23.333 9.83398 43.833 21.501 61.5s26.667 32.5 45 44.5s39.333 21.167 63 27.5s48.5 9.5 74.5 9.5
c28.667 0 54.834 -3.66699 78.501 -11s44 -18.166 61 -32.499s30.333 -32.166 40 -53.499s14.5 -46.333 14.5 -75v-250c0 -14.667 1 -26.834 3 -36.501s4.66699 -19.167 8 -28.5h-110zM225.999 71c14.667 0 29.166 2.33203 43.499 6.99902s27 11.5 38 20.5
s19.833 19.833 26.5 32.5s10 27.334 10 44.001v39c-58.667 0 -106 -6.33301 -142 -19s-54 -34.667 -54 -66c0 -19.333 7.33301 -33.833 22 -43.5s33.334 -14.5 56.001 -14.5zM121.998 629.999h273v-74h-273v74z" />
    <glyph glyph-name="Abreve" unicode="&#x102;" horiz-adv-x="661" 
d="M644 0h-123l-62 176h-264l-62 -176h-116l254 700h120zM325 562c-2 -6.66699 -4.83398 -15.834 -8.50098 -27.501s-8 -25 -13 -40l-16 -48c-5.66699 -17 -11.5 -33.833 -17.5 -50.5c-13.333 -39.333 -27.666 -81.666 -42.999 -126.999h200
c-16 45.333 -30.667 87.666 -44 126.999c-6 16.667 -11.833 33.5 -17.5 50.5l-16 48c-5 15 -9.5 28.333 -13.5 40s-7 20.834 -9 27.501h-2zM250.999 901c3.33301 -19.333 12 -35.833 26 -49.5s31.667 -20.5 53 -20.5s39 6.83301 53 20.5s22.667 30.167 26 49.5l83 -24
c-8 -36 -26.5 -64.833 -55.5 -86.5s-64.5 -32.5 -106.5 -32.5s-77.5 10.833 -106.5 32.5s-47.5 50.5 -55.5 86.5z" />
    <glyph glyph-name="abreve" unicode="&#x103;" horiz-adv-x="518" 
d="M356 0c-2.66699 4.66699 -5.00098 12.667 -7.00098 24s-3 23.666 -3 36.999c-15.333 -22 -34.833 -39.833 -58.5 -53.5s-54.5 -20.5 -92.5 -20.5c-48 0 -86.5 12 -115.5 36s-43.5 57 -43.5 99c0 32 8.5 58.5 25.5 79.5s39.667 37.833 68 50.5s61 21.667 98 27
s75.833 8 116.5 8v30c0 25.333 -7 45.833 -21 61.5s-36 23.5 -66 23.5s-52.333 -7.33301 -67 -22s-22.334 -32 -23.001 -52l-110 16c2.66699 23.333 9.83398 43.833 21.501 61.5s26.667 32.5 45 44.5s39.333 21.167 63 27.5s48.5 9.5 74.5 9.5
c28.667 0 54.834 -3.66699 78.501 -11s44 -18.166 61 -32.499s30.333 -32.166 40 -53.499s14.5 -46.333 14.5 -75v-250c0 -14.667 1 -26.834 3 -36.501s4.66699 -19.167 8 -28.5h-110zM225.999 71c14.667 0 29.166 2.33203 43.499 6.99902s27 11.5 38 20.5
s19.833 19.833 26.5 32.5s10 27.334 10 44.001v39c-58.667 0 -106 -6.33301 -142 -19s-54 -34.667 -54 -66c0 -19.333 7.33301 -33.833 22 -43.5s33.334 -14.5 56.001 -14.5zM176.998 687.999c3.33301 -19.333 12 -35.833 26 -49.5s31.667 -20.5 53 -20.5
s39 6.83301 53 20.5s22.667 30.167 26 49.5l83 -24c-8 -35.333 -26.5 -64 -55.5 -86s-64.5 -33 -106.5 -33s-77.5 11 -106.5 33s-47.5 50.667 -55.5 86z" />
    <glyph glyph-name="Aogonek" unicode="&#x104;" horiz-adv-x="661" 
d="M644 0c-36 -14.667 -62.8379 -30.499 -80.5049 -47.499s-26.5 -34.167 -26.5 -51.5c0 -10.667 3.66699 -19.334 11 -26.001s18.333 -10 33 -10c10.667 0 20.334 2.66699 29.001 8s18.334 15.666 29.001 30.999l46 -42c-17.333 -22.667 -35.666 -39 -54.999 -49
s-40.666 -15 -63.999 -15c-14 0 -27.667 1.66699 -41 5s-25.166 8.83301 -35.499 16.5s-18.666 17.334 -24.999 29.001s-9.5 25.834 -9.5 42.501c0 25.333 6.16699 46.166 18.5 62.499s28.166 31.833 47.499 46.5l-62 176h-264l-62 -176h-116l254 700h120zM324.995 562.001
c-2 -6.66699 -4.83398 -15.834 -8.50098 -27.501s-8 -25 -13 -40l-16 -48c-5.66699 -17 -11.5 -33.833 -17.5 -50.5c-13.333 -39.333 -27.666 -81.666 -42.999 -126.999h200c-16 45.333 -30.667 87.666 -44 126.999c-6 16.667 -11.833 33.5 -17.5 50.5l-16 48
c-5 15 -9.5 28.333 -13.5 40s-7 20.834 -9 27.501h-2z" />
    <glyph glyph-name="aogonek" unicode="&#x105;" horiz-adv-x="518" 
d="M466 0c-35.333 -18.667 -61.0049 -35.999 -77.0049 -51.999s-24 -31.667 -24 -47c0 -10.667 3.5 -19.334 10.5 -26.001s17.833 -10 32.5 -10c10.667 0 20.5 2.66699 29.5 8s18.833 15.666 29.5 30.999l46 -42c-17.333 -22.667 -35.666 -39 -54.999 -49
s-40.666 -15 -63.999 -15c-14 0 -27.667 1.66699 -41 5s-25.166 8.83301 -35.499 16.5s-18.666 17.334 -24.999 29.001s-9.5 25.834 -9.5 42.501c0 25.333 6.83301 46.166 20.5 62.499s31.167 31.833 52.5 46.5c-2.66699 4.66699 -5 12.667 -7 24s-3 23.666 -3 36.999
c-15.333 -22 -34.833 -39.833 -58.5 -53.5s-54.5 -20.5 -92.5 -20.5c-48 0 -86.5 12 -115.5 36s-43.5 57 -43.5 99c0 32 8.5 58.5 25.5 79.5s39.667 37.833 68 50.5s61 21.667 98 27s75.833 8 116.5 8v30c0 25.333 -7 45.833 -21 61.5s-36 23.5 -66 23.5
s-52.333 -7.33301 -67 -22s-22.334 -32 -23.001 -52l-110 16c2.66699 23.333 9.83398 43.833 21.501 61.5s26.667 32.5 45 44.5s39.333 21.167 63 27.5s48.5 9.5 74.5 9.5c28.667 0 54.834 -3.66699 78.501 -11s44 -18.166 61 -32.499s30.333 -32.166 40 -53.499
s14.5 -46.333 14.5 -75v-250c0 -14.667 1 -26.834 3 -36.501s4.66699 -19.167 8 -28.5zM225.995 71.001c14.667 0 29.166 2.33203 43.499 6.99902s27 11.5 38 20.5s19.833 19.833 26.5 32.5s10 27.334 10 44.001v39c-58.667 0 -106 -6.33301 -142 -19s-54 -34.667 -54 -66
c0 -19.333 7.33301 -33.833 22 -43.5s33.334 -14.5 56.001 -14.5z" />
    <glyph glyph-name="Cacute" unicode="&#x106;" horiz-adv-x="688" 
d="M48 350c0 55.333 7.49805 105.331 22.498 149.998s36.667 82.834 65 114.501s62.833 56 103.5 73s86.334 25.5 137.001 25.5c72 0 131.167 -16.333 177.5 -49s80.833 -79.334 103.5 -140.001l-113 -40c-13.333 39.333 -33.666 71 -60.999 95s-64 36 -110 36
c-32.667 0 -61.667 -6.33301 -87 -19s-46.5 -30.667 -63.5 -54s-30 -51.333 -39 -84s-13.5 -68.667 -13.5 -108s4.33301 -75.166 13 -107.499s21.667 -60.166 39 -83.499s38.5 -41.5 63.5 -54.5s54.167 -19.5 87.5 -19.5c44 0 79.667 11.333 107 34s48.333 54 63 94l112 -41
c-23.333 -57.333 -58 -102.5 -104 -135.5s-105 -49.5 -177 -49.5c-50.667 0 -96.167 8.5 -136.5 25.5s-74.5 41.167 -102.5 72.5s-49.5 69.5 -64.5 114.5s-22.5 95.167 -22.5 150.5zM488.998 856.998l-202 -109l-37 60l189 131z" />
    <glyph glyph-name="cacute" unicode="&#x107;" horiz-adv-x="503" 
d="M385 641l-202 -109l-37 60l189 131zM39 237c0 37.333 5.5 71.334 16.5 102.001s26.667 57 47 79s45 39 74 51s61.833 18 98.5 18c27.333 0 51.5 -3.33301 72.5 -10s39.5 -15.834 55.5 -27.501s29.5 -25.5 40.5 -41.5s20.5 -33.333 28.5 -52l-103 -39
c-6.66699 25.333 -18.167 45.166 -34.5 59.499s-37.833 21.5 -64.5 21.5c-20 0 -37.167 -4.5 -51.5 -13.5s-26.166 -20.833 -35.499 -35.5s-16.166 -31.834 -20.499 -51.501s-6.5 -39.834 -6.5 -60.501s2.16699 -40.5 6.5 -59.5s11.166 -36 20.499 -51
s21.166 -27 35.499 -36s31.833 -13.5 52.5 -13.5c28 0 49.167 7.33301 63.5 22s25.833 32.667 34.5 54l105 -40c-9.33301 -17.333 -20.166 -33.666 -32.499 -48.999s-26.5 -28.666 -42.5 -39.999s-34.333 -20.333 -55 -27s-44.334 -10 -71.001 -10c-36 0 -68.333 6 -97 18
s-53.167 28.833 -73.5 50.5s-36 47.834 -47 78.501s-16.5 65 -16.5 103z" />
    <glyph glyph-name="Ccircumflex" unicode="&#x108;" horiz-adv-x="688" 
d="M48 350c0 55.333 7.49805 105.331 22.498 149.998s36.667 82.834 65 114.501s62.833 56 103.5 73s86.334 25.5 137.001 25.5c72 0 131.167 -16.333 177.5 -49s80.833 -79.334 103.5 -140.001l-113 -40c-13.333 39.333 -33.666 71 -60.999 95s-64 36 -110 36
c-32.667 0 -61.667 -6.33301 -87 -19s-46.5 -30.667 -63.5 -54s-30 -51.333 -39 -84s-13.5 -68.667 -13.5 -108s4.33301 -75.166 13 -107.499s21.667 -60.166 39 -83.499s38.5 -41.5 63.5 -54.5s54.167 -19.5 87.5 -19.5c44 0 79.667 11.333 107 34s48.333 54 63 94l112 -41
c-23.333 -57.333 -58 -102.5 -104 -135.5s-105 -49.5 -177 -49.5c-50.667 0 -96.167 8.5 -136.5 25.5s-74.5 41.167 -102.5 72.5s-49.5 69.5 -64.5 114.5s-22.5 95.167 -22.5 150.5zM334.998 911.998h85l115 -115l-54 -52l-104 101l-101 -101l-54 52z" />
    <glyph glyph-name="ccircumflex" unicode="&#x109;" horiz-adv-x="503" 
d="M231 706h74l115 -128l-55 -50l-98 106l-98 -106l-53 50zM39 237c0 37.333 5.5 71.334 16.5 102.001s26.667 57 47 79s45 39 74 51s61.833 18 98.5 18c27.333 0 51.5 -3.33301 72.5 -10s39.5 -15.834 55.5 -27.501s29.5 -25.5 40.5 -41.5s20.5 -33.333 28.5 -52l-103 -39
c-6.66699 25.333 -18.167 45.166 -34.5 59.499s-37.833 21.5 -64.5 21.5c-20 0 -37.167 -4.5 -51.5 -13.5s-26.166 -20.833 -35.499 -35.5s-16.166 -31.834 -20.499 -51.501s-6.5 -39.834 -6.5 -60.501s2.16699 -40.5 6.5 -59.5s11.166 -36 20.499 -51
s21.166 -27 35.499 -36s31.833 -13.5 52.5 -13.5c28 0 49.167 7.33301 63.5 22s25.833 32.667 34.5 54l105 -40c-9.33301 -17.333 -20.166 -33.666 -32.499 -48.999s-26.5 -28.666 -42.5 -39.999s-34.333 -20.333 -55 -27s-44.334 -10 -71.001 -10c-36 0 -68.333 6 -97 18
s-53.167 28.833 -73.5 50.5s-36 47.834 -47 78.501s-16.5 65 -16.5 103z" />
    <glyph glyph-name="Cdotaccent" unicode="&#x10a;" horiz-adv-x="688" 
d="M309 832c0 20.667 6.5 37.5 19.5 50.5s30.167 19.5 51.5 19.5s38.5 -6.5 51.5 -19.5s19.5 -29.833 19.5 -50.5c0 -20 -6.5 -36.333 -19.5 -49s-30.167 -19 -51.5 -19s-38.5 6.33301 -51.5 19s-19.5 29 -19.5 49zM48 350c0 55.333 7.49805 105.331 22.498 149.998
s36.667 82.834 65 114.501s62.833 56 103.5 73s86.334 25.5 137.001 25.5c72 0 131.167 -16.333 177.5 -49s80.833 -79.334 103.5 -140.001l-113 -40c-13.333 39.333 -33.666 71 -60.999 95s-64 36 -110 36c-32.667 0 -61.667 -6.33301 -87 -19s-46.5 -30.667 -63.5 -54
s-30 -51.333 -39 -84s-13.5 -68.667 -13.5 -108s4.33301 -75.166 13 -107.499s21.667 -60.166 39 -83.499s38.5 -41.5 63.5 -54.5s54.167 -19.5 87.5 -19.5c44 0 79.667 11.333 107 34s48.333 54 63 94l112 -41c-23.333 -57.333 -58 -102.5 -104 -135.5
s-105 -49.5 -177 -49.5c-50.667 0 -96.167 8.5 -136.5 25.5s-74.5 41.167 -102.5 72.5s-49.5 69.5 -64.5 114.5s-22.5 95.167 -22.5 150.5z" />
    <glyph glyph-name="cdotaccent" unicode="&#x10b;" horiz-adv-x="503" 
d="M39 237c0 37.333 5.5 71.334 16.5 102.001s26.667 57 47 79s45 39 74 51s61.833 18 98.5 18c27.333 0 51.5 -3.33301 72.5 -10s39.5 -15.834 55.5 -27.501s29.5 -25.5 40.5 -41.5s20.5 -33.333 28.5 -52l-103 -39c-6.66699 25.333 -18.167 45.166 -34.5 59.499
s-37.833 21.5 -64.5 21.5c-20 0 -37.167 -4.5 -51.5 -13.5s-26.166 -20.833 -35.499 -35.5s-16.166 -31.834 -20.499 -51.501s-6.5 -39.834 -6.5 -60.501s2.16699 -40.5 6.5 -59.5s11.166 -36 20.499 -51s21.166 -27 35.499 -36s31.833 -13.5 52.5 -13.5
c28 0 49.167 7.33301 63.5 22s25.833 32.667 34.5 54l105 -40c-9.33301 -17.333 -20.166 -33.666 -32.499 -48.999s-26.5 -28.666 -42.5 -39.999s-34.333 -20.333 -55 -27s-44.334 -10 -71.001 -10c-36 0 -68.333 6 -97 18s-53.167 28.833 -73.5 50.5s-36 47.834 -47 78.501
s-16.5 65 -16.5 103zM201 612.001c0 21.333 6.5 38.333 19.5 51s29.833 19 50.5 19s37.5 -6.33301 50.5 -19s19.5 -29.667 19.5 -51c0 -18.667 -6.33301 -34.667 -19 -48s-29.667 -20 -51 -20s-38.333 6.66699 -51 20s-19 29.333 -19 48z" />
    <glyph glyph-name="Ccaron" unicode="&#x10c;" horiz-adv-x="688" 
d="M48 350c0 55.333 7.49805 105.331 22.498 149.998s36.667 82.834 65 114.501s62.833 56 103.5 73s86.334 25.5 137.001 25.5c72 0 131.167 -16.333 177.5 -49s80.833 -79.334 103.5 -140.001l-113 -40c-13.333 39.333 -33.666 71 -60.999 95s-64 36 -110 36
c-32.667 0 -61.667 -6.33301 -87 -19s-46.5 -30.667 -63.5 -54s-30 -51.333 -39 -84s-13.5 -68.667 -13.5 -108s4.33301 -75.166 13 -107.499s21.667 -60.166 39 -83.499s38.5 -41.5 63.5 -54.5s54.167 -19.5 87.5 -19.5c44 0 79.667 11.333 107 34s48.333 54 63 94l112 -41
c-23.333 -57.333 -58 -102.5 -104 -135.5s-105 -49.5 -177 -49.5c-50.667 0 -96.167 8.5 -136.5 25.5s-74.5 41.167 -102.5 72.5s-49.5 69.5 -64.5 114.5s-22.5 95.167 -22.5 150.5zM221.998 866.998l54 51l102 -101l102 101l54 -51l-114 -116h-85z" />
    <glyph glyph-name="ccaron" unicode="&#x10d;" horiz-adv-x="503" 
d="M306 534h-73l-116 128l55 50l98 -106l98 106l54 -50zM39 237c0 37.333 5.5 71.334 16.5 102.001s26.667 57 47 79s45 39 74 51s61.833 18 98.5 18c27.333 0 51.5 -3.33301 72.5 -10s39.5 -15.834 55.5 -27.501s29.5 -25.5 40.5 -41.5s20.5 -33.333 28.5 -52l-103 -39
c-6.66699 25.333 -18.167 45.166 -34.5 59.499s-37.833 21.5 -64.5 21.5c-20 0 -37.167 -4.5 -51.5 -13.5s-26.166 -20.833 -35.499 -35.5s-16.166 -31.834 -20.499 -51.501s-6.5 -39.834 -6.5 -60.501s2.16699 -40.5 6.5 -59.5s11.166 -36 20.499 -51
s21.166 -27 35.499 -36s31.833 -13.5 52.5 -13.5c28 0 49.167 7.33301 63.5 22s25.833 32.667 34.5 54l105 -40c-9.33301 -17.333 -20.166 -33.666 -32.499 -48.999s-26.5 -28.666 -42.5 -39.999s-34.333 -20.333 -55 -27s-44.334 -10 -71.001 -10c-36 0 -68.333 6 -97 18
s-53.167 28.833 -73.5 50.5s-36 47.834 -47 78.501s-16.5 65 -16.5 103z" />
    <glyph glyph-name="Dcaron" unicode="&#x10e;" horiz-adv-x="707" 
d="M168 867l54 51l102 -101l102 101l54 -51l-114 -116h-85zM81 700l248 -0.00195312c51.333 0 97.333 -7.83301 138 -23.5s75.334 -38.5 104.001 -68.5s50.5 -66.667 65.5 -110s22.5 -92.666 22.5 -147.999s-7.5 -104.666 -22.5 -147.999s-36.833 -80 -65.5 -110
s-63.334 -52.833 -104.001 -68.5s-86.667 -23.5 -138 -23.5h-248v700zM537 349.998c0 38 -4.16699 72.5 -12.5 103.5s-21.333 57.667 -39 80s-40.167 39.5 -67.5 51.5s-60 18 -98 18h-120v-506h120c38 0 70.667 6 98 18s49.833 29.167 67.5 51.5s30.667 49 39 80
s12.5 65.5 12.5 103.5z" />
    <glyph glyph-name="dcaron" unicode="&#x10f;" horiz-adv-x="588" 
d="M698 708l-64 -177l-64 17l41 183zM256 487c35.333 0 65.167 -7.17188 89.5 -21.5049s43.5 -31.5 57.5 -51.5v286h113v-700h-108v70c-6.66699 -10.667 -14.667 -21 -24 -31s-20.333 -18.833 -33 -26.5s-27.167 -13.834 -43.5 -18.501s-34.833 -7 -55.5 -7
c-30 0 -58 5.83301 -84 17.5s-48.5 28.334 -67.5 50.001s-34 47.834 -45 78.501s-16.5 65.334 -16.5 104.001s5.5 73.334 16.5 104.001s26.333 56.834 46 78.501s42.667 38.334 69 50.001s54.833 17.5 85.5 17.5zM403.001 261.995
c0 24.667 -4.00098 45.6641 -12.001 62.9971s-18 31.333 -30 42s-25.333 18.334 -40 23.001s-28.667 7 -42 7c-19.333 0 -36.5 -4 -51.5 -12s-27.833 -19.167 -38.5 -33.5s-18.834 -31.333 -24.501 -51s-8.5 -40.834 -8.5 -63.501c0 -23.333 2.83301 -44.666 8.5 -63.999
s13.667 -36.166 24 -50.499s22.833 -25.5 37.5 -33.5s31.334 -12 50.001 -12c14 0 28.333 2.33301 43 7s28.334 12.334 41.001 23.001s23 24.5 31 41.5s12 38.167 12 63.5v50z" />
    <glyph glyph-name="Dcroat" unicode="&#x110;" horiz-adv-x="726" 
d="M100 321l-81 -0.00195312v85h81v294h248c51.333 0 97.333 -7.83301 138 -23.5s75.334 -38.5 104.001 -68.5s50.5 -66.667 65.5 -110s22.5 -92.666 22.5 -147.999s-7.5 -104.666 -22.5 -147.999s-36.833 -80 -65.5 -110s-63.334 -52.833 -104.001 -68.5
s-86.667 -23.5 -138 -23.5h-248v321zM556 349.998c0 38 -4.16699 72.5 -12.5 103.5s-21.333 57.667 -39 80s-40.167 39.5 -67.5 51.5s-60 18 -98 18h-120v-197h165v-85h-165v-224h120c38 0 70.667 6 98 18s49.833 29.167 67.5 51.5s30.667 49 39 80s12.5 65.5 12.5 103.5z
" />
    <glyph glyph-name="dcroat" unicode="&#x111;" horiz-adv-x="588" 
d="M251 629l152.001 -0.00488281v71h113v-71h61v-82h-61v-547h-108v70c-6.66699 -10.667 -14.667 -21 -24 -31s-20.333 -18.833 -33 -26.5s-27.167 -13.834 -43.5 -18.501s-34.833 -7 -55.5 -7c-30 0 -58 5.83301 -84 17.5s-48.5 28.334 -67.5 50.001s-34 47.834 -45 78.501
s-16.5 65.334 -16.5 104.001s5.5 73.334 16.5 104.001s26.333 56.834 46 78.501s42.667 38.334 69 50.001s54.833 17.5 85.5 17.5c35.333 0 65.166 -7.16699 89.499 -21.5s43.5 -31.5 57.5 -51.5v133h-152v82zM403.001 261.995c0 24.667 -4.00098 45.6641 -12.001 62.9971
s-18 31.333 -30 42s-25.333 18.334 -40 23.001s-28.667 7 -42 7c-19.333 0 -36.5 -4 -51.5 -12s-27.833 -19.167 -38.5 -33.5s-18.834 -31.333 -24.501 -51s-8.5 -40.834 -8.5 -63.501c0 -23.333 2.83301 -44.666 8.5 -63.999s13.667 -36.166 24 -50.499
s22.833 -25.5 37.5 -33.5s31.334 -12 50.001 -12c14 0 28.333 2.33301 43 7s28.334 12.334 41.001 23.001s23 24.5 31 41.5s12 38.167 12 63.5v50z" />
    <glyph glyph-name="Emacron" unicode="&#x112;" horiz-adv-x="575" 
d="M169 850h273v-75h-273v75zM81 0v700h443v-97h-326v-194h304v-97h-304v-215h332v-97h-449z" />
    <glyph glyph-name="emacron" unicode="&#x113;" horiz-adv-x="525" 
d="M476 104c-18.667 -36 -44.498 -64.502 -77.498 -85.502s-74.5 -31.5 -124.5 -31.5c-36 0 -68.5 6 -97.5 18s-53.667 29 -74 51s-36 48.333 -47 79s-16.5 65 -16.5 103c0 37.333 5.5 71.333 16.5 102s26.667 56.834 47 78.501s44.666 38.5 72.999 50.5s59.833 18 94.5 18
c38 0 71 -6.66699 99 -20s51.167 -31.166 69.5 -53.499s32 -48.333 41 -78s13.5 -60.5 13.5 -92.5v-32h-338c0.666992 -18 3.33398 -35.333 8.00098 -52s11.667 -31.5 21 -44.5s21.166 -23.333 35.499 -31s32.166 -11.5 53.499 -11.5c29.333 0 51.833 6.66699 67.5 20
s28.167 30.333 37.5 51zM269.002 403.998c-34 0 -60.333 -11 -79 -33s-29.667 -50.333 -33 -85h222c-1.33301 38 -12 67.167 -32 87.5s-46 30.5 -78 30.5zM131.002 629.998h273v-74h-273v74z" />
    <glyph glyph-name="Ebreve" unicode="&#x114;" horiz-adv-x="575" 
d="M225 901c3.33301 -19.333 12 -35.833 26 -49.5s31.667 -20.5 53 -20.5s39 6.83301 53 20.5s22.667 30.167 26 49.5l83 -24c-8 -36 -26.5 -64.833 -55.5 -86.5s-64.5 -32.5 -106.5 -32.5s-77.5 10.833 -106.5 32.5s-47.5 50.5 -55.5 86.5zM81 0v700h443v-97h-326v-194h304
v-97h-304v-215h332v-97h-449z" />
    <glyph glyph-name="ebreve" unicode="&#x115;" horiz-adv-x="525" 
d="M476 104c-18.667 -36 -44.498 -64.502 -77.498 -85.502s-74.5 -31.5 -124.5 -31.5c-36 0 -68.5 6 -97.5 18s-53.667 29 -74 51s-36 48.333 -47 79s-16.5 65 -16.5 103c0 37.333 5.5 71.333 16.5 102s26.667 56.834 47 78.501s44.666 38.5 72.999 50.5s59.833 18 94.5 18
c38 0 71 -6.66699 99 -20s51.167 -31.166 69.5 -53.499s32 -48.333 41 -78s13.5 -60.5 13.5 -92.5v-32h-338c0.666992 -18 3.33398 -35.333 8.00098 -52s11.667 -31.5 21 -44.5s21.166 -23.333 35.499 -31s32.166 -11.5 53.499 -11.5c29.333 0 51.833 6.66699 67.5 20
s28.167 30.333 37.5 51zM269.002 403.998c-34 0 -60.333 -11 -79 -33s-29.667 -50.333 -33 -85h222c-1.33301 38 -12 67.167 -32 87.5s-46 30.5 -78 30.5zM189.002 687.998c3.33301 -19.333 12 -35.833 26 -49.5s31.667 -20.5 53 -20.5s39 6.83301 53 20.5
s22.667 30.167 26 49.5l83 -24c-8 -35.333 -26.5 -64 -55.5 -86s-64.5 -33 -106.5 -33s-77.5 11 -106.5 33s-47.5 50.667 -55.5 86z" />
    <glyph glyph-name="Edotaccent" unicode="&#x116;" horiz-adv-x="575" 
d="M234 832c0 20.667 6.5 37.5 19.5 50.5s30.167 19.5 51.5 19.5s38.5 -6.5 51.5 -19.5s19.5 -29.833 19.5 -50.5c0 -20 -6.5 -36.333 -19.5 -49s-30.167 -19 -51.5 -19s-38.5 6.33301 -51.5 19s-19.5 29 -19.5 49zM81 0v700h443v-97h-326v-194h304v-97h-304v-215h332v-97
h-449z" />
    <glyph glyph-name="edotaccent" unicode="&#x117;" horiz-adv-x="525" 
d="M476 104c-18.667 -36 -44.498 -64.502 -77.498 -85.502s-74.5 -31.5 -124.5 -31.5c-36 0 -68.5 6 -97.5 18s-53.667 29 -74 51s-36 48.333 -47 79s-16.5 65 -16.5 103c0 37.333 5.5 71.333 16.5 102s26.667 56.834 47 78.501s44.666 38.5 72.999 50.5s59.833 18 94.5 18
c38 0 71 -6.66699 99 -20s51.167 -31.166 69.5 -53.499s32 -48.333 41 -78s13.5 -60.5 13.5 -92.5v-32h-338c0.666992 -18 3.33398 -35.333 8.00098 -52s11.667 -31.5 21 -44.5s21.166 -23.333 35.499 -31s32.166 -11.5 53.499 -11.5c29.333 0 51.833 6.66699 67.5 20
s28.167 30.333 37.5 51zM269.002 403.998c-34 0 -60.333 -11 -79 -33s-29.667 -50.333 -33 -85h222c-1.33301 38 -12 67.167 -32 87.5s-46 30.5 -78 30.5zM198.002 611.998c0 21.333 6.5 38.333 19.5 51s29.833 19 50.5 19s37.5 -6.33301 50.5 -19s19.5 -29.667 19.5 -51
c0 -18.667 -6.33301 -34.667 -19 -48s-29.667 -20 -51 -20s-38.333 6.66699 -51 20s-19 29.333 -19 48z" />
    <glyph glyph-name="Eogonek" unicode="&#x118;" horiz-adv-x="575" 
d="M472 0c-36 -18.667 -61.8369 -35.999 -77.5039 -51.999s-23.5 -31.667 -23.5 -47c0 -10.667 3.5 -19.334 10.5 -26.001s17.833 -10 32.5 -10c10.667 0 20.5 2.66699 29.5 8s18.833 15.666 29.5 30.999l46 -42c-17.333 -22.667 -35.666 -39 -54.999 -49
s-40.666 -15 -63.999 -15c-14 0 -27.667 1.66699 -41 5s-25.166 8.83301 -35.499 16.5s-18.666 17.334 -24.999 29.001s-9.5 25.834 -9.5 42.501c0 25.333 6.5 46.166 19.5 62.499s30.167 31.833 51.5 46.5h-279v700h443v-97h-326v-194h304v-97h-304v-215h332v-97h-58z" />
    <glyph glyph-name="eogonek" unicode="&#x119;" horiz-adv-x="525" 
d="M282 -99c0 -10.667 3.49805 -19.3359 10.498 -26.0029s17.833 -10 32.5 -10c10.667 0 20.5 2.66699 29.5 8s18.833 15.666 29.5 30.999l46 -42c-17.333 -22.667 -35.666 -39 -54.999 -49s-40.666 -15 -63.999 -15c-14 0 -27.667 1.66699 -41 5
s-25.166 8.83301 -35.499 16.5s-18.666 17.334 -24.999 29.001s-9.5 25.834 -9.5 42.501c0 21.333 4.66699 39.666 14 54.999s22.333 29.333 39 42c-33.333 2 -63.166 9.5 -89.499 22.5s-48.833 30.333 -67.5 52s-32.834 47.334 -42.501 77.001s-14.5 62.5 -14.5 98.5
c0 37.333 5.5 71.333 16.5 102s26.667 56.834 47 78.501s44.666 38.5 72.999 50.5s59.833 18 94.5 18c38 0 71 -6.66699 99 -20s51.167 -31.166 69.5 -53.499s32 -48.333 41 -78s13.5 -60.5 13.5 -92.5v-32h-338c0.666992 -18 3.33398 -35.333 8.00098 -52
s11.667 -31.5 21 -44.5s21.166 -23.333 35.499 -31s32.166 -11.5 53.499 -11.5c29.333 0 51.833 6.66699 67.5 20s28.167 30.333 37.5 51l98 -39c-21.333 -39.333 -52 -71.333 -92 -96c-36 -22 -62 -41 -78 -57s-24 -32.667 -24 -50zM268.998 403.998
c-34 0 -60.333 -11 -79 -33s-29.667 -50.333 -33 -85h222c-1.33301 38 -12 67.167 -32 87.5s-46 30.5 -78 30.5z" />
    <glyph glyph-name="Ecaron" unicode="&#x11a;" horiz-adv-x="575" 
d="M149 867l54 51l102 -101l102 101l54 -51l-114 -116h-85zM81 0v700h443v-97h-326v-194h304v-97h-304v-215h332v-97h-449z" />
    <glyph glyph-name="ecaron" unicode="&#x11b;" horiz-adv-x="525" 
d="M304 534h-73l-116 128l55 50l98 -106l98 106l54 -50zM476 104c-18.667 -36 -44.498 -64.502 -77.498 -85.502s-74.5 -31.5 -124.5 -31.5c-36 0 -68.5 6 -97.5 18s-53.667 29 -74 51s-36 48.333 -47 79s-16.5 65 -16.5 103c0 37.333 5.5 71.333 16.5 102
s26.667 56.834 47 78.501s44.666 38.5 72.999 50.5s59.833 18 94.5 18c38 0 71 -6.66699 99 -20s51.167 -31.166 69.5 -53.499s32 -48.333 41 -78s13.5 -60.5 13.5 -92.5v-32h-338c0.666992 -18 3.33398 -35.333 8.00098 -52s11.667 -31.5 21 -44.5
s21.166 -23.333 35.499 -31s32.166 -11.5 53.499 -11.5c29.333 0 51.833 6.66699 67.5 20s28.167 30.333 37.5 51zM269.002 403.998c-34 0 -60.333 -11 -79 -33s-29.667 -50.333 -33 -85h222c-1.33301 38 -12 67.167 -32 87.5s-46 30.5 -78 30.5z" />
    <glyph glyph-name="Gcircumflex" unicode="&#x11c;" horiz-adv-x="733" 
d="M354 366h304.002v-366h-107v73c-7.33301 -10.667 -16.5 -21.167 -27.5 -31.5s-24.333 -19.5 -40 -27.5s-33.5 -14.5 -53.5 -19.5s-43 -7.5 -69 -7.5c-51.333 0 -96.333 9.33301 -135 28s-71.334 44.334 -98.001 77.001s-46.667 71 -60 115s-20 91.333 -20 142
c0 53.333 7.66699 102.333 23 147s37.333 83 66 115s63.667 57 105 75s88 27 140 27c66.667 0 123.667 -15.667 171 -47s83.666 -76.333 108.999 -135l-109 -43c-15.333 39.333 -37.5 70.5 -66.5 93.5s-65.833 34.5 -110.5 34.5c-30.667 0 -58.667 -5.83301 -84 -17.5
s-47 -29 -65 -52s-32 -51.5 -42 -85.5s-15 -73 -15 -117c0 -85.333 17.5 -150 52.5 -194s85.833 -66 152.5 -66c22 0 43.167 3 63.5 9s38.5 15 54.5 27s28.667 27.167 38 45.5s14 40.166 14 65.499v42h-191v93zM337.002 912h85l115 -115l-54 -52l-104 101l-101 -101l-54 52z
" />
    <glyph glyph-name="gcircumflex" unicode="&#x11d;" horiz-adv-x="534" 
d="M225 706h74l115 -128l-55 -50l-98 106l-98 -106l-53 50zM503 412c-4.66699 4.66699 -10.168 7.83203 -16.501 9.49902s-12.5 2.5 -18.5 2.5c-8.66699 0 -16.167 -1.16699 -22.5 -3.5s-11.166 -5.16602 -14.499 -8.49902c11.333 -12 20 -26.667 26 -44s9 -35.333 9 -54
c0 -27.333 -5.66699 -51.333 -17 -72s-26.333 -38.334 -45 -53.001s-40.167 -25.667 -64.5 -33s-49.833 -11 -76.5 -11c-19.333 0 -34.5 1.33301 -45.5 4s-19.833 4 -26.5 4c-7.33301 0 -15.833 -2.66699 -25.5 -8s-14.5 -14.666 -14.5 -27.999
c0 -8.66699 3.16699 -15.334 9.5 -20.001s15.833 -8.16699 28.5 -10.5s28.5 -4.16602 47.5 -5.49902s40.833 -3 65.5 -5c28 -2 54.167 -5.33301 78.5 -10s45.666 -11.667 63.999 -21s32.666 -22 42.999 -38s15.5 -36.667 15.5 -62c0 -28 -6.5 -52 -19.5 -72
s-30.667 -36.333 -53 -49s-48.5 -22 -78.5 -28s-62 -9 -96 -9c-32 0 -61.667 2.5 -89 7.5s-51 13 -71 24s-35.667 24.667 -47 41s-17 36.166 -17 59.499c0 24 6.5 45.5 19.5 64.5s29.167 32.5 48.5 40.5c-18 8.66699 -31 20.334 -39 35.001s-12 29.334 -12 44.001
c0 18.667 5.83301 35.667 17.5 51s28.167 27.666 49.5 36.999c-17.333 13.333 -31.166 30.166 -41.499 50.499s-15.5 43.833 -15.5 70.5c0 28 5.66699 53 17 75s26.333 40.333 45 55s39.834 25.834 63.501 33.501s48.167 11.5 73.5 11.5c21.333 0 41.333 -2.5 60 -7.5
s35 -10.833 49 -17.5c12.667 10.667 26.667 19.167 42 25.5s34 9.5 56 9.5c12 0 23 -1 33 -3s18.667 -4.66699 26 -8zM169.999 313.998c0 -32 8.83301 -55.667 26.5 -71s39.5 -23 65.5 -23c26.667 0 48.834 7.66699 66.501 23s26.5 39 26.5 71s-8.83301 56.167 -26.5 72.5
s-39.834 24.5 -66.501 24.5c-26 0 -47.833 -8.16699 -65.5 -24.5s-26.5 -40.5 -26.5 -72.5zM274.999 -12.002c-23.333 1.33301 -43.833 2.83203 -61.5 4.49902s-32.167 3.83398 -43.5 6.50098c-13.333 -6 -23 -15.5 -29 -28.5s-9 -26.5 -9 -40.5
c0 -24 11.667 -41.167 35 -51.5s54.333 -15.5 93 -15.5c19.333 0 37.5 1.33301 54.5 4s31.667 7 44 13s22 13.5 29 22.5s10.5 19.833 10.5 32.5c0 20 -9.5 33.333 -28.5 40s-50.5 11 -94.5 13z" />
    <glyph glyph-name="Gbreve" unicode="&#x11e;" horiz-adv-x="733" 
d="M303 901c3.33301 -19.333 12 -35.833 26 -49.5s31.667 -20.5 53 -20.5s39 6.83301 53 20.5s22.667 30.167 26 49.5l83 -24c-8 -36 -26.5 -64.833 -55.5 -86.5s-64.5 -32.5 -106.5 -32.5s-77.5 10.833 -106.5 32.5s-47.5 50.5 -55.5 86.5zM354 366h304.002v-366h-107v73
c-7.33301 -10.667 -16.5 -21.167 -27.5 -31.5s-24.333 -19.5 -40 -27.5s-33.5 -14.5 -53.5 -19.5s-43 -7.5 -69 -7.5c-51.333 0 -96.333 9.33301 -135 28s-71.334 44.334 -98.001 77.001s-46.667 71 -60 115s-20 91.333 -20 142c0 53.333 7.66699 102.333 23 147
s37.333 83 66 115s63.667 57 105 75s88 27 140 27c66.667 0 123.667 -15.667 171 -47s83.666 -76.333 108.999 -135l-109 -43c-15.333 39.333 -37.5 70.5 -66.5 93.5s-65.833 34.5 -110.5 34.5c-30.667 0 -58.667 -5.83301 -84 -17.5s-47 -29 -65 -52s-32 -51.5 -42 -85.5
s-15 -73 -15 -117c0 -85.333 17.5 -150 52.5 -194s85.833 -66 152.5 -66c22 0 43.167 3 63.5 9s38.5 15 54.5 27s28.667 27.167 38 45.5s14 40.166 14 65.499v42h-191v93z" />
    <glyph glyph-name="gbreve" unicode="&#x11f;" horiz-adv-x="534" 
d="M503 412c-4.66699 4.66699 -10.168 7.83203 -16.501 9.49902s-12.5 2.5 -18.5 2.5c-8.66699 0 -16.167 -1.16699 -22.5 -3.5s-11.166 -5.16602 -14.499 -8.49902c11.333 -12 20 -26.667 26 -44s9 -35.333 9 -54c0 -27.333 -5.66699 -51.333 -17 -72
s-26.333 -38.334 -45 -53.001s-40.167 -25.667 -64.5 -33s-49.833 -11 -76.5 -11c-19.333 0 -34.5 1.33301 -45.5 4s-19.833 4 -26.5 4c-7.33301 0 -15.833 -2.66699 -25.5 -8s-14.5 -14.666 -14.5 -27.999c0 -8.66699 3.16699 -15.334 9.5 -20.001
s15.833 -8.16699 28.5 -10.5s28.5 -4.16602 47.5 -5.49902s40.833 -3 65.5 -5c28 -2 54.167 -5.33301 78.5 -10s45.666 -11.667 63.999 -21s32.666 -22 42.999 -38s15.5 -36.667 15.5 -62c0 -28 -6.5 -52 -19.5 -72s-30.667 -36.333 -53 -49s-48.5 -22 -78.5 -28
s-62 -9 -96 -9c-32 0 -61.667 2.5 -89 7.5s-51 13 -71 24s-35.667 24.667 -47 41s-17 36.166 -17 59.499c0 24 6.5 45.5 19.5 64.5s29.167 32.5 48.5 40.5c-18 8.66699 -31 20.334 -39 35.001s-12 29.334 -12 44.001c0 18.667 5.83301 35.667 17.5 51
s28.167 27.666 49.5 36.999c-17.333 13.333 -31.166 30.166 -41.499 50.499s-15.5 43.833 -15.5 70.5c0 28 5.66699 53 17 75s26.333 40.333 45 55s39.834 25.834 63.501 33.501s48.167 11.5 73.5 11.5c21.333 0 41.333 -2.5 60 -7.5s35 -10.833 49 -17.5
c12.667 10.667 26.667 19.167 42 25.5s34 9.5 56 9.5c12 0 23 -1 33 -3s18.667 -4.66699 26 -8zM169.999 313.998c0 -32 8.83301 -55.667 26.5 -71s39.5 -23 65.5 -23c26.667 0 48.834 7.66699 66.501 23s26.5 39 26.5 71s-8.83301 56.167 -26.5 72.5
s-39.834 24.5 -66.501 24.5c-26 0 -47.833 -8.16699 -65.5 -24.5s-26.5 -40.5 -26.5 -72.5zM274.999 -12.002c-23.333 1.33301 -43.833 2.83203 -61.5 4.49902s-32.167 3.83398 -43.5 6.50098c-13.333 -6 -23 -15.5 -29 -28.5s-9 -26.5 -9 -40.5
c0 -24 11.667 -41.167 35 -51.5s54.333 -15.5 93 -15.5c19.333 0 37.5 1.33301 54.5 4s31.667 7 44 13s22 13.5 29 22.5s10.5 19.833 10.5 32.5c0 20 -9.5 33.333 -28.5 40s-50.5 11 -94.5 13zM182.999 687.997c3.33301 -19.333 12 -35.833 26 -49.5s31.667 -20.5 53 -20.5
s39 6.83301 53 20.5s22.667 30.167 26 49.5l83 -24c-8 -35.333 -26.5 -64 -55.5 -86s-64.5 -33 -106.5 -33s-77.5 11 -106.5 33s-47.5 50.667 -55.5 86z" />
    <glyph glyph-name="Gdotaccent" unicode="&#x120;" horiz-adv-x="733" 
d="M309 832c0 20.667 6.5 37.5 19.5 50.5s30.167 19.5 51.5 19.5s38.5 -6.5 51.5 -19.5s19.5 -29.833 19.5 -50.5c0 -20 -6.5 -36.333 -19.5 -49s-30.167 -19 -51.5 -19s-38.5 6.33301 -51.5 19s-19.5 29 -19.5 49zM354 366h304.002v-366h-107v73
c-7.33301 -10.667 -16.5 -21.167 -27.5 -31.5s-24.333 -19.5 -40 -27.5s-33.5 -14.5 -53.5 -19.5s-43 -7.5 -69 -7.5c-51.333 0 -96.333 9.33301 -135 28s-71.334 44.334 -98.001 77.001s-46.667 71 -60 115s-20 91.333 -20 142c0 53.333 7.66699 102.333 23 147
s37.333 83 66 115s63.667 57 105 75s88 27 140 27c66.667 0 123.667 -15.667 171 -47s83.666 -76.333 108.999 -135l-109 -43c-15.333 39.333 -37.5 70.5 -66.5 93.5s-65.833 34.5 -110.5 34.5c-30.667 0 -58.667 -5.83301 -84 -17.5s-47 -29 -65 -52s-32 -51.5 -42 -85.5
s-15 -73 -15 -117c0 -85.333 17.5 -150 52.5 -194s85.833 -66 152.5 -66c22 0 43.167 3 63.5 9s38.5 15 54.5 27s28.667 27.167 38 45.5s14 40.166 14 65.499v42h-191v93z" />
    <glyph glyph-name="gdotaccent" unicode="&#x121;" horiz-adv-x="534" 
d="M503 412c-4.66699 4.66699 -10.168 7.83203 -16.501 9.49902s-12.5 2.5 -18.5 2.5c-8.66699 0 -16.167 -1.16699 -22.5 -3.5s-11.166 -5.16602 -14.499 -8.49902c11.333 -12 20 -26.667 26 -44s9 -35.333 9 -54c0 -27.333 -5.66699 -51.333 -17 -72
s-26.333 -38.334 -45 -53.001s-40.167 -25.667 -64.5 -33s-49.833 -11 -76.5 -11c-19.333 0 -34.5 1.33301 -45.5 4s-19.833 4 -26.5 4c-7.33301 0 -15.833 -2.66699 -25.5 -8s-14.5 -14.666 -14.5 -27.999c0 -8.66699 3.16699 -15.334 9.5 -20.001
s15.833 -8.16699 28.5 -10.5s28.5 -4.16602 47.5 -5.49902s40.833 -3 65.5 -5c28 -2 54.167 -5.33301 78.5 -10s45.666 -11.667 63.999 -21s32.666 -22 42.999 -38s15.5 -36.667 15.5 -62c0 -28 -6.5 -52 -19.5 -72s-30.667 -36.333 -53 -49s-48.5 -22 -78.5 -28
s-62 -9 -96 -9c-32 0 -61.667 2.5 -89 7.5s-51 13 -71 24s-35.667 24.667 -47 41s-17 36.166 -17 59.499c0 24 6.5 45.5 19.5 64.5s29.167 32.5 48.5 40.5c-18 8.66699 -31 20.334 -39 35.001s-12 29.334 -12 44.001c0 18.667 5.83301 35.667 17.5 51
s28.167 27.666 49.5 36.999c-17.333 13.333 -31.166 30.166 -41.499 50.499s-15.5 43.833 -15.5 70.5c0 28 5.66699 53 17 75s26.333 40.333 45 55s39.834 25.834 63.501 33.501s48.167 11.5 73.5 11.5c21.333 0 41.333 -2.5 60 -7.5s35 -10.833 49 -17.5
c12.667 10.667 26.667 19.167 42 25.5s34 9.5 56 9.5c12 0 23 -1 33 -3s18.667 -4.66699 26 -8zM169.999 313.998c0 -32 8.83301 -55.667 26.5 -71s39.5 -23 65.5 -23c26.667 0 48.834 7.66699 66.501 23s26.5 39 26.5 71s-8.83301 56.167 -26.5 72.5
s-39.834 24.5 -66.501 24.5c-26 0 -47.833 -8.16699 -65.5 -24.5s-26.5 -40.5 -26.5 -72.5zM274.999 -12.002c-23.333 1.33301 -43.833 2.83203 -61.5 4.49902s-32.167 3.83398 -43.5 6.50098c-13.333 -6 -23 -15.5 -29 -28.5s-9 -26.5 -9 -40.5
c0 -24 11.667 -41.167 35 -51.5s54.333 -15.5 93 -15.5c19.333 0 37.5 1.33301 54.5 4s31.667 7 44 13s22 13.5 29 22.5s10.5 19.833 10.5 32.5c0 20 -9.5 33.333 -28.5 40s-50.5 11 -94.5 13zM190.999 611.997c0 21.333 6.5 38.333 19.5 51s29.833 19 50.5 19
s37.5 -6.33301 50.5 -19s19.5 -29.667 19.5 -51c0 -18.667 -6.33301 -34.667 -19 -48s-29.667 -20 -51 -20s-38.333 6.66699 -51 20s-19 29.333 -19 48z" />
    <glyph glyph-name="Gcommaaccent" unicode="&#x122;" horiz-adv-x="733" 
d="M433 -140c0 -10 -1.33301 -21.5 -4 -34.5s-8 -25.5 -16 -37.5s-18.833 -22.667 -32.5 -32s-31.5 -15.333 -53.5 -18l-16 43c6 0 12.333 1.16699 19 3.5s12.834 5.5 18.501 9.5s10.5 8.66699 14.5 14s6 11.333 6 18v3c-1.33301 -0.666992 -5.33301 -1 -12 -1
c-14.667 0 -27.834 5.5 -39.501 16.5s-17.5 25.167 -17.5 42.5c0 14 5 27.5 15 40.5s25.667 19.5 47 19.5c24.667 0 42.667 -9 54 -27s17 -38 17 -60zM354 366h304.002v-366h-107v73c-7.33301 -10.667 -16.5 -21.167 -27.5 -31.5s-24.333 -19.5 -40 -27.5
s-33.5 -14.5 -53.5 -19.5s-43 -7.5 -69 -7.5c-51.333 0 -96.333 9.33301 -135 28s-71.334 44.334 -98.001 77.001s-46.667 71 -60 115s-20 91.333 -20 142c0 53.333 7.66699 102.333 23 147s37.333 83 66 115s63.667 57 105 75s88 27 140 27
c66.667 0 123.667 -15.667 171 -47s83.666 -76.333 108.999 -135l-109 -43c-15.333 39.333 -37.5 70.5 -66.5 93.5s-65.833 34.5 -110.5 34.5c-30.667 0 -58.667 -5.83301 -84 -17.5s-47 -29 -65 -52s-32 -51.5 -42 -85.5s-15 -73 -15 -117c0 -85.333 17.5 -150 52.5 -194
s85.833 -66 152.5 -66c22 0 43.167 3 63.5 9s38.5 15 54.5 27s28.667 27.167 38 45.5s14 40.166 14 65.499v42h-191v93z" />
    <glyph glyph-name="gcommaaccent" unicode="&#x123;" horiz-adv-x="534" 
d="M194 616c0 10 1.33398 21.334 4.00098 34.001s8 25 16 37s18.833 22.667 32.5 32s31.5 15.666 53.5 18.999l16 -43c-6 0 -12.5 -1.16699 -19.5 -3.5s-13.333 -5.5 -19 -9.5s-10.5 -8.66699 -14.5 -14s-6 -11.333 -6 -18v-3c1.33301 0 3 0.166992 5 0.5s4.33301 0.5 7 0.5
c15.333 0 28.666 -5.5 39.999 -16.5s17 -25.167 17 -42.5c0 -14 -5 -27.5 -15 -40.5s-25.667 -19.5 -47 -19.5c-24.667 0 -42.5 9 -53.5 27s-16.5 38 -16.5 60zM503.001 412.001c-4.66699 4.66699 -10.168 7.83203 -16.501 9.49902s-12.5 2.5 -18.5 2.5
c-8.66699 0 -16.167 -1.16699 -22.5 -3.5s-11.166 -5.16602 -14.499 -8.49902c11.333 -12 20 -26.667 26 -44s9 -35.333 9 -54c0 -27.333 -5.66699 -51.333 -17 -72s-26.333 -38.334 -45 -53.001s-40.167 -25.667 -64.5 -33s-49.833 -11 -76.5 -11
c-19.333 0 -34.5 1.33301 -45.5 4s-19.833 4 -26.5 4c-7.33301 0 -15.833 -2.66699 -25.5 -8s-14.5 -14.666 -14.5 -27.999c0 -8.66699 3.16699 -15.334 9.5 -20.001s15.833 -8.16699 28.5 -10.5s28.5 -4.16602 47.5 -5.49902s40.833 -3 65.5 -5
c28 -2 54.167 -5.33301 78.5 -10s45.666 -11.667 63.999 -21s32.666 -22 42.999 -38s15.5 -36.667 15.5 -62c0 -28 -6.5 -52 -19.5 -72s-30.667 -36.333 -53 -49s-48.5 -22 -78.5 -28s-62 -9 -96 -9c-32 0 -61.667 2.5 -89 7.5s-51 13 -71 24s-35.667 24.667 -47 41
s-17 36.166 -17 59.499c0 24 6.5 45.5 19.5 64.5s29.167 32.5 48.5 40.5c-18 8.66699 -31 20.334 -39 35.001s-12 29.334 -12 44.001c0 18.667 5.83301 35.667 17.5 51s28.167 27.666 49.5 36.999c-17.333 13.333 -31.166 30.166 -41.499 50.499s-15.5 43.833 -15.5 70.5
c0 28 5.66699 53 17 75s26.333 40.333 45 55s39.834 25.834 63.501 33.501s48.167 11.5 73.5 11.5c21.333 0 41.333 -2.5 60 -7.5s35 -10.833 49 -17.5c12.667 10.667 26.667 19.167 42 25.5s34 9.5 56 9.5c12 0 23 -1 33 -3s18.667 -4.66699 26 -8zM170 313.999
c0 -32 8.83301 -55.667 26.5 -71s39.5 -23 65.5 -23c26.667 0 48.834 7.66699 66.501 23s26.5 39 26.5 71s-8.83301 56.167 -26.5 72.5s-39.834 24.5 -66.501 24.5c-26 0 -47.833 -8.16699 -65.5 -24.5s-26.5 -40.5 -26.5 -72.5zM275 -12.001
c-23.333 1.33301 -43.833 2.83203 -61.5 4.49902s-32.167 3.83398 -43.5 6.50098c-13.333 -6 -23 -15.5 -29 -28.5s-9 -26.5 -9 -40.5c0 -24 11.667 -41.167 35 -51.5s54.333 -15.5 93 -15.5c19.333 0 37.5 1.33301 54.5 4s31.667 7 44 13s22 13.5 29 22.5
s10.5 19.833 10.5 32.5c0 20 -9.5 33.333 -28.5 40s-50.5 11 -94.5 13z" />
    <glyph glyph-name="Hcircumflex" unicode="&#x124;" horiz-adv-x="701" 
d="M81 700h118v-290h303v290h118v-700h-118v312h-303v-312h-118v700zM307 912h85l115 -115l-54 -52l-104 101l-101 -101l-54 52z" />
    <glyph glyph-name="hcircumflex" unicode="&#x125;" horiz-adv-x="565" 
d="M72 700l113.998 0.000976562v-291c12 21.333 29.5 39.666 52.5 54.999s53.5 23 91.5 23c22.667 0 44.334 -3.33301 65.001 -10s38.5 -16.667 53.5 -30s27 -30 36 -50s13.5 -43.333 13.5 -70v-327h-114v300c0 16.667 -2.5 31 -7.5 43s-11.5 21.833 -19.5 29.5
s-17.333 13.167 -28 16.5s-21.667 5 -33 5c-14 0 -27.667 -3 -41 -9s-25.166 -15 -35.499 -27s-18.5 -27 -24.5 -45s-9 -38.667 -9 -62v-251h-114v700zM84.998 912.001h85l115 -115l-54 -52l-104 101l-101 -101l-54 52z" />
    <glyph glyph-name="Hbar" unicode="&#x126;" horiz-adv-x="701" 
d="M81 499h-73v89h73v112h118v-112h303v112h118v-112h73v-89h-73v-499h-118v312h-303v-312h-118v499zM502 410v89h-303v-89h303z" />
    <glyph glyph-name="hbar" unicode="&#x127;" horiz-adv-x="565" 
d="M72 547l-61.002 0.000976562v82h61v71h114v-71h151v-82h-151v-138c12 21.333 29.5 39.666 52.5 54.999s53.5 23 91.5 23c22.667 0 44.334 -3.33301 65.001 -10s38.5 -16.667 53.5 -30s27 -30 36 -50s13.5 -43.333 13.5 -70v-327h-114v300c0 16.667 -2.5 31 -7.5 43
s-11.5 21.833 -19.5 29.5s-17.333 13.167 -28 16.5s-21.667 5 -33 5c-14 0 -27.667 -3 -41 -9s-25.166 -15 -35.499 -27s-18.5 -27 -24.5 -45s-9 -38.667 -9 -62v-251h-114v547z" />
    <glyph glyph-name="Itilde" unicode="&#x128;" horiz-adv-x="281" 
d="M81 700h118v-700h-118v700zM69 892c18 0 33.3301 -2.83203 45.9971 -8.49902s24.334 -11.667 35.001 -18s20.667 -12.333 30 -18s19.666 -8.5 30.999 -8.5c10.667 0 19.5 2.5 26.5 7.5s13.167 10.5 18.5 16.5c5.33301 7.33301 10 15.666 14 24.999l56 -49
c-7.33301 -14 -16.666 -26.333 -27.999 -37c-9.33301 -9.33301 -21.5 -17.833 -36.5 -25.5s-33.167 -11.5 -54.5 -11.5c-17.333 0 -32.333 2.66699 -45 8s-24.167 11.333 -34.5 18s-20.333 12.667 -30 18s-20.167 8 -31.5 8s-20.666 -2.5 -27.999 -7.5
s-13.333 -10.5 -18 -16.5c-5.33301 -7.33301 -9.66602 -15 -12.999 -23l-56 49c6.66699 13.333 15.667 25.333 27 36c9.33301 9.33301 21.5 17.833 36.5 25.5s33.167 11.5 54.5 11.5z" />
    <glyph glyph-name="itilde" unicode="&#x129;" horiz-adv-x="258" 
d="M72 474h114v-474h-114v474zM57 675c18 0 33.3301 -2.83203 45.9971 -8.49902s24.334 -11.667 35.001 -18s20.667 -12.333 30 -18s19.666 -8.5 30.999 -8.5c10.667 0 19.5 2.5 26.5 7.5s13.167 10.5 18.5 16.5c5.33301 7.33301 10 15.666 14 24.999l56 -49
c-7.33301 -14 -16.666 -26.333 -27.999 -37c-9.33301 -9.33301 -21.5 -17.833 -36.5 -25.5s-33.167 -11.5 -54.5 -11.5c-17.333 0 -32.333 2.83301 -45 8.5s-24.167 11.667 -34.5 18s-20.333 12.333 -30 18s-20.167 8.5 -31.5 8.5s-20.666 -2.5 -27.999 -7.5
s-13.333 -10.5 -18 -16.5c-5.33301 -7.33301 -9.66602 -15.333 -12.999 -24l-56 49c6.66699 13.333 15.667 25.333 27 36c9.33301 9.33301 21.5 17.833 36.5 25.5s33.167 11.5 54.5 11.5z" />
    <glyph glyph-name="Imacron" unicode="&#x12a;" horiz-adv-x="281" 
d="M81 700h118v-700h-118v700zM4 850h273v-75h-273v75z" />
    <glyph glyph-name="imacron" unicode="&#x12b;" horiz-adv-x="258" 
d="M72 474h114v-474h-114v474zM-7 630h273v-74h-273v74z" />
    <glyph glyph-name="Ibreve" unicode="&#x12c;" horiz-adv-x="281" 
d="M81 700h118v-700h-118v700zM61 901c3.33301 -19.333 12 -35.833 26 -49.5s31.667 -20.5 53 -20.5s39 6.83301 53 20.5s22.667 30.167 26 49.5l83 -24c-8 -36 -26.5 -64.833 -55.5 -86.5s-64.5 -32.5 -106.5 -32.5s-77.5 10.833 -106.5 32.5s-47.5 50.5 -55.5 86.5z" />
    <glyph glyph-name="ibreve" unicode="&#x12d;" horiz-adv-x="258" 
d="M72 474h114v-474h-114v474zM50 688c3.33301 -19.333 12 -35.833 26 -49.5s31.667 -20.5 53 -20.5s39 6.83301 53 20.5s22.667 30.167 26 49.5l83 -24c-8 -35.333 -26.5 -64 -55.5 -86s-64.5 -33 -106.5 -33s-77.5 11 -106.5 33s-47.5 50.667 -55.5 86z" />
    <glyph glyph-name="Iogonek" unicode="&#x12e;" horiz-adv-x="281" 
d="M81 700l117.996 0.000976562v-700c-36 -17.333 -61.833 -34.333 -77.5 -51s-23.5 -32.667 -23.5 -48c0 -10.667 3.5 -19.334 10.5 -26.001s17.833 -10 32.5 -10c10.667 0 20.5 2.66699 29.5 8s18.833 15.666 29.5 30.999l46 -42c-17.333 -22.667 -35.666 -39 -54.999 -49
s-40.666 -15 -63.999 -15c-14 0 -27.667 1.66699 -41 5s-25.166 8.83301 -35.499 16.5s-18.666 17.334 -24.999 29.001s-9.5 25.834 -9.5 42.501c0 25.333 6 46.166 18 62.499s27.667 31.833 47 46.5v700z" />
    <glyph glyph-name="iogonek" unicode="&#x12f;" horiz-adv-x="258" 
d="M72 474l113.996 0.000976562v-474c-36.667 -17.333 -62.667 -34.333 -78 -51s-23 -32.667 -23 -48c0 -10.667 3.5 -19.334 10.5 -26.001s17.833 -10 32.5 -10c10.667 0 20.5 2.66699 29.5 8s18.833 15.666 29.5 30.999l46 -42c-17.333 -22.667 -35.666 -39 -54.999 -49
s-40.666 -15 -63.999 -15c-14 0 -27.667 1.66699 -41 5s-25.166 8.83301 -35.499 16.5s-18.666 17.334 -24.999 29.001s-9.5 25.834 -9.5 42.501c0 25.333 6.5 46.166 19.5 62.499s29.5 31.833 49.5 46.5v474zM58.9961 643.001c0 21.333 6.5 38.166 19.5 50.499
s29.833 18.5 50.5 18.5s37.5 -6.16699 50.5 -18.5s19.5 -29.166 19.5 -50.499c0 -19.333 -6.33301 -35.666 -19 -48.999s-29.667 -20 -51 -20s-38.333 6.66699 -51 20s-19 29.666 -19 48.999z" />
    <glyph glyph-name="Idotaccent" unicode="&#x130;" horiz-adv-x="281" 
d="M81 700h118v-700h-118v700zM69 832c0 20.667 6.5 37.5 19.5 50.5s30.167 19.5 51.5 19.5s38.5 -6.5 51.5 -19.5s19.5 -29.833 19.5 -50.5c0 -20 -6.5 -36.333 -19.5 -49s-30.167 -19 -51.5 -19s-38.5 6.33301 -51.5 19s-19.5 29 -19.5 49z" />
    <glyph glyph-name="dotlessi" unicode="&#x131;" horiz-adv-x="258" 
d="M72 474h114v-474h-114v474z" />
    <glyph glyph-name="IJ" unicode="&#x132;" horiz-adv-x="724" 
d="M81 700h118v-700h-118v700zM442 84c32.667 0 55.335 12 68.002 36s19 61 19 111v469h119v-469c0 -35.333 -2.83301 -67.833 -8.5 -97.5s-16 -55.334 -31 -77.001s-35.5 -38.667 -61.5 -51s-59.667 -18.5 -101 -18.5c-47.333 0 -84.833 7.5 -112.5 22.5
s-50.834 34.167 -69.501 57.5l78 77c16.667 -19.333 32.167 -34.166 46.5 -44.499s32.166 -15.5 53.499 -15.5z" />
    <glyph glyph-name="ij" unicode="&#x133;" horiz-adv-x="519" 
d="M59 643c0 21.333 6.5 38.166 19.5 50.499s29.833 18.5 50.5 18.5s37.5 -6.16699 50.5 -18.5s19.5 -29.166 19.5 -50.499c0 -19.333 -6.33301 -35.666 -19 -48.999s-29.667 -20 -51 -20s-38.333 6.66699 -51 20s-19 29.666 -19 48.999zM72 474h114v-474h-114v474zM447 -47
c0 -30.667 -5.16797 -56.668 -15.501 -78.001s-23.5 -38.5 -39.5 -51.5s-33.833 -22.333 -53.5 -28s-39.167 -8.5 -58.5 -8.5c-21.333 0 -41.666 3 -60.999 9s-37.333 14 -54 24l46 85c7.33301 -5.33301 16.333 -10.666 27 -15.999s22.667 -8 36 -8
c18.667 0 33.167 6.66699 43.5 20s15.5 33 15.5 59v514h114v-521zM319.999 642.999c0 21.333 6.5 38.166 19.5 50.499s29.833 18.5 50.5 18.5s37.5 -6.16699 50.5 -18.5s19.5 -29.166 19.5 -50.499c0 -19.333 -6.33301 -35.666 -19 -48.999s-29.667 -20 -51 -20
s-38.333 6.66699 -51 20s-19 29.666 -19 48.999z" />
    <glyph glyph-name="Jcircumflex" unicode="&#x134;" horiz-adv-x="465" 
d="M183 84c32.667 0 55.335 12 68.002 36s19 61 19 111v469h119v-469c0 -35.333 -2.83301 -67.833 -8.5 -97.5s-16 -55.334 -31 -77.001s-35.5 -38.667 -61.5 -51s-59.667 -18.5 -101 -18.5c-47.333 0 -84.833 7.5 -112.5 22.5s-50.834 34.167 -69.501 57.5l78 77
c16.667 -19.333 32.167 -34.166 46.5 -44.499s32.166 -15.5 53.499 -15.5zM285.001 912h85l115 -115l-54 -52l-104 101l-101 -101l-54 52z" />
    <glyph glyph-name="jcircumflex" unicode="&#x135;" horiz-adv-x="261" 
d="M189 -48c0 -30.667 -5.16797 -56.668 -15.501 -78.001s-23.5 -38.5 -39.5 -51.5s-33.833 -22.333 -53.5 -28s-39.167 -8.5 -58.5 -8.5c-21.333 0 -41.666 2.83301 -60.999 8.5s-37.666 13.5 -54.999 23.5l47 88c7.33301 -5.33301 16.333 -10.666 27 -15.999
s22.667 -8 36 -8c19.333 0 34.166 6.5 44.499 19.5s15.5 32.167 15.5 57.5v515h113v-522zM93.999 705.999h74l115 -128l-55 -50l-98 106l-98 -106l-53 50z" />
    <glyph glyph-name="Kcommaaccent" unicode="&#x136;" horiz-adv-x="644" 
d="M399 -140c0 -10 -1.33301 -21.5 -4 -34.5s-8 -25.5 -16 -37.5s-18.833 -22.667 -32.5 -32s-31.5 -15.333 -53.5 -18l-16 43c6 0 12.333 1.16699 19 3.5s12.834 5.5 18.501 9.5s10.5 8.66699 14.5 14s6 11.333 6 18v3c-1.33301 -0.666992 -5.33301 -1 -12 -1
c-14.667 0 -27.834 5.5 -39.501 16.5s-17.5 25.167 -17.5 42.5c0 14 5 27.5 15 40.5s25.667 19.5 47 19.5c24.667 0 42.667 -9 54 -27s17 -38 17 -60zM267 334l-68 -74v-260h-118v700h118v-295l270 295h138l-258 -282l283 -418h-142z" />
    <glyph glyph-name="kcommaaccent" unicode="&#x137;" horiz-adv-x="534" 
d="M350 -140c0 -10 -1.33301 -21.5 -4 -34.5s-8 -25.5 -16 -37.5s-18.833 -22.667 -32.5 -32s-31.5 -15.333 -53.5 -18l-16 43c6 0 12.333 1.16699 19 3.5s12.834 5.5 18.501 9.5s10.5 8.66699 14.5 14s6 11.333 6 18v3c-1.33301 -0.666992 -5.33301 -1 -12 -1
c-14.667 0 -27.834 5.5 -39.501 16.5s-17.5 25.167 -17.5 42.5c0 14 5 27.5 15 40.5s25.667 19.5 47 19.5c24.667 0 42.667 -9 54 -27s17 -38 17 -60zM234 230l-48 -44v-186h-114v700h114v-396l184 170h133l-187 -174l213 -300h-134z" />
    <glyph glyph-name="kgreenlandic" unicode="&#x138;" horiz-adv-x="534" 
d="M235 229l-49 -45v-184h-114v474h114v-170l184 170h133l-187 -174l213 -300h-134z" />
    <glyph glyph-name="Lacute" unicode="&#x139;" horiz-adv-x="527" 
d="M308 857l-202 -109l-37 60l189 131zM81 700h118v-603h308v-97h-426v700z" />
    <glyph glyph-name="lacute" unicode="&#x13a;" horiz-adv-x="258" 
d="M246 857l-202 -109l-37 60l189 131zM72 700h114v-700h-114v700z" />
    <glyph glyph-name="Lcommaaccent" unicode="&#x13b;" horiz-adv-x="527" 
d="M351 -140c0 -10 -1.33301 -21.5 -4 -34.5s-8 -25.5 -16 -37.5s-18.833 -22.667 -32.5 -32s-31.5 -15.333 -53.5 -18l-16 43c6 0 12.333 1.16699 19 3.5s12.834 5.5 18.501 9.5s10.5 8.66699 14.5 14s6 11.333 6 18v3c-1.33301 -0.666992 -5.33301 -1 -12 -1
c-14.667 0 -27.834 5.5 -39.501 16.5s-17.5 25.167 -17.5 42.5c0 14 5 27.5 15 40.5s25.667 19.5 47 19.5c24.667 0 42.667 -9 54 -27s17 -38 17 -60zM81 700h118v-603h308v-97h-426v700z" />
    <glyph glyph-name="lcommaaccent" unicode="&#x13c;" horiz-adv-x="258" 
d="M198 -140c0 -10 -1.33301 -21.5 -4 -34.5s-8 -25.5 -16 -37.5s-18.833 -22.667 -32.5 -32s-31.5 -15.333 -53.5 -18l-16 43c6 0 12.333 1.16699 19 3.5s12.834 5.5 18.501 9.5s10.5 8.66699 14.5 14s6 11.333 6 18v3c-1.33301 -0.666992 -5.33301 -1 -12 -1
c-14.667 0 -27.834 5.5 -39.501 16.5s-17.5 25.167 -17.5 42.5c0 14 5 27.5 15 40.5s25.667 19.5 47 19.5c24.667 0 42.667 -9 54 -27s17 -38 17 -60zM72 700h114v-700h-114v700z" />
    <glyph glyph-name="Lcaron" unicode="&#x13d;" horiz-adv-x="527" 
d="M406 708l-64 -177l-64 17l41 183zM81 700h118v-603h308v-97h-426v700z" />
    <glyph glyph-name="lcaron" unicode="&#x13e;" horiz-adv-x="258" 
d="M368 708l-64 -177l-64 17l41 183zM72 700h114v-700h-114v700z" />
    <glyph glyph-name="Ldot" unicode="&#x13f;" horiz-adv-x="527" 
d="M81 700h118v-603h308v-97h-426v700zM310 359c0 21.333 6.5 38.333 19.5 51s29.833 19 50.5 19s37.5 -6.33301 50.5 -19s19.5 -29.667 19.5 -51c0 -18.667 -6.33301 -34.667 -19 -48s-29.667 -20 -51 -20s-38.333 6.66699 -51 20s-19 29.333 -19 48z" />
    <glyph glyph-name="ldot" unicode="&#x140;" horiz-adv-x="386" 
d="M72 700h114v-700h-114v700zM234 349c0 21.333 6.5 38.333 19.5 51s29.833 19 50.5 19s37.5 -6.33301 50.5 -19s19.5 -29.667 19.5 -51c0 -18.667 -6.33301 -34.667 -19 -48s-29.667 -20 -51 -20s-38.333 6.66699 -51 20s-19 29.333 -19 48z" />
    <glyph glyph-name="Lslash" unicode="&#x141;" horiz-adv-x="553" 
d="M106 242l-58 -34l-45 76l103 61v355h118v-286l131 78l44 -77l-175 -104v-214h308v-97h-426v242z" />
    <glyph glyph-name="lslash" unicode="&#x142;" horiz-adv-x="318" 
d="M102 282l-60 -35l-43 74l103 61v318h114v-250l74 44l43 -75l-117 -69v-350h-114v282z" />
    <glyph glyph-name="Nacute" unicode="&#x143;" horiz-adv-x="726" 
d="M505 857l-202 -109l-37 60l189 131zM81 700h124c48 -76 93.333 -147.333 136 -214c18 -28.667 36.333 -57.667 55 -87s36.5 -57.5 53.5 -84.5s32.5 -51.833 46.5 -74.5s25.667 -41 35 -55h3v515h111v-700h-124c-47.333 74.667 -92 145 -134 211
c-18 28 -36.333 56.833 -55 86.5s-36.5 58 -53.5 85s-32.667 52 -47 75s-26.5 42.167 -36.5 57.5h-3v-515h-111v700z" />
    <glyph glyph-name="nacute" unicode="&#x144;" horiz-adv-x="565" 
d="M428 641l-202 -109l-37 60l189 131zM72 474h108.999v-72c14 24.667 33 45 57 61s54.667 24 92 24c22.667 0 44.334 -3.33301 65.001 -10s38.5 -16.667 53.5 -30s27 -30 36 -50s13.5 -43.333 13.5 -70v-327h-114v300c0 16.667 -2.5 31 -7.5 43s-11.667 21.833 -20 29.5
s-17.833 13.167 -28.5 16.5s-21.334 5 -32.001 5c-14 0 -27.667 -3 -41 -9s-25.166 -15 -35.499 -27s-18.5 -27 -24.5 -45s-9 -38.667 -9 -62v-251h-114v474z" />
    <glyph glyph-name="Ncommaaccent" unicode="&#x145;" horiz-adv-x="726" 
d="M438 -140c0 -10 -1.33301 -21.5 -4 -34.5s-8 -25.5 -16 -37.5s-18.833 -22.667 -32.5 -32s-31.5 -15.333 -53.5 -18l-16 43c6 0 12.333 1.16699 19 3.5s12.834 5.5 18.501 9.5s10.5 8.66699 14.5 14s6 11.333 6 18v3c-1.33301 -0.666992 -5.33301 -1 -12 -1
c-14.667 0 -27.834 5.5 -39.501 16.5s-17.5 25.167 -17.5 42.5c0 14 5 27.5 15 40.5s25.667 19.5 47 19.5c24.667 0 42.667 -9 54 -27s17 -38 17 -60zM81 700h124c48 -76 93.333 -147.333 136 -214c18 -28.667 36.333 -57.667 55 -87s36.5 -57.5 53.5 -84.5
s32.5 -51.833 46.5 -74.5s25.667 -41 35 -55h3v515h111v-700h-124c-47.333 74.667 -92 145 -134 211c-18 28 -36.333 56.833 -55 86.5s-36.5 58 -53.5 85s-32.667 52 -47 75s-26.5 42.167 -36.5 57.5h-3v-515h-111v700z" />
    <glyph glyph-name="ncommaaccent" unicode="&#x146;" horiz-adv-x="565" 
d="M355 -140c0 -10 -1.33301 -21.5 -4 -34.5s-8 -25.5 -16 -37.5s-18.833 -22.667 -32.5 -32s-31.5 -15.333 -53.5 -18l-16 43c6 0 12.333 1.16699 19 3.5s12.834 5.5 18.501 9.5s10.5 8.66699 14.5 14s6 11.333 6 18v3c-1.33301 -0.666992 -5.33301 -1 -12 -1
c-14.667 0 -27.834 5.5 -39.501 16.5s-17.5 25.167 -17.5 42.5c0 14 5 27.5 15 40.5s25.667 19.5 47 19.5c24.667 0 42.667 -9 54 -27s17 -38 17 -60zM72 474h108.999v-72c14 24.667 33 45 57 61s54.667 24 92 24c22.667 0 44.334 -3.33301 65.001 -10
s38.5 -16.667 53.5 -30s27 -30 36 -50s13.5 -43.333 13.5 -70v-327h-114v300c0 16.667 -2.5 31 -7.5 43s-11.667 21.833 -20 29.5s-17.833 13.167 -28.5 16.5s-21.334 5 -32.001 5c-14 0 -27.667 -3 -41 -9s-25.166 -15 -35.499 -27s-18.5 -27 -24.5 -45s-9 -38.667 -9 -62
v-251h-114v474z" />
    <glyph glyph-name="Ncaron" unicode="&#x147;" horiz-adv-x="726" 
d="M205 867l54 51l102 -101l102 101l54 -51l-114 -116h-85zM81 700h124c48 -76 93.333 -147.333 136 -214c18 -28.667 36.333 -57.667 55 -87s36.5 -57.5 53.5 -84.5s32.5 -51.833 46.5 -74.5s25.667 -41 35 -55h3v515h111v-700h-124c-47.333 74.667 -92 145 -134 211
c-18 28 -36.333 56.833 -55 86.5s-36.5 58 -53.5 85s-32.667 52 -47 75s-26.5 42.167 -36.5 57.5h-3v-515h-111v700z" />
    <glyph glyph-name="ncaron" unicode="&#x148;" horiz-adv-x="565" 
d="M325 534h-73l-116 128l55 50l98 -106l98 106l54 -50zM72 474h108.999v-72c14 24.667 33 45 57 61s54.667 24 92 24c22.667 0 44.334 -3.33301 65.001 -10s38.5 -16.667 53.5 -30s27 -30 36 -50s13.5 -43.333 13.5 -70v-327h-114v300c0 16.667 -2.5 31 -7.5 43
s-11.667 21.833 -20 29.5s-17.833 13.167 -28.5 16.5s-21.334 5 -32.001 5c-14 0 -27.667 -3 -41 -9s-25.166 -15 -35.499 -27s-18.5 -27 -24.5 -45s-9 -38.667 -9 -62v-251h-114v474z" />
    <glyph glyph-name="Eng" unicode="&#x14a;" horiz-adv-x="726" 
d="M81 700l124 -0.00195312c48 -76 93.333 -147 136 -213c18 -28.667 36.333 -57.667 55 -87s36.5 -57.166 53.5 -83.499s32.5 -50.666 46.5 -72.999s25.667 -40.5 35 -54.5h3v511h111v-721c0 -64.667 -15.833 -112.834 -47.5 -144.501s-78.167 -47.5 -139.5 -47.5
c-40 0 -72.833 6.5 -98.5 19.5s-47.167 29.5 -64.5 49.5l76 76c13.333 -14.667 26.333 -26.667 39 -36s27.667 -14 45 -14c25.333 0 43.833 9.5 55.5 28.5s17.5 43.5 17.5 73.5v12c-3.33301 4.66699 -12 18.167 -26 40.5s-31.333 49.333 -52 81s-43.167 66.5 -67.5 104.5
s-48.333 75.333 -72 112s-45.667 70.834 -66 102.501s-36.833 57.5 -49.5 77.5h-3v-514h-111v700z" />
    <glyph glyph-name="eng" unicode="&#x14b;" horiz-adv-x="565" 
d="M384 300c0 16.667 -2.50098 30.999 -7.50098 42.999s-11.667 21.833 -20 29.5s-17.833 13.167 -28.5 16.5s-21.334 5 -32.001 5c-14 0 -27.667 -3 -41 -9s-25.166 -15 -35.499 -27s-18.5 -27 -24.5 -45s-9 -38.667 -9 -62v-251h-114v474h109v-72c14 24.667 33 45 57 61
s54.667 24 92 24c22.667 0 44.334 -3.33301 65.001 -10s38.5 -16.667 53.5 -30s27 -30 36 -50s13.5 -43.333 13.5 -70v-375c0 -30.667 -5.16699 -56.667 -15.5 -78s-23.5 -38.5 -39.5 -51.5s-34 -22.333 -54 -28s-39.667 -8.5 -59 -8.5c-21.333 0 -41.5 2.83301 -60.5 8.5
s-37.167 13.5 -54.5 23.5l46 88c7.33301 -5.33301 16.333 -10.666 27 -15.999s23 -8 37 -8c18.667 0 33.167 6.5 43.5 19.5s15.5 32.167 15.5 57.5v341v0z" />
    <glyph glyph-name="Omacron" unicode="&#x14c;" horiz-adv-x="749" 
d="M238 850h273v-75h-273v75zM48 350c0 56 7.83301 106.5 23.5 151.5s37.834 83.167 66.501 114.5s63 55.333 103 72s84.333 25 133 25s93.167 -8.33301 133.5 -25s74.833 -40.667 103.5 -72s50.834 -69.5 66.501 -114.5s23.5 -95.5 23.5 -151.5
s-7.83301 -106.5 -23.5 -151.5s-37.834 -83.167 -66.501 -114.5s-63.167 -55.333 -103.5 -72s-84.833 -25 -133.5 -25s-93 8.33301 -133 25s-74.333 40.667 -103 72s-50.834 69.5 -66.501 114.5s-23.5 95.5 -23.5 151.5zM170 350c0 -38 4.16699 -73.333 12.5 -106
s21 -60.834 38 -84.501s38.333 -42.167 64 -55.5s55.5 -20 89.5 -20c34.667 0 64.834 6.66699 90.501 20s47 31.833 64 55.5s29.667 51.834 38 84.501s12.5 68 12.5 106s-4.16699 73.333 -12.5 106s-21 60.834 -38 84.501s-38.333 42.167 -64 55.5s-55.834 20 -90.501 20
c-34 0 -63.833 -6.66699 -89.5 -20s-47 -31.833 -64 -55.5s-29.667 -51.834 -38 -84.501s-12.5 -68 -12.5 -106z" />
    <glyph glyph-name="omacron" unicode="&#x14d;" horiz-adv-x="553" 
d="M140 630h273v-74h-273v74zM276 487c36.667 0 69.667 -6 99 -18s54.333 -29 75 -51s36.5 -48.333 47.5 -79s16.5 -64.667 16.5 -102s-5.5 -71.333 -16.5 -102s-26.833 -57 -47.5 -79s-45.667 -39 -75 -51s-62.333 -18 -99 -18s-69.667 6 -99 18s-54.166 29 -74.499 51
s-36 48.333 -47 79s-16.5 64.667 -16.5 102s5.5 71.333 16.5 102s26.667 57 47 79s45.166 39 74.499 51s62.333 18 99 18zM276 74c20.667 0 38.667 4.33301 54 13s28 20.334 38 35.001s17.5 31.834 22.5 51.501s7.5 40.834 7.5 63.501s-2.5 43.834 -7.5 63.501
s-12.5 36.834 -22.5 51.501s-22.667 26.334 -38 35.001s-33.333 13 -54 13s-38.5 -4.33301 -53.5 -13s-27.5 -20.334 -37.5 -35.001s-17.5 -31.834 -22.5 -51.501s-7.5 -40.834 -7.5 -63.501s2.5 -43.834 7.5 -63.501s12.5 -36.834 22.5 -51.501s22.5 -26.334 37.5 -35.001
s32.833 -13 53.5 -13z" />
    <glyph glyph-name="Obreve" unicode="&#x14e;" horiz-adv-x="749" 
d="M295 901c3.33301 -19.333 12 -35.833 26 -49.5s31.667 -20.5 53 -20.5s39 6.83301 53 20.5s22.667 30.167 26 49.5l83 -24c-8 -36 -26.5 -64.833 -55.5 -86.5s-64.5 -32.5 -106.5 -32.5s-77.5 10.833 -106.5 32.5s-47.5 50.5 -55.5 86.5zM48 350
c0 56 7.83301 106.5 23.5 151.5s37.834 83.167 66.501 114.5s63 55.333 103 72s84.333 25 133 25s93.167 -8.33301 133.5 -25s74.833 -40.667 103.5 -72s50.834 -69.5 66.501 -114.5s23.5 -95.5 23.5 -151.5s-7.83301 -106.5 -23.5 -151.5s-37.834 -83.167 -66.501 -114.5
s-63.167 -55.333 -103.5 -72s-84.833 -25 -133.5 -25s-93 8.33301 -133 25s-74.333 40.667 -103 72s-50.834 69.5 -66.501 114.5s-23.5 95.5 -23.5 151.5zM170 350c0 -38 4.16699 -73.333 12.5 -106s21 -60.834 38 -84.501s38.333 -42.167 64 -55.5s55.5 -20 89.5 -20
c34.667 0 64.834 6.66699 90.501 20s47 31.833 64 55.5s29.667 51.834 38 84.501s12.5 68 12.5 106s-4.16699 73.333 -12.5 106s-21 60.834 -38 84.501s-38.333 42.167 -64 55.5s-55.834 20 -90.501 20c-34 0 -63.833 -6.66699 -89.5 -20s-47 -31.833 -64 -55.5
s-29.667 -51.834 -38 -84.501s-12.5 -68 -12.5 -106z" />
    <glyph glyph-name="obreve" unicode="&#x14f;" horiz-adv-x="553" 
d="M276 487c36.667 0 69.667 -6 99 -18s54.333 -29 75 -51s36.5 -48.333 47.5 -79s16.5 -64.667 16.5 -102s-5.5 -71.333 -16.5 -102s-26.833 -57 -47.5 -79s-45.667 -39 -75 -51s-62.333 -18 -99 -18s-69.667 6 -99 18s-54.166 29 -74.499 51s-36 48.333 -47 79
s-16.5 64.667 -16.5 102s5.5 71.333 16.5 102s26.667 57 47 79s45.166 39 74.499 51s62.333 18 99 18zM276 74c20.667 0 38.667 4.33301 54 13s28 20.334 38 35.001s17.5 31.834 22.5 51.501s7.5 40.834 7.5 63.501s-2.5 43.834 -7.5 63.501s-12.5 36.834 -22.5 51.501
s-22.667 26.334 -38 35.001s-33.333 13 -54 13s-38.5 -4.33301 -53.5 -13s-27.5 -20.334 -37.5 -35.001s-17.5 -31.834 -22.5 -51.501s-7.5 -40.834 -7.5 -63.501s2.5 -43.834 7.5 -63.501s12.5 -36.834 22.5 -51.501s22.5 -26.334 37.5 -35.001s32.833 -13 53.5 -13z
M197 688c3.33301 -19.333 12 -35.833 26 -49.5s31.667 -20.5 53 -20.5s39 6.83301 53 20.5s22.667 30.167 26 49.5l83 -24c-8 -35.333 -26.5 -64 -55.5 -86s-64.5 -33 -106.5 -33s-77.5 11 -106.5 33s-47.5 50.667 -55.5 86z" />
    <glyph glyph-name="Ohungarumlaut" unicode="&#x150;" horiz-adv-x="749" 
d="M48 350c0 56 7.83301 106.5 23.5 151.5s37.834 83.167 66.501 114.5s63 55.333 103 72s84.333 25 133 25s93.167 -8.33301 133.5 -25s74.833 -40.667 103.5 -72s50.834 -69.5 66.501 -114.5s23.5 -95.5 23.5 -151.5s-7.83301 -106.5 -23.5 -151.5
s-37.834 -83.167 -66.501 -114.5s-63.167 -55.333 -103.5 -72s-84.833 -25 -133.5 -25s-93 8.33301 -133 25s-74.333 40.667 -103 72s-50.834 69.5 -66.501 114.5s-23.5 95.5 -23.5 151.5zM170 350c0 -38 4.16699 -73.333 12.5 -106s21 -60.834 38 -84.501
s38.333 -42.167 64 -55.5s55.5 -20 89.5 -20c34.667 0 64.834 6.66699 90.501 20s47 31.833 64 55.5s29.667 51.834 38 84.501s12.5 68 12.5 106s-4.16699 73.333 -12.5 106s-21 60.834 -38 84.501s-38.333 42.167 -64 55.5s-55.834 20 -90.501 20
c-34 0 -63.833 -6.66699 -89.5 -20s-47 -31.833 -64 -55.5s-29.667 -51.834 -38 -84.501s-12.5 -68 -12.5 -106zM654 870l-192 -121l-40 56l176 143zM421 870l-192 -121l-41 56l176 143z" />
    <glyph glyph-name="ohungarumlaut" unicode="&#x151;" horiz-adv-x="553" 
d="M559 654l-192 -121l-40 56l176 143zM326 654l-192 -121l-41 56l176 143zM276 487c36.667 0 69.667 -6 99 -18s54.333 -29 75 -51s36.5 -48.333 47.5 -79s16.5 -64.667 16.5 -102s-5.5 -71.333 -16.5 -102s-26.833 -57 -47.5 -79s-45.667 -39 -75 -51s-62.333 -18 -99 -18
s-69.667 6 -99 18s-54.166 29 -74.499 51s-36 48.333 -47 79s-16.5 64.667 -16.5 102s5.5 71.333 16.5 102s26.667 57 47 79s45.166 39 74.499 51s62.333 18 99 18zM276 74c20.667 0 38.667 4.33301 54 13s28 20.334 38 35.001s17.5 31.834 22.5 51.501
s7.5 40.834 7.5 63.501s-2.5 43.834 -7.5 63.501s-12.5 36.834 -22.5 51.501s-22.667 26.334 -38 35.001s-33.333 13 -54 13s-38.5 -4.33301 -53.5 -13s-27.5 -20.334 -37.5 -35.001s-17.5 -31.834 -22.5 -51.501s-7.5 -40.834 -7.5 -63.501s2.5 -43.834 7.5 -63.501
s12.5 -36.834 22.5 -51.501s22.5 -26.334 37.5 -35.001s32.833 -13 53.5 -13z" />
    <glyph glyph-name="OE" unicode="&#x152;" horiz-adv-x="1058" 
d="M48 350c0 56 7.99609 106.331 23.9961 150.998s38.333 82.834 67 114.501s62.334 55.834 101.001 72.501s80.667 25 126 25c46.667 0 86.834 -8.5 120.501 -25.5s60.167 -40.5 79.5 -70.5v83h441v-97h-324v-194h302v-97h-302v-215h330v-97h-447v82
c-20 -30 -46.667 -53.333 -80 -70s-72 -25 -116 -25c-47.333 0 -90.666 8.5 -129.999 25.5s-73.166 41.167 -101.499 72.5s-50.5 69.333 -66.5 114s-24 95 -24 151zM169.996 349.998c0 -38 4.33301 -73.1689 13 -105.502s21.5 -60.5 38.5 -84.5s38 -42.667 63 -56
s54.167 -20 87.5 -20c32 0 60.167 6.5 84.5 19.5s44.5 30.833 60.5 53.5s28.167 49.5 36.5 80.5s12.5 64.5 12.5 100.5v21c0 38.667 -4.66699 73.834 -14 105.501s-22.5 58.667 -39.5 81s-37.5 39.5 -61.5 51.5s-51 18 -81 18c-32 0 -60.5 -6.66699 -85.5 -20
s-46 -31.666 -63 -54.999s-29.833 -51.333 -38.5 -84s-13 -68 -13 -106z" />
    <glyph glyph-name="oe" unicode="&#x153;" horiz-adv-x="875" 
d="M826 104c-18.667 -36 -44.501 -64.501 -77.501 -85.501s-74.5 -31.5 -124.5 -31.5c-38 0 -71.5 7.16699 -100.5 21.5s-53.167 34.5 -72.5 60.5c-19.333 -26 -43.833 -46.167 -73.5 -60.5s-63.5 -21.5 -101.5 -21.5c-36.667 0 -69.667 6 -99 18s-54.166 29 -74.499 51
s-36 48.333 -47 79s-16.5 64.667 -16.5 102s5.5 71.333 16.5 102s26.667 57 47 79s45.166 39 74.499 51s62.333 18 99 18c38 0 71.833 -7.33301 101.5 -22s54.167 -35 73.5 -61c19.333 26 43.333 46.333 72 61s61 22 97 22c37.333 0 70 -6.66699 98 -20
s51.167 -31.166 69.5 -53.499s32.166 -48.333 41.499 -78s14 -60.5 14 -92.5v-32h-340c0.666992 -18 3.33398 -35.333 8.00098 -52s11.834 -31.5 21.501 -44.5s22 -23.333 37 -31s33.167 -11.5 54.5 -11.5c28 0 49.833 6.66699 65.5 20s28.167 30.333 37.5 51z
M618.999 403.999c-34 0 -60.6689 -11 -80.002 -33s-30.666 -50.333 -33.999 -85h223c-1.33301 38 -12.166 67.167 -32.499 87.5s-45.833 30.5 -76.5 30.5zM275.997 73.999c20.667 0 38.834 4.33301 54.501 13s28.5 20.334 38.5 35.001s17.5 31.834 22.5 51.501
s7.5 40.834 7.5 63.501s-2.5 43.834 -7.5 63.501s-12.5 36.834 -22.5 51.501s-22.833 26.334 -38.5 35.001s-33.834 13 -54.501 13s-38.5 -4.33301 -53.5 -13s-27.5 -20.334 -37.5 -35.001s-17.5 -31.834 -22.5 -51.501s-7.5 -40.834 -7.5 -63.501s2.5 -43.834 7.5 -63.501
s12.5 -36.834 22.5 -51.501s22.5 -26.334 37.5 -35.001s32.833 -13 53.5 -13z" />
    <glyph glyph-name="Racute" unicode="&#x154;" horiz-adv-x="645" 
d="M582 500c0 -52 -13.335 -94.833 -40.002 -128.5s-62.334 -57.167 -107.001 -70.5l175 -301h-135l-162 287h-115v-287h-117v700h251c30.667 0 60.834 -3.16699 90.501 -9.5s56.334 -17.166 80.001 -32.499s42.834 -35.833 57.501 -61.5s22 -57.834 22 -96.501z
M461.998 497c0 38 -12.666 65.167 -37.999 81.5s-62.333 24.5 -111 24.5h-115v-221h123c49.333 0 85.166 10.167 107.499 30.5s33.5 48.5 33.5 84.5zM445.999 857l-202 -109l-37 60l189 131z" />
    <glyph glyph-name="racute" unicode="&#x155;" horiz-adv-x="384" 
d="M376 641l-202 -109l-37 60l189 131zM356 371c-7.33301 6 -15.834 10.5 -25.501 13.5s-19.5 4.5 -29.5 4.5c-14 0 -27.833 -3 -41.5 -9s-26 -15.167 -37 -27.5s-19.833 -28 -26.5 -47s-10 -41.167 -10 -66.5v-239h-114v474h107v-77c13.333 30 31.833 52.5 55.5 67.5
s51.834 22.5 84.501 22.5c9.33301 0 19.333 -0.833008 30 -2.5s20.667 -4.5 30 -8.5z" />
    <glyph glyph-name="Rcommaaccent" unicode="&#x156;" horiz-adv-x="645" 
d="M390 -140c0 -10 -1.33301 -21.5 -4 -34.5s-8 -25.5 -16 -37.5s-18.833 -22.667 -32.5 -32s-31.5 -15.333 -53.5 -18l-16 43c6 0 12.333 1.16699 19 3.5s12.834 5.5 18.501 9.5s10.5 8.66699 14.5 14s6 11.333 6 18v3c-1.33301 -0.666992 -5.33301 -1 -12 -1
c-14.667 0 -27.834 5.5 -39.501 16.5s-17.5 25.167 -17.5 42.5c0 14 5 27.5 15 40.5s25.667 19.5 47 19.5c24.667 0 42.667 -9 54 -27s17 -38 17 -60zM582 500c0 -52 -13.335 -94.833 -40.002 -128.5s-62.334 -57.167 -107.001 -70.5l175 -301h-135l-162 287h-115v-287h-117
v700h251c30.667 0 60.834 -3.16699 90.501 -9.5s56.334 -17.166 80.001 -32.499s42.834 -35.833 57.501 -61.5s22 -57.834 22 -96.501zM461.998 497c0 38 -12.666 65.167 -37.999 81.5s-62.333 24.5 -111 24.5h-115v-221h123c49.333 0 85.166 10.167 107.499 30.5
s33.5 48.5 33.5 84.5z" />
    <glyph glyph-name="rcommaaccent" unicode="&#x157;" horiz-adv-x="384" 
d="M198 -140c0 -10 -1.33301 -21.5 -4 -34.5s-8 -25.5 -16 -37.5s-18.833 -22.667 -32.5 -32s-31.5 -15.333 -53.5 -18l-16 43c6 0 12.333 1.16699 19 3.5s12.834 5.5 18.501 9.5s10.5 8.66699 14.5 14s6 11.333 6 18v3c-1.33301 -0.666992 -5.33301 -1 -12 -1
c-14.667 0 -27.834 5.5 -39.501 16.5s-17.5 25.167 -17.5 42.5c0 14 5 27.5 15 40.5s25.667 19.5 47 19.5c24.667 0 42.667 -9 54 -27s17 -38 17 -60zM356 371c-7.33301 6 -15.834 10.5 -25.501 13.5s-19.5 4.5 -29.5 4.5c-14 0 -27.833 -3 -41.5 -9s-26 -15.167 -37 -27.5
s-19.833 -28 -26.5 -47s-10 -41.167 -10 -66.5v-239h-114v474h107v-77c13.333 30 31.833 52.5 55.5 67.5s51.834 22.5 84.501 22.5c9.33301 0 19.333 -0.833008 30 -2.5s20.667 -4.5 30 -8.5z" />
    <glyph glyph-name="Rcaron" unicode="&#x158;" horiz-adv-x="645" 
d="M156 867l54 51l102 -101l102 101l54 -51l-114 -116h-85zM582 500c0 -52 -13.335 -94.833 -40.002 -128.5s-62.334 -57.167 -107.001 -70.5l175 -301h-135l-162 287h-115v-287h-117v700h251c30.667 0 60.834 -3.16699 90.501 -9.5s56.334 -17.166 80.001 -32.499
s42.834 -35.833 57.501 -61.5s22 -57.834 22 -96.501zM461.998 497c0 38 -12.666 65.167 -37.999 81.5s-62.333 24.5 -111 24.5h-115v-221h123c49.333 0 85.166 10.167 107.499 30.5s33.5 48.5 33.5 84.5z" />
    <glyph glyph-name="rcaron" unicode="&#x159;" horiz-adv-x="384" 
d="M261 534h-73l-116 128l55 50l98 -106l98 106l54 -50zM356 371c-7.33301 6 -15.834 10.5 -25.501 13.5s-19.5 4.5 -29.5 4.5c-14 0 -27.833 -3 -41.5 -9s-26 -15.167 -37 -27.5s-19.833 -28 -26.5 -47s-10 -41.167 -10 -66.5v-239h-114v474h107v-77
c13.333 30 31.833 52.5 55.5 67.5s51.834 22.5 84.501 22.5c9.33301 0 19.333 -0.833008 30 -2.5s20.667 -4.5 30 -8.5z" />
    <glyph glyph-name="Sacute" unicode="&#x15a;" horiz-adv-x="638" 
d="M183 519c0 -16.667 2.83594 -30.6689 8.50293 -42.002s15 -21.166 28 -29.499s30 -15.5 51 -21.5s46.5 -11.333 76.5 -16c40 -6.66699 75.333 -15.334 106 -26.001s56.334 -24.167 77.001 -40.5s36.167 -36 46.5 -59s15.5 -50.5 15.5 -82.5s-6.5 -61.333 -19.5 -88
s-31.167 -49.334 -54.5 -68.001s-51.5 -33.167 -84.5 -43.5s-69.833 -15.5 -110.5 -15.5c-43.333 0 -81.833 5.66699 -115.5 17s-62.334 26.5 -86.001 45.5s-41.834 41.333 -54.501 67s-19.667 52.834 -21 81.501l117 18c1.33301 -17.333 5.33301 -34.166 12 -50.499
s16.5 -30.666 29.5 -42.999s29.167 -22.166 48.5 -29.499s42.666 -11 69.999 -11c44.667 0 80.334 9.5 107.001 28.5s40 47.167 40 84.5c0 16 -2.83301 30 -8.5 42s-14.834 22.5 -27.501 31.5s-29.334 16.667 -50.001 23s-46 11.833 -76 16.5
c-37.333 5.33301 -71.166 12.833 -101.499 22.5s-56.166 22.334 -77.499 38.001s-37.833 35 -49.5 58s-17.5 50.5 -17.5 82.5c0 32.667 6.16699 61.667 18.5 87s29.833 46.666 52.5 63.999s49.5 30.5 80.5 39.5s65.167 13.5 102.5 13.5
c71.333 0 130.166 -16.5 176.499 -49.5s75.166 -79.167 86.499 -138.5l-119 -27c-5.33301 37.333 -20 66.666 -44 87.999s-58.333 32 -103 32c-44 0 -76.667 -9 -98 -27s-32 -42 -32 -72zM447.003 856.998l-202 -109l-37 60l189 131z" />
    <glyph glyph-name="sacute" unicode="&#x15b;" horiz-adv-x="478" 
d="M362 641l-202 -109l-37 60l189 131zM158 348c0 -21.333 8.99902 -36 26.999 -44s41.667 -14.333 71 -19c24.667 -3.33301 48.334 -8.16602 71.001 -14.499s42.5 -15 59.5 -26s30.667 -25 41 -42s15.5 -37.833 15.5 -62.5c0 -48 -18.5 -85.5 -55.5 -112.5
s-86.5 -40.5 -148.5 -40.5c-58.667 0 -106.667 12.167 -144 36.5s-58.666 59.833 -63.999 106.5l110 16c2.66699 -26.667 12.667 -46 30 -58s40.333 -18 69 -18c26.667 0 48.167 5 64.5 15s24.5 25.667 24.5 47c0 18.667 -7.66699 32.5 -23 41.5s-42.666 16.5 -81.999 22.5
c-27.333 4 -52 9.5 -74 16.5s-40.833 16 -56.5 27s-27.834 24.667 -36.501 41s-13 36.166 -13 59.499c0 24.667 5.33301 46.334 16 65.001s25 34 43 46s38.833 21 62.5 27s48.167 9 73.5 9c26 0 50.333 -3 73 -9s42.667 -14.5 60 -25.5s31.5 -24.667 42.5 -41
s18.167 -34.5 21.5 -54.5l-110 -23c-3.33301 22.667 -12.333 40.167 -27 52.5s-35.334 18.5 -62.001 18.5c-22 0 -40.667 -4.83301 -56 -14.5s-23 -23.834 -23 -42.501z" />
    <glyph glyph-name="Scircumflex" unicode="&#x15c;" horiz-adv-x="638" 
d="M183 519c0 -16.667 2.83594 -30.6689 8.50293 -42.002s15 -21.166 28 -29.499s30 -15.5 51 -21.5s46.5 -11.333 76.5 -16c40 -6.66699 75.333 -15.334 106 -26.001s56.334 -24.167 77.001 -40.5s36.167 -36 46.5 -59s15.5 -50.5 15.5 -82.5s-6.5 -61.333 -19.5 -88
s-31.167 -49.334 -54.5 -68.001s-51.5 -33.167 -84.5 -43.5s-69.833 -15.5 -110.5 -15.5c-43.333 0 -81.833 5.66699 -115.5 17s-62.334 26.5 -86.001 45.5s-41.834 41.333 -54.501 67s-19.667 52.834 -21 81.501l117 18c1.33301 -17.333 5.33301 -34.166 12 -50.499
s16.5 -30.666 29.5 -42.999s29.167 -22.166 48.5 -29.499s42.666 -11 69.999 -11c44.667 0 80.334 9.5 107.001 28.5s40 47.167 40 84.5c0 16 -2.83301 30 -8.5 42s-14.834 22.5 -27.501 31.5s-29.334 16.667 -50.001 23s-46 11.833 -76 16.5
c-37.333 5.33301 -71.166 12.833 -101.499 22.5s-56.166 22.334 -77.499 38.001s-37.833 35 -49.5 58s-17.5 50.5 -17.5 82.5c0 32.667 6.16699 61.667 18.5 87s29.833 46.666 52.5 63.999s49.5 30.5 80.5 39.5s65.167 13.5 102.5 13.5
c71.333 0 130.166 -16.5 176.499 -49.5s75.166 -79.167 86.499 -138.5l-119 -27c-5.33301 37.333 -20 66.666 -44 87.999s-58.333 32 -103 32c-44 0 -76.667 -9 -98 -27s-32 -42 -32 -72zM274.003 911.998h85l115 -115l-54 -52l-104 101l-101 -101l-54 52z" />
    <glyph glyph-name="scircumflex" unicode="&#x15d;" horiz-adv-x="478" 
d="M203 706h74l115 -128l-55 -50l-98 106l-98 -106l-53 50zM158 348c0 -21.333 8.99902 -36 26.999 -44s41.667 -14.333 71 -19c24.667 -3.33301 48.334 -8.16602 71.001 -14.499s42.5 -15 59.5 -26s30.667 -25 41 -42s15.5 -37.833 15.5 -62.5
c0 -48 -18.5 -85.5 -55.5 -112.5s-86.5 -40.5 -148.5 -40.5c-58.667 0 -106.667 12.167 -144 36.5s-58.666 59.833 -63.999 106.5l110 16c2.66699 -26.667 12.667 -46 30 -58s40.333 -18 69 -18c26.667 0 48.167 5 64.5 15s24.5 25.667 24.5 47
c0 18.667 -7.66699 32.5 -23 41.5s-42.666 16.5 -81.999 22.5c-27.333 4 -52 9.5 -74 16.5s-40.833 16 -56.5 27s-27.834 24.667 -36.501 41s-13 36.166 -13 59.499c0 24.667 5.33301 46.334 16 65.001s25 34 43 46s38.833 21 62.5 27s48.167 9 73.5 9c26 0 50.333 -3 73 -9
s42.667 -14.5 60 -25.5s31.5 -24.667 42.5 -41s18.167 -34.5 21.5 -54.5l-110 -23c-3.33301 22.667 -12.333 40.167 -27 52.5s-35.334 18.5 -62.001 18.5c-22 0 -40.667 -4.83301 -56 -14.5s-23 -23.834 -23 -42.501z" />
    <glyph glyph-name="Scedilla" unicode="&#x15e;" horiz-adv-x="638" 
d="M258 -154c5.33301 -5.33301 12.5 -10.001 21.5 -14.001s19.5 -6 31.5 -6c13.333 0 23.5 3.66699 30.5 11s10.5 17 10.5 29s-3.66699 21 -11 27s-16.666 9 -27.999 9c-16.667 0 -29.667 -4.66699 -39 -14l-30 32l30 70c-36 4 -67.833 12.167 -95.5 24.5
s-51.167 27.833 -70.5 46.5s-34.333 39.667 -45 63s-16.334 48 -17.001 74l117 18c1.33301 -17.333 5.33301 -34.166 12 -50.499s16.5 -30.666 29.5 -42.999s29.167 -22.166 48.5 -29.499s42.666 -11 69.999 -11c44.667 0 80.334 9.5 107.001 28.5s40 47.167 40 84.5
c0 16 -2.83301 30 -8.5 42s-14.834 22.5 -27.501 31.5s-29.334 16.667 -50.001 23s-46 11.833 -76 16.5c-37.333 5.33301 -71.166 12.833 -101.499 22.5s-56.166 22.334 -77.499 38.001s-37.833 35 -49.5 58s-17.5 50.5 -17.5 82.5c0 32.667 6.16699 61.667 18.5 87
s29.833 46.666 52.5 63.999s49.5 30.5 80.5 39.5s65.167 13.5 102.5 13.5c71.333 0 130.166 -16.5 176.499 -49.5s75.166 -79.167 86.499 -138.5l-119 -27c-5.33301 37.333 -20 66.666 -44 87.999s-58.333 32 -103 32c-44 0 -76.667 -9 -98 -27s-32 -42 -32 -72
c0 -16.667 2.83301 -30.667 8.5 -42s15 -21.166 28 -29.499s30 -15.5 51 -21.5s46.5 -11.333 76.5 -16c40 -6.66699 75.333 -15.334 106 -26.001s56.334 -24.167 77.001 -40.5s36.167 -36 46.5 -59s15.5 -50.5 15.5 -82.5s-6.33301 -61.167 -19 -87.5
s-30.5 -48.833 -53.5 -67.5s-50.667 -33.167 -83 -43.5s-68.5 -15.833 -108.5 -16.5l-17 -40c3.33301 1.33301 7.5 2.66602 12.5 3.99902s10.5 2 16.5 2c22.667 0 42 -7.16699 58 -21.5s24 -35.5 24 -63.5c0 -31.333 -10.667 -55.5 -32 -72.5s-47.666 -25.5 -78.999 -25.5
c-22.667 0 -41 3.5 -55 10.5s-24.333 13.833 -31 20.5z" />
    <glyph glyph-name="scedilla" unicode="&#x15f;" horiz-adv-x="478" 
d="M175 -154c5.33301 -5.33301 12.499 -9.99902 21.499 -13.999s19.5 -6 31.5 -6c13.333 0 23.5 3.66699 30.5 11s10.5 17 10.5 29s-3.66699 21 -11 27s-16.666 9 -27.999 9c-16.667 0 -29.667 -4.66699 -39 -14l-30 32l30 70c-46 6 -83 20.833 -111 44.5
s-44.333 55.5 -49 95.5l110 16c2.66699 -26.667 12.667 -46 30 -58s40.333 -18 69 -18c26.667 0 48.167 5 64.5 15s24.5 25.667 24.5 47c0 18.667 -7.66699 32.5 -23 41.5s-42.666 16.5 -81.999 22.5c-27.333 4 -52 9.5 -74 16.5s-40.833 16 -56.5 27
s-27.834 24.667 -36.501 41s-13 36.166 -13 59.499c0 24.667 5.33301 46.334 16 65.001s25 34 43 46s38.833 21 62.5 27s48.167 9 73.5 9c26 0 50.333 -3 73 -9s42.667 -14.5 60 -25.5s31.5 -24.667 42.5 -41s18.167 -34.5 21.5 -54.5l-110 -23
c-3.33301 22.667 -12.333 40.167 -27 52.5s-35.334 18.5 -62.001 18.5c-22 0 -40.667 -4.83301 -56 -14.5s-23 -23.834 -23 -42.501c0 -21.333 9 -36 27 -44s41.667 -14.333 71 -19c24.667 -3.33301 48.334 -8.16602 71.001 -14.499s42.5 -15 59.5 -26s30.667 -25 41 -42
s15.5 -37.833 15.5 -62.5c0 -47.333 -17.833 -84.333 -53.5 -111s-83.834 -40.667 -144.501 -42l-17 -40c3.33301 1.33301 7.5 2.66602 12.5 3.99902s10.5 2 16.5 2c22.667 0 42 -7.16699 58 -21.5s24 -35.5 24 -63.5c0 -31.333 -10.667 -55.5 -32 -72.5
s-47.666 -25.5 -78.999 -25.5c-22.667 0 -41 3.5 -55 10.5s-24.333 13.833 -31 20.5z" />
    <glyph glyph-name="Scaron" unicode="&#x160;" horiz-adv-x="638" 
d="M183 519c0 -16.667 2.83594 -30.6689 8.50293 -42.002s15 -21.166 28 -29.499s30 -15.5 51 -21.5s46.5 -11.333 76.5 -16c40 -6.66699 75.333 -15.334 106 -26.001s56.334 -24.167 77.001 -40.5s36.167 -36 46.5 -59s15.5 -50.5 15.5 -82.5s-6.5 -61.333 -19.5 -88
s-31.167 -49.334 -54.5 -68.001s-51.5 -33.167 -84.5 -43.5s-69.833 -15.5 -110.5 -15.5c-43.333 0 -81.833 5.66699 -115.5 17s-62.334 26.5 -86.001 45.5s-41.834 41.333 -54.501 67s-19.667 52.834 -21 81.501l117 18c1.33301 -17.333 5.33301 -34.166 12 -50.499
s16.5 -30.666 29.5 -42.999s29.167 -22.166 48.5 -29.499s42.666 -11 69.999 -11c44.667 0 80.334 9.5 107.001 28.5s40 47.167 40 84.5c0 16 -2.83301 30 -8.5 42s-14.834 22.5 -27.501 31.5s-29.334 16.667 -50.001 23s-46 11.833 -76 16.5
c-37.333 5.33301 -71.166 12.833 -101.499 22.5s-56.166 22.334 -77.499 38.001s-37.833 35 -49.5 58s-17.5 50.5 -17.5 82.5c0 32.667 6.16699 61.667 18.5 87s29.833 46.666 52.5 63.999s49.5 30.5 80.5 39.5s65.167 13.5 102.5 13.5
c71.333 0 130.166 -16.5 176.499 -49.5s75.166 -79.167 86.499 -138.5l-119 -27c-5.33301 37.333 -20 66.666 -44 87.999s-58.333 32 -103 32c-44 0 -76.667 -9 -98 -27s-32 -42 -32 -72zM161.003 866.998l54 51l102 -101l102 101l54 -51l-114 -116h-85z" />
    <glyph glyph-name="scaron" unicode="&#x161;" horiz-adv-x="478" 
d="M274 534h-73l-116 128l55 50l98 -106l98 106l54 -50zM158 348c0 -21.333 8.99902 -36 26.999 -44s41.667 -14.333 71 -19c24.667 -3.33301 48.334 -8.16602 71.001 -14.499s42.5 -15 59.5 -26s30.667 -25 41 -42s15.5 -37.833 15.5 -62.5c0 -48 -18.5 -85.5 -55.5 -112.5
s-86.5 -40.5 -148.5 -40.5c-58.667 0 -106.667 12.167 -144 36.5s-58.666 59.833 -63.999 106.5l110 16c2.66699 -26.667 12.667 -46 30 -58s40.333 -18 69 -18c26.667 0 48.167 5 64.5 15s24.5 25.667 24.5 47c0 18.667 -7.66699 32.5 -23 41.5s-42.666 16.5 -81.999 22.5
c-27.333 4 -52 9.5 -74 16.5s-40.833 16 -56.5 27s-27.834 24.667 -36.501 41s-13 36.166 -13 59.499c0 24.667 5.33301 46.334 16 65.001s25 34 43 46s38.833 21 62.5 27s48.167 9 73.5 9c26 0 50.333 -3 73 -9s42.667 -14.5 60 -25.5s31.5 -24.667 42.5 -41
s18.167 -34.5 21.5 -54.5l-110 -23c-3.33301 22.667 -12.333 40.167 -27 52.5s-35.334 18.5 -62.001 18.5c-22 0 -40.667 -4.83301 -56 -14.5s-23 -23.834 -23 -42.501z" />
    <glyph glyph-name="Tcommaaccent" unicode="&#x162;" horiz-adv-x="570" 
d="M355 -140c0 -10 -1.33301 -21.5 -4 -34.5s-8 -25.5 -16 -37.5s-18.833 -22.667 -32.5 -32s-31.5 -15.333 -53.5 -18l-16 43c6 0 12.333 1.16699 19 3.5s12.834 5.5 18.501 9.5s10.5 8.66699 14.5 14s6 11.333 6 18v3c-1.33301 -0.666992 -5.33301 -1 -12 -1
c-14.667 0 -27.834 5.5 -39.501 16.5s-17.5 25.167 -17.5 42.5c0 14 5 27.5 15 40.5s25.667 19.5 47 19.5c24.667 0 42.667 -9 54 -27s17 -38 17 -60zM21 700h528v-97h-205v-603h-118v603h-205v97z" />
    <glyph glyph-name="tcommaaccent" unicode="&#x163;" horiz-adv-x="358" 
d="M264 -140c0 -10 -1.33301 -21.5 -4 -34.5s-8 -25.5 -16 -37.5s-18.833 -22.667 -32.5 -32s-31.5 -15.333 -53.5 -18l-16 43c6 0 12.333 1.16699 19 3.5s12.834 5.5 18.501 9.5s10.5 8.66699 14.5 14s6 11.333 6 18v3c-1.33301 -0.666992 -5.33301 -1 -12 -1
c-14.667 0 -27.834 5.5 -39.501 16.5s-17.5 25.167 -17.5 42.5c0 14 5 27.5 15 40.5s25.667 19.5 47 19.5c24.667 0 42.667 -9 54 -27s17 -38 17 -60zM336 7c-12 -6 -26.499 -10.833 -43.499 -14.5s-34.833 -5.5 -53.5 -5.5c-44 0 -78.667 11.5 -104 34.5
s-38 56.5 -38 100.5v268h-80v84h80v135l113 52v-187h107v-84h-107v-254c0 -20.667 4.16699 -35.167 12.5 -43.5s19.166 -12.5 32.499 -12.5c10 0 19 1.66699 27 5s15.667 7 23 11z" />
    <glyph glyph-name="Tcaron" unicode="&#x164;" horiz-adv-x="570" 
d="M129 867l54 51l102 -101l102 101l54 -51l-114 -116h-85zM21 700h528v-97h-205v-603h-118v603h-205v97z" />
    <glyph glyph-name="tcaron" unicode="&#x165;" horiz-adv-x="358" 
d="M388 708l-64 -177l-64 17l41 183zM336 7c-12 -6 -26.499 -10.833 -43.499 -14.5s-34.833 -5.5 -53.5 -5.5c-44 0 -78.667 11.5 -104 34.5s-38 56.5 -38 100.5v268h-80v84h80v135l113 52v-187h107v-84h-107v-254c0 -20.667 4.16699 -35.167 12.5 -43.5
s19.166 -12.5 32.499 -12.5c10 0 19 1.66699 27 5s15.667 7 23 11z" />
    <glyph glyph-name="Tbar" unicode="&#x166;" horiz-adv-x="570" 
d="M21 700h528v-97h-205v-173h132v-90h-132v-340h-118v340h-132v90h132v173h-205v97z" />
    <glyph glyph-name="tbar" unicode="&#x167;" horiz-adv-x="358" 
d="M336 7c-12 -6 -26.499 -10.833 -43.499 -14.5s-34.833 -5.5 -53.5 -5.5c-44 0 -78.667 11.5 -104 34.5s-38 56.5 -38 100.5v102h-80v81h80v85h-80v84h80v135l113 52v-187h107v-84h-107v-85h102v-81h-102v-88c0 -20.667 4.16699 -35.167 12.5 -43.5
s19.166 -12.5 32.499 -12.5c10 0 19 1.66699 27 5s15.667 7 23 11z" />
    <glyph glyph-name="Utilde" unicode="&#x168;" horiz-adv-x="688" 
d="M272 892c18 0 33.3301 -2.83203 45.9971 -8.49902s24.334 -11.667 35.001 -18s20.667 -12.333 30 -18s19.666 -8.5 30.999 -8.5c10.667 0 19.5 2.5 26.5 7.5s13.167 10.5 18.5 16.5c5.33301 7.33301 10 15.666 14 24.999l56 -49
c-7.33301 -14 -16.666 -26.333 -27.999 -37c-9.33301 -9.33301 -21.5 -17.833 -36.5 -25.5s-33.167 -11.5 -54.5 -11.5c-17.333 0 -32.333 2.66699 -45 8s-24.167 11.333 -34.5 18s-20.333 12.667 -30 18s-20.167 8 -31.5 8s-20.666 -2.5 -27.999 -7.5
s-13.333 -10.5 -18 -16.5c-5.33301 -7.33301 -9.66602 -15 -12.999 -23l-56 49c6.66699 13.333 15.667 25.333 27 36c9.33301 9.33301 21.5 17.833 36.5 25.5s33.167 11.5 54.5 11.5zM343.997 -12.999c-92 0 -159.5 23 -202.5 69s-64.5 111.667 -64.5 197v447h118v-448
c0 -22.667 2.66699 -44.167 8 -64.5s13.833 -38.166 25.5 -53.499s27 -27.5 46 -36.5s42.167 -13.5 69.5 -13.5s50.5 4.5 69.5 13.5s34.333 21.167 46 36.5s20.167 33.166 25.5 53.499s8 41.833 8 64.5v448h118v-447c0 -85.333 -21.5 -151 -64.5 -197s-110.5 -69 -202.5 -69
z" />
    <glyph glyph-name="utilde" unicode="&#x169;" horiz-adv-x="560" 
d="M488 0h-108v71c-14.667 -24.667 -33.667 -44.834 -57 -60.501s-53.333 -23.5 -90 -23.5c-22.667 0 -44 3.33301 -64 10s-37.5 16.667 -52.5 30s-26.833 29.833 -35.5 49.5s-13 42.834 -13 69.501v328h113v-300c0 -34 8.83301 -58.167 26.5 -72.5s37.5 -21.5 59.5 -21.5
c14 0 27.5 3 40.5 9s24.5 15 34.5 27s18 27 24 45s9 38.667 9 62v251h113v-474zM207 675c18 0 33.3301 -2.83203 45.9971 -8.49902s24.334 -11.667 35.001 -18s20.667 -12.333 30 -18s19.666 -8.5 30.999 -8.5c10.667 0 19.5 2.5 26.5 7.5s13.167 10.5 18.5 16.5
c5.33301 7.33301 10 15.666 14 24.999l56 -49c-7.33301 -14 -16.666 -26.333 -27.999 -37c-9.33301 -9.33301 -21.5 -17.833 -36.5 -25.5s-33.167 -11.5 -54.5 -11.5c-17.333 0 -32.333 2.83301 -45 8.5s-24.167 11.667 -34.5 18s-20.333 12.333 -30 18
s-20.167 8.5 -31.5 8.5s-20.666 -2.5 -27.999 -7.5s-13.333 -10.5 -18 -16.5c-5.33301 -7.33301 -9.66602 -15.333 -12.999 -24l-56 49c6.66699 13.333 15.667 25.333 27 36c9.33301 9.33301 21.5 17.833 36.5 25.5s33.167 11.5 54.5 11.5z" />
    <glyph glyph-name="Umacron" unicode="&#x16a;" horiz-adv-x="688" 
d="M208 850h273v-75h-273v75zM344 -13c-92 0 -159.5 23 -202.5 69s-64.5 111.667 -64.5 197v447h118v-448c0 -22.667 2.66699 -44.167 8 -64.5s13.833 -38.166 25.5 -53.499s27 -27.5 46 -36.5s42.167 -13.5 69.5 -13.5s50.5 4.5 69.5 13.5s34.333 21.167 46 36.5
s20.167 33.166 25.5 53.499s8 41.833 8 64.5v448h118v-447c0 -85.333 -21.5 -151 -64.5 -197s-110.5 -69 -202.5 -69z" />
    <glyph glyph-name="umacron" unicode="&#x16b;" horiz-adv-x="560" 
d="M488 0h-108v71c-14.667 -24.667 -33.667 -44.834 -57 -60.501s-53.333 -23.5 -90 -23.5c-22.667 0 -44 3.33301 -64 10s-37.5 16.667 -52.5 30s-26.833 29.833 -35.5 49.5s-13 42.834 -13 69.501v328h113v-300c0 -34 8.83301 -58.167 26.5 -72.5s37.5 -21.5 59.5 -21.5
c14 0 27.5 3 40.5 9s24.5 15 34.5 27s18 27 24 45s9 38.667 9 62v251h113v-474zM141 630h273v-74h-273v74z" />
    </font>
</defs>
</svg>
