<?xml version="1.0" standalone="no"?>
<!DOCTYPE svg PUBLIC "-//W3C//DTD SVG 20010904//EN"
 "http://www.w3.org/TR/2001/REC-SVG-20010904/DTD/svg10.dtd">
<svg version="1.0" xmlns="http://www.w3.org/2000/svg"
 width="178.000000pt" height="178.000000pt" viewBox="0 0 178.000000 178.000000"
 preserveAspectRatio="xMidYMid meet">
<metadata>
Created by potrace 1.11, written by Peter Selinger 2001-2013
</metadata>
<g transform="translate(0.000000,178.000000) scale(0.100000,-0.100000)"
fill="#000000" stroke="none">
<path d="M93 1627 c-80 -93 -93 -131 -93 -259 l1 -113 106 -50 c58 -27 128
-62 154 -77 l48 -28 -20 -45 c-28 -63 -39 -140 -28 -204 18 -114 75 -189 280
-368 178 -155 175 -154 287 -93 40 22 82 40 92 40 11 0 73 -48 137 -108 253
-230 294 -262 334 -262 32 0 89 59 89 93 0 38 -30 71 -217 237 -140 124 -183
167 -183 186 0 33 56 94 86 94 17 0 79 -49 209 -165 102 -91 197 -170 211
-175 38 -15 90 11 111 55 16 34 16 38 -1 69 -10 18 -44 55 -75 82 -162 137
-336 300 -339 317 -2 11 8 45 22 77 16 35 26 76 26 103 0 45 -1 46 -122 160
-167 156 -212 192 -288 230 -85 42 -173 43 -267 4 l-63 -25 -87 50 c-94 54
-251 134 -338 172 l-53 24 -19 -21z"/>
</g>
</svg>
