<svg width="24" height="24" viewBox="0 0 24 24" fill="none" xmlns="http://www.w3.org/2000/svg"><circle cx="12" cy="12" r="12" fill="#D73D3D"/><path d="M15.901 14.961a.336.336 0 0 1 .073.365.335.335 0 0 1-.073.108l-.466.467a.335.335 0 0 1-.474 0L12 12.941 9.039 15.9a.336.336 0 0 1-.365.073.335.335 0 0 1-.109-.073l-.466-.466a.333.333 0 0 1 0-.474L11.059 12 8.1 9.039a.334.334 0 0 1 0-.474l.466-.466a.334.334 0 0 1 .474 0L12 11.059l2.961-2.96a.334.334 0 0 1 .473 0l.467.466a.335.335 0 0 1 0 .474L12.941 12l2.96 2.961z" fill="#fff"/></svg>
